<?xml version="1.0" encoding="utf-8" standalone="no"?>
<!DOCTYPE svg PUBLIC "-//W3C//DTD SVG 1.1//EN"
  "http://www.w3.org/Graphics/SVG/1.1/DTD/svg11.dtd">
<svg xmlns:xlink="http://www.w3.org/1999/xlink" width="999.560937pt" height="710.9095pt" viewBox="0 0 999.560937 710.9095" xmlns="http://www.w3.org/2000/svg" version="1.1">
 <metadata>
  <rdf:RDF xmlns:dc="http://purl.org/dc/elements/1.1/" xmlns:cc="http://creativecommons.org/ns#" xmlns:rdf="http://www.w3.org/1999/02/22-rdf-syntax-ns#">
   <cc:Work>
    <dc:type rdf:resource="http://purl.org/dc/dcmitype/StillImage"/>
    <dc:date>2025-11-04T21:44:05.027742</dc:date>
    <dc:format>image/svg+xml</dc:format>
    <dc:creator>
     <cc:Agent>
      <dc:title>Matplotlib v3.9.4, https://matplotlib.org/</dc:title>
     </cc:Agent>
    </dc:creator>
   </cc:Work>
  </rdf:RDF>
 </metadata>
 <defs>
  <style type="text/css">*{stroke-linejoin: round; stroke-linecap: butt}</style>
 </defs>
 <g id="figure_1">
  <g id="patch_1">
   <path d="M 0 710.9095 
L 999.560937 710.9095 
L 999.560937 0 
L 0 0 
z
" style="fill: #ffffff"/>
  </g>
  <g id="axes_1">
   <g id="patch_2">
    <path d="M 57.280938 671.417625 
L 992.360938 671.417625 
L 992.360938 53.697625 
L 57.280938 53.697625 
z
" style="fill: #ffffff"/>
   </g>
   <g id="PathCollection_1">
    <defs>
     <path id="m5ae777fc0e" d="M -7.071068 7.071068 
L 7.071068 7.071068 
L 7.071068 -7.071068 
L -7.071068 -7.071068 
z
" style="stroke: #000000; stroke-opacity: 0.7; stroke-width: 2"/>
    </defs>
    <g clip-path="url(#p6db0c35456)">
     <use xlink:href="#m5ae777fc0e" x="949.857301" y="242.426641" style="fill: #1f77b4; fill-opacity: 0.7; stroke: #000000; stroke-opacity: 0.7; stroke-width: 2"/>
     <use xlink:href="#m5ae777fc0e" x="416.839469" y="271.335208" style="fill: #1f77b4; fill-opacity: 0.7; stroke: #000000; stroke-opacity: 0.7; stroke-width: 2"/>
     <use xlink:href="#m5ae777fc0e" x="680.855146" y="315.012697" style="fill: #1f77b4; fill-opacity: 0.7; stroke: #000000; stroke-opacity: 0.7; stroke-width: 2"/>
    </g>
   </g>
   <g id="PathCollection_2">
    <defs>
     <path id="m2bea1d42a9" d="M -7.071068 7.071068 
L 7.071068 7.071068 
L 7.071068 -7.071068 
L -7.071068 -7.071068 
z
" style="stroke: #000000; stroke-opacity: 0.7; stroke-width: 2"/>
    </defs>
    <g clip-path="url(#p6db0c35456)">
     <use xlink:href="#m2bea1d42a9" x="540.041753" y="466.247977" style="fill: #ff7f0e; fill-opacity: 0.7; stroke: #000000; stroke-opacity: 0.7; stroke-width: 2"/>
     <use xlink:href="#m2bea1d42a9" x="668.506231" y="114.344487" style="fill: #ff7f0e; fill-opacity: 0.7; stroke: #000000; stroke-opacity: 0.7; stroke-width: 2"/>
     <use xlink:href="#m2bea1d42a9" x="699.77521" y="629.375406" style="fill: #ff7f0e; fill-opacity: 0.7; stroke: #000000; stroke-opacity: 0.7; stroke-width: 2"/>
    </g>
   </g>
   <g id="PathCollection_3">
    <defs>
     <path id="m2a11c8741b" d="M 0 6.123724 
C 1.624031 6.123724 3.181764 5.47849 4.330127 4.330127 
C 5.47849 3.181764 6.123724 1.624031 6.123724 0 
C 6.123724 -1.624031 5.47849 -3.181764 4.330127 -4.330127 
C 3.181764 -5.47849 1.624031 -6.123724 0 -6.123724 
C -1.624031 -6.123724 -3.181764 -5.47849 -4.330127 -4.330127 
C -5.47849 -3.181764 -6.123724 -1.624031 -6.123724 0 
C -6.123724 1.624031 -5.47849 3.181764 -4.330127 4.330127 
C -3.181764 5.47849 -1.624031 6.123724 0 6.123724 
z
" style="stroke: #000000; stroke-opacity: 0.8; stroke-width: 1.5"/>
    </defs>
    <g clip-path="url(#p6db0c35456)">
     <use xlink:href="#m2a11c8741b" x="213.13781" y="440.305453" style="fill: #1f77b4; fill-opacity: 0.8; stroke: #000000; stroke-opacity: 0.8; stroke-width: 1.5"/>
     <use xlink:href="#m2a11c8741b" x="890.377104" y="462.275122" style="fill: #1f77b4; fill-opacity: 0.8; stroke: #000000; stroke-opacity: 0.8; stroke-width: 1.5"/>
     <use xlink:href="#m2a11c8741b" x="213.115793" y="440.30733" style="fill: #1f77b4; fill-opacity: 0.8; stroke: #000000; stroke-opacity: 0.8; stroke-width: 1.5"/>
    </g>
   </g>
   <g id="PathCollection_4">
    <defs>
     <path id="m76c16dc0ae" d="M 0 6.123724 
C 1.624031 6.123724 3.181764 5.47849 4.330127 4.330127 
C 5.47849 3.181764 6.123724 1.624031 6.123724 0 
C 6.123724 -1.624031 5.47849 -3.181764 4.330127 -4.330127 
C 3.181764 -5.47849 1.624031 -6.123724 0 -6.123724 
C -1.624031 -6.123724 -3.181764 -5.47849 -4.330127 -4.330127 
C -5.47849 -3.181764 -6.123724 -1.624031 -6.123724 0 
C -6.123724 1.624031 -5.47849 3.181764 -4.330127 4.330127 
C -3.181764 5.47849 -1.624031 6.123724 0 6.123724 
z
" style="stroke: #000000; stroke-opacity: 0.8; stroke-width: 1.5"/>
    </defs>
    <g clip-path="url(#p6db0c35456)">
     <use xlink:href="#m76c16dc0ae" x="363.341148" y="643.339443" style="fill: #ff7f0e; fill-opacity: 0.8; stroke: #000000; stroke-opacity: 0.8; stroke-width: 1.5"/>
     <use xlink:href="#m76c16dc0ae" x="352.484255" y="81.775807" style="fill: #ff7f0e; fill-opacity: 0.8; stroke: #000000; stroke-opacity: 0.8; stroke-width: 1.5"/>
     <use xlink:href="#m76c16dc0ae" x="99.784574" y="227.918445" style="fill: #ff7f0e; fill-opacity: 0.8; stroke: #000000; stroke-opacity: 0.8; stroke-width: 1.5"/>
    </g>
   </g>
   <g id="patch_3">
    <path d="M 950.577419 230.492105 
Q 950.21736 231.309064 949.857301 232.126023 
" clip-path="url(#p6db0c35456)" style="fill: none; stroke: #808080; stroke-width: 0.5; stroke-linecap: round"/>
   </g>
   <g id="patch_4">
    <path d="M 416.839469 259.569814 
Q 416.839469 260.302202 416.839469 261.034589 
" clip-path="url(#p6db0c35456)" style="fill: none; stroke: #808080; stroke-width: 0.5; stroke-linecap: round"/>
   </g>
   <g id="patch_5">
    <path d="M 680.855146 303.247304 
Q 680.855146 303.979691 680.855146 304.712079 
" clip-path="url(#p6db0c35456)" style="fill: none; stroke: #808080; stroke-width: 0.5; stroke-linecap: round"/>
   </g>
   <g id="patch_6">
    <path d="M 540.041753 454.482584 
Q 540.041753 455.214971 540.041753 455.947359 
" clip-path="url(#p6db0c35456)" style="fill: none; stroke: #808080; stroke-width: 0.5; stroke-linecap: round"/>
   </g>
   <g id="patch_7">
    <path d="M 668.506231 102.579094 
Q 668.506231 103.311481 668.506231 104.043868 
" clip-path="url(#p6db0c35456)" style="fill: none; stroke: #808080; stroke-width: 0.5; stroke-linecap: round"/>
   </g>
   <g id="patch_8">
    <path d="M 700.495328 617.44087 
Q 700.135269 618.257829 699.77521 619.074787 
" clip-path="url(#p6db0c35456)" style="fill: none; stroke: #808080; stroke-width: 0.5; stroke-linecap: round"/>
   </g>
   <g id="patch_9">
    <path d="M 220.014159 429.325829 
Q 217.571511 429.567028 215.128863 429.808228 
" clip-path="url(#p6db0c35456)" style="fill: none; stroke: #808080; stroke-width: 0.5; stroke-linecap: round"/>
   </g>
   <g id="patch_10">
    <path d="M 894.044942 449.59674 
Q 893.050972 450.241105 892.057002 450.885469 
" clip-path="url(#p6db0c35456)" style="fill: none; stroke: #808080; stroke-width: 0.5; stroke-linecap: round"/>
   </g>
   <g id="patch_11">
    <path d="M 208.346522 415.80007 
Q 210.412702 421.954779 212.478881 428.109487 
" clip-path="url(#p6db0c35456)" style="fill: none; stroke: #808080; stroke-width: 0.5; stroke-linecap: round"/>
   </g>
   <g id="patch_12">
    <path d="M 367.008986 630.661062 
Q 366.015016 631.305426 365.021046 631.949791 
" clip-path="url(#p6db0c35456)" style="fill: none; stroke: #808080; stroke-width: 0.5; stroke-linecap: round"/>
   </g>
   <g id="patch_13">
    <path d="M 356.152093 69.097425 
Q 355.158123 69.74179 354.164153 70.386154 
" clip-path="url(#p6db0c35456)" style="fill: none; stroke: #808080; stroke-width: 0.5; stroke-linecap: round"/>
   </g>
   <g id="patch_14">
    <path d="M 103.452412 215.240064 
Q 102.458442 215.884428 101.464472 216.528793 
" clip-path="url(#p6db0c35456)" style="fill: none; stroke: #808080; stroke-width: 0.5; stroke-linecap: round"/>
   </g>
   <g id="matplotlib.axis_1">
    <g id="xtick_1">
     <g id="line2d_1">
      <path d="M 63.964633 671.417625 
L 63.964633 53.697625 
" clip-path="url(#p6db0c35456)" style="fill: none; stroke-dasharray: 2.96,1.28; stroke-dashoffset: 0; stroke: #b0b0b0; stroke-opacity: 0.3; stroke-width: 0.8"/>
     </g>
     <g id="line2d_2">
      <defs>
       <path id="m265a7ce3fa" d="M 0 0 
L 0 3.5 
" style="stroke: #000000; stroke-width: 0.8"/>
      </defs>
      <g>
       <use xlink:href="#m265a7ce3fa" x="63.964633" y="671.417625" style="stroke: #000000; stroke-width: 0.8"/>
      </g>
     </g>
     <g id="text_1">
      <!-- −300 -->
      <g transform="translate(50.23104 686.016062) scale(0.1 -0.1)">
       <defs>
        <path id="DejaVuSans-2212" d="M 678 2272 
L 4684 2272 
L 4684 1741 
L 678 1741 
L 678 2272 
z
" transform="scale(0.015625)"/>
        <path id="DejaVuSans-33" d="M 2597 2516 
Q 3050 2419 3304 2112 
Q 3559 1806 3559 1356 
Q 3559 666 3084 287 
Q 2609 -91 1734 -91 
Q 1441 -91 1130 -33 
Q 819 25 488 141 
L 488 750 
Q 750 597 1062 519 
Q 1375 441 1716 441 
Q 2309 441 2620 675 
Q 2931 909 2931 1356 
Q 2931 1769 2642 2001 
Q 2353 2234 1838 2234 
L 1294 2234 
L 1294 2753 
L 1863 2753 
Q 2328 2753 2575 2939 
Q 2822 3125 2822 3475 
Q 2822 3834 2567 4026 
Q 2313 4219 1838 4219 
Q 1578 4219 1281 4162 
Q 984 4106 628 3988 
L 628 4550 
Q 988 4650 1302 4700 
Q 1616 4750 1894 4750 
Q 2613 4750 3031 4423 
Q 3450 4097 3450 3541 
Q 3450 3153 3228 2886 
Q 3006 2619 2597 2516 
z
" transform="scale(0.015625)"/>
        <path id="DejaVuSans-30" d="M 2034 4250 
Q 1547 4250 1301 3770 
Q 1056 3291 1056 2328 
Q 1056 1369 1301 889 
Q 1547 409 2034 409 
Q 2525 409 2770 889 
Q 3016 1369 3016 2328 
Q 3016 3291 2770 3770 
Q 2525 4250 2034 4250 
z
M 2034 4750 
Q 2819 4750 3233 4129 
Q 3647 3509 3647 2328 
Q 3647 1150 3233 529 
Q 2819 -91 2034 -91 
Q 1250 -91 836 529 
Q 422 1150 422 2328 
Q 422 3509 836 4129 
Q 1250 4750 2034 4750 
z
" transform="scale(0.015625)"/>
       </defs>
       <use xlink:href="#DejaVuSans-2212"/>
       <use xlink:href="#DejaVuSans-33" x="83.789062"/>
       <use xlink:href="#DejaVuSans-30" x="147.412109"/>
       <use xlink:href="#DejaVuSans-30" x="211.035156"/>
      </g>
     </g>
    </g>
    <g id="xtick_2">
     <g id="line2d_3">
      <path d="M 214.589124 671.417625 
L 214.589124 53.697625 
" clip-path="url(#p6db0c35456)" style="fill: none; stroke-dasharray: 2.96,1.28; stroke-dashoffset: 0; stroke: #b0b0b0; stroke-opacity: 0.3; stroke-width: 0.8"/>
     </g>
     <g id="line2d_4">
      <g>
       <use xlink:href="#m265a7ce3fa" x="214.589124" y="671.417625" style="stroke: #000000; stroke-width: 0.8"/>
      </g>
     </g>
     <g id="text_2">
      <!-- −200 -->
      <g transform="translate(200.85553 686.016062) scale(0.1 -0.1)">
       <defs>
        <path id="DejaVuSans-32" d="M 1228 531 
L 3431 531 
L 3431 0 
L 469 0 
L 469 531 
Q 828 903 1448 1529 
Q 2069 2156 2228 2338 
Q 2531 2678 2651 2914 
Q 2772 3150 2772 3378 
Q 2772 3750 2511 3984 
Q 2250 4219 1831 4219 
Q 1534 4219 1204 4116 
Q 875 4013 500 3803 
L 500 4441 
Q 881 4594 1212 4672 
Q 1544 4750 1819 4750 
Q 2544 4750 2975 4387 
Q 3406 4025 3406 3419 
Q 3406 3131 3298 2873 
Q 3191 2616 2906 2266 
Q 2828 2175 2409 1742 
Q 1991 1309 1228 531 
z
" transform="scale(0.015625)"/>
       </defs>
       <use xlink:href="#DejaVuSans-2212"/>
       <use xlink:href="#DejaVuSans-32" x="83.789062"/>
       <use xlink:href="#DejaVuSans-30" x="147.412109"/>
       <use xlink:href="#DejaVuSans-30" x="211.035156"/>
      </g>
     </g>
    </g>
    <g id="xtick_3">
     <g id="line2d_5">
      <path d="M 365.213614 671.417625 
L 365.213614 53.697625 
" clip-path="url(#p6db0c35456)" style="fill: none; stroke-dasharray: 2.96,1.28; stroke-dashoffset: 0; stroke: #b0b0b0; stroke-opacity: 0.3; stroke-width: 0.8"/>
     </g>
     <g id="line2d_6">
      <g>
       <use xlink:href="#m265a7ce3fa" x="365.213614" y="671.417625" style="stroke: #000000; stroke-width: 0.8"/>
      </g>
     </g>
     <g id="text_3">
      <!-- −100 -->
      <g transform="translate(351.48002 686.016062) scale(0.1 -0.1)">
       <defs>
        <path id="DejaVuSans-31" d="M 794 531 
L 1825 531 
L 1825 4091 
L 703 3866 
L 703 4441 
L 1819 4666 
L 2450 4666 
L 2450 531 
L 3481 531 
L 3481 0 
L 794 0 
L 794 531 
z
" transform="scale(0.015625)"/>
       </defs>
       <use xlink:href="#DejaVuSans-2212"/>
       <use xlink:href="#DejaVuSans-31" x="83.789062"/>
       <use xlink:href="#DejaVuSans-30" x="147.412109"/>
       <use xlink:href="#DejaVuSans-30" x="211.035156"/>
      </g>
     </g>
    </g>
    <g id="xtick_4">
     <g id="line2d_7">
      <path d="M 515.838104 671.417625 
L 515.838104 53.697625 
" clip-path="url(#p6db0c35456)" style="fill: none; stroke-dasharray: 2.96,1.28; stroke-dashoffset: 0; stroke: #b0b0b0; stroke-opacity: 0.3; stroke-width: 0.8"/>
     </g>
     <g id="line2d_8">
      <g>
       <use xlink:href="#m265a7ce3fa" x="515.838104" y="671.417625" style="stroke: #000000; stroke-width: 0.8"/>
      </g>
     </g>
     <g id="text_4">
      <!-- 0 -->
      <g transform="translate(512.656854 686.016062) scale(0.1 -0.1)">
       <use xlink:href="#DejaVuSans-30"/>
      </g>
     </g>
    </g>
    <g id="xtick_5">
     <g id="line2d_9">
      <path d="M 666.462594 671.417625 
L 666.462594 53.697625 
" clip-path="url(#p6db0c35456)" style="fill: none; stroke-dasharray: 2.96,1.28; stroke-dashoffset: 0; stroke: #b0b0b0; stroke-opacity: 0.3; stroke-width: 0.8"/>
     </g>
     <g id="line2d_10">
      <g>
       <use xlink:href="#m265a7ce3fa" x="666.462594" y="671.417625" style="stroke: #000000; stroke-width: 0.8"/>
      </g>
     </g>
     <g id="text_5">
      <!-- 100 -->
      <g transform="translate(656.918844 686.016062) scale(0.1 -0.1)">
       <use xlink:href="#DejaVuSans-31"/>
       <use xlink:href="#DejaVuSans-30" x="63.623047"/>
       <use xlink:href="#DejaVuSans-30" x="127.246094"/>
      </g>
     </g>
    </g>
    <g id="xtick_6">
     <g id="line2d_11">
      <path d="M 817.087084 671.417625 
L 817.087084 53.697625 
" clip-path="url(#p6db0c35456)" style="fill: none; stroke-dasharray: 2.96,1.28; stroke-dashoffset: 0; stroke: #b0b0b0; stroke-opacity: 0.3; stroke-width: 0.8"/>
     </g>
     <g id="line2d_12">
      <g>
       <use xlink:href="#m265a7ce3fa" x="817.087084" y="671.417625" style="stroke: #000000; stroke-width: 0.8"/>
      </g>
     </g>
     <g id="text_6">
      <!-- 200 -->
      <g transform="translate(807.543334 686.016062) scale(0.1 -0.1)">
       <use xlink:href="#DejaVuSans-32"/>
       <use xlink:href="#DejaVuSans-30" x="63.623047"/>
       <use xlink:href="#DejaVuSans-30" x="127.246094"/>
      </g>
     </g>
    </g>
    <g id="xtick_7">
     <g id="line2d_13">
      <path d="M 967.711574 671.417625 
L 967.711574 53.697625 
" clip-path="url(#p6db0c35456)" style="fill: none; stroke-dasharray: 2.96,1.28; stroke-dashoffset: 0; stroke: #b0b0b0; stroke-opacity: 0.3; stroke-width: 0.8"/>
     </g>
     <g id="line2d_14">
      <g>
       <use xlink:href="#m265a7ce3fa" x="967.711574" y="671.417625" style="stroke: #000000; stroke-width: 0.8"/>
      </g>
     </g>
     <g id="text_7">
      <!-- 300 -->
      <g transform="translate(958.167824 686.016062) scale(0.1 -0.1)">
       <use xlink:href="#DejaVuSans-33"/>
       <use xlink:href="#DejaVuSans-30" x="63.623047"/>
       <use xlink:href="#DejaVuSans-30" x="127.246094"/>
      </g>
     </g>
    </g>
    <g id="text_8">
     <!-- Dimension 1 -->
     <g transform="translate(482.905313 701.213875) scale(0.12 -0.12)">
      <defs>
       <path id="DejaVuSans-Bold-44" d="M 1791 3756 
L 1791 909 
L 2222 909 
Q 2959 909 3348 1275 
Q 3738 1641 3738 2338 
Q 3738 3031 3350 3393 
Q 2963 3756 2222 3756 
L 1791 3756 
z
M 588 4666 
L 1856 4666 
Q 2919 4666 3439 4514 
Q 3959 4363 4331 4000 
Q 4659 3684 4818 3271 
Q 4978 2859 4978 2338 
Q 4978 1809 4818 1395 
Q 4659 981 4331 666 
Q 3956 303 3431 151 
Q 2906 0 1856 0 
L 588 0 
L 588 4666 
z
" transform="scale(0.015625)"/>
       <path id="DejaVuSans-Bold-69" d="M 538 3500 
L 1656 3500 
L 1656 0 
L 538 0 
L 538 3500 
z
M 538 4863 
L 1656 4863 
L 1656 3950 
L 538 3950 
L 538 4863 
z
" transform="scale(0.015625)"/>
       <path id="DejaVuSans-Bold-6d" d="M 3781 2919 
Q 3994 3244 4286 3414 
Q 4578 3584 4928 3584 
Q 5531 3584 5847 3212 
Q 6163 2841 6163 2131 
L 6163 0 
L 5038 0 
L 5038 1825 
Q 5041 1866 5042 1909 
Q 5044 1953 5044 2034 
Q 5044 2406 4934 2573 
Q 4825 2741 4581 2741 
Q 4263 2741 4089 2478 
Q 3916 2216 3909 1719 
L 3909 0 
L 2784 0 
L 2784 1825 
Q 2784 2406 2684 2573 
Q 2584 2741 2328 2741 
Q 2006 2741 1831 2477 
Q 1656 2213 1656 1722 
L 1656 0 
L 531 0 
L 531 3500 
L 1656 3500 
L 1656 2988 
Q 1863 3284 2130 3434 
Q 2397 3584 2719 3584 
Q 3081 3584 3359 3409 
Q 3638 3234 3781 2919 
z
" transform="scale(0.015625)"/>
       <path id="DejaVuSans-Bold-65" d="M 4031 1759 
L 4031 1441 
L 1416 1441 
Q 1456 1047 1700 850 
Q 1944 653 2381 653 
Q 2734 653 3104 758 
Q 3475 863 3866 1075 
L 3866 213 
Q 3469 63 3072 -14 
Q 2675 -91 2278 -91 
Q 1328 -91 801 392 
Q 275 875 275 1747 
Q 275 2603 792 3093 
Q 1309 3584 2216 3584 
Q 3041 3584 3536 3087 
Q 4031 2591 4031 1759 
z
M 2881 2131 
Q 2881 2450 2695 2645 
Q 2509 2841 2209 2841 
Q 1884 2841 1681 2658 
Q 1478 2475 1428 2131 
L 2881 2131 
z
" transform="scale(0.015625)"/>
       <path id="DejaVuSans-Bold-6e" d="M 4056 2131 
L 4056 0 
L 2931 0 
L 2931 347 
L 2931 1631 
Q 2931 2084 2911 2256 
Q 2891 2428 2841 2509 
Q 2775 2619 2662 2680 
Q 2550 2741 2406 2741 
Q 2056 2741 1856 2470 
Q 1656 2200 1656 1722 
L 1656 0 
L 538 0 
L 538 3500 
L 1656 3500 
L 1656 2988 
Q 1909 3294 2193 3439 
Q 2478 3584 2822 3584 
Q 3428 3584 3742 3212 
Q 4056 2841 4056 2131 
z
" transform="scale(0.015625)"/>
       <path id="DejaVuSans-Bold-73" d="M 3272 3391 
L 3272 2541 
Q 2913 2691 2578 2766 
Q 2244 2841 1947 2841 
Q 1628 2841 1473 2761 
Q 1319 2681 1319 2516 
Q 1319 2381 1436 2309 
Q 1553 2238 1856 2203 
L 2053 2175 
Q 2913 2066 3209 1816 
Q 3506 1566 3506 1031 
Q 3506 472 3093 190 
Q 2681 -91 1863 -91 
Q 1516 -91 1145 -36 
Q 775 19 384 128 
L 384 978 
Q 719 816 1070 734 
Q 1422 653 1784 653 
Q 2113 653 2278 743 
Q 2444 834 2444 1013 
Q 2444 1163 2330 1236 
Q 2216 1309 1875 1350 
L 1678 1375 
Q 931 1469 631 1722 
Q 331 1975 331 2491 
Q 331 3047 712 3315 
Q 1094 3584 1881 3584 
Q 2191 3584 2531 3537 
Q 2872 3491 3272 3391 
z
" transform="scale(0.015625)"/>
       <path id="DejaVuSans-Bold-6f" d="M 2203 2784 
Q 1831 2784 1636 2517 
Q 1441 2250 1441 1747 
Q 1441 1244 1636 976 
Q 1831 709 2203 709 
Q 2569 709 2762 976 
Q 2956 1244 2956 1747 
Q 2956 2250 2762 2517 
Q 2569 2784 2203 2784 
z
M 2203 3584 
Q 3106 3584 3614 3096 
Q 4122 2609 4122 1747 
Q 4122 884 3614 396 
Q 3106 -91 2203 -91 
Q 1297 -91 786 396 
Q 275 884 275 1747 
Q 275 2609 786 3096 
Q 1297 3584 2203 3584 
z
" transform="scale(0.015625)"/>
       <path id="DejaVuSans-Bold-20" transform="scale(0.015625)"/>
       <path id="DejaVuSans-Bold-31" d="M 750 831 
L 1813 831 
L 1813 3847 
L 722 3622 
L 722 4441 
L 1806 4666 
L 2950 4666 
L 2950 831 
L 4013 831 
L 4013 0 
L 750 0 
L 750 831 
z
" transform="scale(0.015625)"/>
      </defs>
      <use xlink:href="#DejaVuSans-Bold-44"/>
      <use xlink:href="#DejaVuSans-Bold-69" x="83.007812"/>
      <use xlink:href="#DejaVuSans-Bold-6d" x="117.285156"/>
      <use xlink:href="#DejaVuSans-Bold-65" x="221.484375"/>
      <use xlink:href="#DejaVuSans-Bold-6e" x="289.306641"/>
      <use xlink:href="#DejaVuSans-Bold-73" x="360.498047"/>
      <use xlink:href="#DejaVuSans-Bold-69" x="420.019531"/>
      <use xlink:href="#DejaVuSans-Bold-6f" x="454.296875"/>
      <use xlink:href="#DejaVuSans-Bold-6e" x="522.998047"/>
      <use xlink:href="#DejaVuSans-Bold-20" x="594.189453"/>
      <use xlink:href="#DejaVuSans-Bold-31" x="629.003906"/>
     </g>
    </g>
   </g>
   <g id="matplotlib.axis_2">
    <g id="ytick_1">
     <g id="line2d_15">
      <path d="M 57.280938 662.312498 
L 992.360938 662.312498 
" clip-path="url(#p6db0c35456)" style="fill: none; stroke-dasharray: 2.96,1.28; stroke-dashoffset: 0; stroke: #b0b0b0; stroke-opacity: 0.3; stroke-width: 0.8"/>
     </g>
     <g id="line2d_16">
      <defs>
       <path id="m66c9333878" d="M 0 0 
L -3.5 0 
" style="stroke: #000000; stroke-width: 0.8"/>
      </defs>
      <g>
       <use xlink:href="#m66c9333878" x="57.280938" y="662.312498" style="stroke: #000000; stroke-width: 0.8"/>
      </g>
     </g>
     <g id="text_9">
      <!-- −300 -->
      <g transform="translate(22.81375 666.111717) scale(0.1 -0.1)">
       <use xlink:href="#DejaVuSans-2212"/>
       <use xlink:href="#DejaVuSans-33" x="83.789062"/>
       <use xlink:href="#DejaVuSans-30" x="147.412109"/>
       <use xlink:href="#DejaVuSans-30" x="211.035156"/>
      </g>
     </g>
    </g>
    <g id="ytick_2">
     <g id="line2d_17">
      <path d="M 57.280938 564.386119 
L 992.360938 564.386119 
" clip-path="url(#p6db0c35456)" style="fill: none; stroke-dasharray: 2.96,1.28; stroke-dashoffset: 0; stroke: #b0b0b0; stroke-opacity: 0.3; stroke-width: 0.8"/>
     </g>
     <g id="line2d_18">
      <g>
       <use xlink:href="#m66c9333878" x="57.280938" y="564.386119" style="stroke: #000000; stroke-width: 0.8"/>
      </g>
     </g>
     <g id="text_10">
      <!-- −200 -->
      <g transform="translate(22.81375 568.185337) scale(0.1 -0.1)">
       <use xlink:href="#DejaVuSans-2212"/>
       <use xlink:href="#DejaVuSans-32" x="83.789062"/>
       <use xlink:href="#DejaVuSans-30" x="147.412109"/>
       <use xlink:href="#DejaVuSans-30" x="211.035156"/>
      </g>
     </g>
    </g>
    <g id="ytick_3">
     <g id="line2d_19">
      <path d="M 57.280938 466.459739 
L 992.360938 466.459739 
" clip-path="url(#p6db0c35456)" style="fill: none; stroke-dasharray: 2.96,1.28; stroke-dashoffset: 0; stroke: #b0b0b0; stroke-opacity: 0.3; stroke-width: 0.8"/>
     </g>
     <g id="line2d_20">
      <g>
       <use xlink:href="#m66c9333878" x="57.280938" y="466.459739" style="stroke: #000000; stroke-width: 0.8"/>
      </g>
     </g>
     <g id="text_11">
      <!-- −100 -->
      <g transform="translate(22.81375 470.258958) scale(0.1 -0.1)">
       <use xlink:href="#DejaVuSans-2212"/>
       <use xlink:href="#DejaVuSans-31" x="83.789062"/>
       <use xlink:href="#DejaVuSans-30" x="147.412109"/>
       <use xlink:href="#DejaVuSans-30" x="211.035156"/>
      </g>
     </g>
    </g>
    <g id="ytick_4">
     <g id="line2d_21">
      <path d="M 57.280938 368.533359 
L 992.360938 368.533359 
" clip-path="url(#p6db0c35456)" style="fill: none; stroke-dasharray: 2.96,1.28; stroke-dashoffset: 0; stroke: #b0b0b0; stroke-opacity: 0.3; stroke-width: 0.8"/>
     </g>
     <g id="line2d_22">
      <g>
       <use xlink:href="#m66c9333878" x="57.280938" y="368.533359" style="stroke: #000000; stroke-width: 0.8"/>
      </g>
     </g>
     <g id="text_12">
      <!-- 0 -->
      <g transform="translate(43.918438 372.332578) scale(0.1 -0.1)">
       <use xlink:href="#DejaVuSans-30"/>
      </g>
     </g>
    </g>
    <g id="ytick_5">
     <g id="line2d_23">
      <path d="M 57.280938 270.60698 
L 992.360938 270.60698 
" clip-path="url(#p6db0c35456)" style="fill: none; stroke-dasharray: 2.96,1.28; stroke-dashoffset: 0; stroke: #b0b0b0; stroke-opacity: 0.3; stroke-width: 0.8"/>
     </g>
     <g id="line2d_24">
      <g>
       <use xlink:href="#m66c9333878" x="57.280938" y="270.60698" style="stroke: #000000; stroke-width: 0.8"/>
      </g>
     </g>
     <g id="text_13">
      <!-- 100 -->
      <g transform="translate(31.193438 274.406198) scale(0.1 -0.1)">
       <use xlink:href="#DejaVuSans-31"/>
       <use xlink:href="#DejaVuSans-30" x="63.623047"/>
       <use xlink:href="#DejaVuSans-30" x="127.246094"/>
      </g>
     </g>
    </g>
    <g id="ytick_6">
     <g id="line2d_25">
      <path d="M 57.280938 172.6806 
L 992.360938 172.6806 
" clip-path="url(#p6db0c35456)" style="fill: none; stroke-dasharray: 2.96,1.28; stroke-dashoffset: 0; stroke: #b0b0b0; stroke-opacity: 0.3; stroke-width: 0.8"/>
     </g>
     <g id="line2d_26">
      <g>
       <use xlink:href="#m66c9333878" x="57.280938" y="172.6806" style="stroke: #000000; stroke-width: 0.8"/>
      </g>
     </g>
     <g id="text_14">
      <!-- 200 -->
      <g transform="translate(31.193438 176.479819) scale(0.1 -0.1)">
       <use xlink:href="#DejaVuSans-32"/>
       <use xlink:href="#DejaVuSans-30" x="63.623047"/>
       <use xlink:href="#DejaVuSans-30" x="127.246094"/>
      </g>
     </g>
    </g>
    <g id="ytick_7">
     <g id="line2d_27">
      <path d="M 57.280938 74.75422 
L 992.360938 74.75422 
" clip-path="url(#p6db0c35456)" style="fill: none; stroke-dasharray: 2.96,1.28; stroke-dashoffset: 0; stroke: #b0b0b0; stroke-opacity: 0.3; stroke-width: 0.8"/>
     </g>
     <g id="line2d_28">
      <g>
       <use xlink:href="#m66c9333878" x="57.280938" y="74.75422" style="stroke: #000000; stroke-width: 0.8"/>
      </g>
     </g>
     <g id="text_15">
      <!-- 300 -->
      <g transform="translate(31.193438 78.553439) scale(0.1 -0.1)">
       <use xlink:href="#DejaVuSans-33"/>
       <use xlink:href="#DejaVuSans-30" x="63.623047"/>
       <use xlink:href="#DejaVuSans-30" x="127.246094"/>
      </g>
     </g>
    </g>
    <g id="text_16">
     <!-- Dimension 2 -->
     <g transform="translate(16.318125 404.47325) rotate(-90) scale(0.12 -0.12)">
      <defs>
       <path id="DejaVuSans-Bold-32" d="M 1844 884 
L 3897 884 
L 3897 0 
L 506 0 
L 506 884 
L 2209 2388 
Q 2438 2594 2547 2791 
Q 2656 2988 2656 3200 
Q 2656 3528 2436 3728 
Q 2216 3928 1850 3928 
Q 1569 3928 1234 3808 
Q 900 3688 519 3450 
L 519 4475 
Q 925 4609 1322 4679 
Q 1719 4750 2100 4750 
Q 2938 4750 3402 4381 
Q 3866 4013 3866 3353 
Q 3866 2972 3669 2642 
Q 3472 2313 2841 1759 
L 1844 884 
z
" transform="scale(0.015625)"/>
      </defs>
      <use xlink:href="#DejaVuSans-Bold-44"/>
      <use xlink:href="#DejaVuSans-Bold-69" x="83.007812"/>
      <use xlink:href="#DejaVuSans-Bold-6d" x="117.285156"/>
      <use xlink:href="#DejaVuSans-Bold-65" x="221.484375"/>
      <use xlink:href="#DejaVuSans-Bold-6e" x="289.306641"/>
      <use xlink:href="#DejaVuSans-Bold-73" x="360.498047"/>
      <use xlink:href="#DejaVuSans-Bold-69" x="420.019531"/>
      <use xlink:href="#DejaVuSans-Bold-6f" x="454.296875"/>
      <use xlink:href="#DejaVuSans-Bold-6e" x="522.998047"/>
      <use xlink:href="#DejaVuSans-Bold-20" x="594.189453"/>
      <use xlink:href="#DejaVuSans-Bold-32" x="629.003906"/>
     </g>
    </g>
   </g>
   <g id="patch_15">
    <path d="M 57.280938 671.417625 
L 57.280938 53.697625 
" style="fill: none; stroke: #000000; stroke-width: 0.8; stroke-linejoin: miter; stroke-linecap: square"/>
   </g>
   <g id="patch_16">
    <path d="M 992.360938 671.417625 
L 992.360938 53.697625 
" style="fill: none; stroke: #000000; stroke-width: 0.8; stroke-linejoin: miter; stroke-linecap: square"/>
   </g>
   <g id="patch_17">
    <path d="M 57.280938 671.417625 
L 992.360938 671.417625 
" style="fill: none; stroke: #000000; stroke-width: 0.8; stroke-linejoin: miter; stroke-linecap: square"/>
   </g>
   <g id="patch_18">
    <path d="M 57.280938 53.697625 
L 992.360938 53.697625 
" style="fill: none; stroke: #000000; stroke-width: 0.8; stroke-linejoin: miter; stroke-linecap: square"/>
   </g>
   <g id="text_17">
    <g id="patch_19">
     <path d="M 943.801866 231.3594 
L 962.807335 231.3594 
Q 965.507335 231.3594 965.507335 228.6594 
L 965.507335 219.949087 
Q 965.507335 217.249087 962.807335 217.249087 
L 943.801866 217.249087 
Q 941.101866 217.249087 941.101866 219.949087 
L 941.101866 228.6594 
Q 941.101866 231.3594 943.801866 231.3594 
z
" style="fill: #ffffff; opacity: 0.8; stroke: #808080; stroke-width: 0.5; stroke-linejoin: miter"/>
    </g>
    <!-- S13 -->
    <g transform="translate(943.801866 226.787681) scale(0.09 -0.09)">
     <defs>
      <path id="DejaVuSans-Bold-53" d="M 3834 4519 
L 3834 3531 
Q 3450 3703 3084 3790 
Q 2719 3878 2394 3878 
Q 1963 3878 1756 3759 
Q 1550 3641 1550 3391 
Q 1550 3203 1689 3098 
Q 1828 2994 2194 2919 
L 2706 2816 
Q 3484 2659 3812 2340 
Q 4141 2022 4141 1434 
Q 4141 663 3683 286 
Q 3225 -91 2284 -91 
Q 1841 -91 1394 -6 
Q 947 78 500 244 
L 500 1259 
Q 947 1022 1364 901 
Q 1781 781 2169 781 
Q 2563 781 2772 912 
Q 2981 1044 2981 1288 
Q 2981 1506 2839 1625 
Q 2697 1744 2272 1838 
L 1806 1941 
Q 1106 2091 782 2419 
Q 459 2747 459 3303 
Q 459 4000 909 4375 
Q 1359 4750 2203 4750 
Q 2588 4750 2994 4692 
Q 3400 4634 3834 4519 
z
" transform="scale(0.015625)"/>
      <path id="DejaVuSans-Bold-33" d="M 2981 2516 
Q 3453 2394 3698 2092 
Q 3944 1791 3944 1325 
Q 3944 631 3412 270 
Q 2881 -91 1863 -91 
Q 1503 -91 1142 -33 
Q 781 25 428 141 
L 428 1069 
Q 766 900 1098 814 
Q 1431 728 1753 728 
Q 2231 728 2486 893 
Q 2741 1059 2741 1369 
Q 2741 1688 2480 1852 
Q 2219 2016 1709 2016 
L 1228 2016 
L 1228 2791 
L 1734 2791 
Q 2188 2791 2409 2933 
Q 2631 3075 2631 3366 
Q 2631 3634 2415 3781 
Q 2200 3928 1806 3928 
Q 1516 3928 1219 3862 
Q 922 3797 628 3669 
L 628 4550 
Q 984 4650 1334 4700 
Q 1684 4750 2022 4750 
Q 2931 4750 3382 4451 
Q 3834 4153 3834 3553 
Q 3834 3144 3618 2883 
Q 3403 2622 2981 2516 
z
" transform="scale(0.015625)"/>
     </defs>
     <use xlink:href="#DejaVuSans-Bold-53"/>
     <use xlink:href="#DejaVuSans-Bold-31" x="72.021484"/>
     <use xlink:href="#DejaVuSans-Bold-33" x="141.601562"/>
    </g>
   </g>
   <g id="text_18">
    <g id="patch_20">
     <path d="M 410.46775 260.267966 
L 423.211188 260.267966 
Q 425.911188 260.267966 425.911188 257.567966 
L 425.911188 248.857654 
Q 425.911188 246.157654 423.211188 246.157654 
L 410.46775 246.157654 
Q 407.76775 246.157654 407.76775 248.857654 
L 407.76775 257.567966 
Q 407.76775 260.267966 410.46775 260.267966 
z
" style="fill: #ffffff; opacity: 0.8; stroke: #808080; stroke-width: 0.5; stroke-linejoin: miter"/>
    </g>
    <!-- S6 -->
    <g transform="translate(410.46775 255.696247) scale(0.09 -0.09)">
     <defs>
      <path id="DejaVuSans-Bold-36" d="M 2316 2303 
Q 2000 2303 1842 2098 
Q 1684 1894 1684 1484 
Q 1684 1075 1842 870 
Q 2000 666 2316 666 
Q 2634 666 2792 870 
Q 2950 1075 2950 1484 
Q 2950 1894 2792 2098 
Q 2634 2303 2316 2303 
z
M 3803 4544 
L 3803 3681 
Q 3506 3822 3243 3889 
Q 2981 3956 2731 3956 
Q 2194 3956 1894 3657 
Q 1594 3359 1544 2772 
Q 1750 2925 1990 3001 
Q 2231 3078 2516 3078 
Q 3231 3078 3670 2659 
Q 4109 2241 4109 1563 
Q 4109 813 3618 361 
Q 3128 -91 2303 -91 
Q 1394 -91 895 523 
Q 397 1138 397 2266 
Q 397 3422 980 4083 
Q 1563 4744 2578 4744 
Q 2900 4744 3203 4694 
Q 3506 4644 3803 4544 
z
" transform="scale(0.015625)"/>
     </defs>
     <use xlink:href="#DejaVuSans-Bold-53"/>
     <use xlink:href="#DejaVuSans-Bold-36" x="72.021484"/>
    </g>
   </g>
   <g id="text_19">
    <g id="patch_21">
     <path d="M 674.483427 303.945456 
L 687.226865 303.945456 
Q 689.926865 303.945456 689.926865 301.245456 
L 689.926865 292.535143 
Q 689.926865 289.835143 687.226865 289.835143 
L 674.483427 289.835143 
Q 671.783427 289.835143 671.783427 292.535143 
L 671.783427 301.245456 
Q 671.783427 303.945456 674.483427 303.945456 
z
" style="fill: #ffffff; opacity: 0.8; stroke: #808080; stroke-width: 0.5; stroke-linejoin: miter"/>
    </g>
    <!-- S1 -->
    <g transform="translate(674.483427 299.373737) scale(0.09 -0.09)">
     <use xlink:href="#DejaVuSans-Bold-53"/>
     <use xlink:href="#DejaVuSans-Bold-31" x="72.021484"/>
    </g>
   </g>
   <g id="text_20">
    <g id="patch_22">
     <path d="M 533.670034 455.180736 
L 546.413472 455.180736 
Q 549.113472 455.180736 549.113472 452.480736 
L 549.113472 443.770423 
Q 549.113472 441.070423 546.413472 441.070423 
L 533.670034 441.070423 
Q 530.970034 441.070423 530.970034 443.770423 
L 530.970034 452.480736 
Q 530.970034 455.180736 533.670034 455.180736 
z
" style="fill: #ffffff; opacity: 0.8; stroke: #808080; stroke-width: 0.5; stroke-linejoin: miter"/>
    </g>
    <!-- S2 -->
    <g transform="translate(533.670034 450.609017) scale(0.09 -0.09)">
     <use xlink:href="#DejaVuSans-Bold-53"/>
     <use xlink:href="#DejaVuSans-Bold-32" x="72.021484"/>
    </g>
   </g>
   <g id="text_21">
    <g id="patch_23">
     <path d="M 662.134512 103.277245 
L 674.877949 103.277245 
Q 677.577949 103.277245 677.577949 100.577245 
L 677.577949 91.866933 
Q 677.577949 89.166933 674.877949 89.166933 
L 662.134512 89.166933 
Q 659.434512 89.166933 659.434512 91.866933 
L 659.434512 100.577245 
Q 659.434512 103.277245 662.134512 103.277245 
z
" style="fill: #ffffff; opacity: 0.8; stroke: #808080; stroke-width: 0.5; stroke-linejoin: miter"/>
    </g>
    <!-- S9 -->
    <g transform="translate(662.134512 98.705526) scale(0.09 -0.09)">
     <defs>
      <path id="DejaVuSans-Bold-39" d="M 641 103 
L 641 966 
Q 928 831 1190 764 
Q 1453 697 1709 697 
Q 2247 697 2547 995 
Q 2847 1294 2900 1881 
Q 2688 1725 2447 1647 
Q 2206 1569 1925 1569 
Q 1209 1569 770 1986 
Q 331 2403 331 3084 
Q 331 3838 820 4291 
Q 1309 4744 2131 4744 
Q 3044 4744 3544 4128 
Q 4044 3513 4044 2388 
Q 4044 1231 3459 570 
Q 2875 -91 1856 -91 
Q 1528 -91 1228 -42 
Q 928 6 641 103 
z
M 2125 2350 
Q 2441 2350 2600 2554 
Q 2759 2759 2759 3169 
Q 2759 3575 2600 3781 
Q 2441 3988 2125 3988 
Q 1809 3988 1650 3781 
Q 1491 3575 1491 3169 
Q 1491 2759 1650 2554 
Q 1809 2350 2125 2350 
z
" transform="scale(0.015625)"/>
     </defs>
     <use xlink:href="#DejaVuSans-Bold-53"/>
     <use xlink:href="#DejaVuSans-Bold-39" x="72.021484"/>
    </g>
   </g>
   <g id="text_22">
    <g id="patch_24">
     <path d="M 693.719775 618.308164 
L 712.725244 618.308164 
Q 715.425244 618.308164 715.425244 615.608164 
L 715.425244 606.897852 
Q 715.425244 604.197852 712.725244 604.197852 
L 693.719775 604.197852 
Q 691.019775 604.197852 691.019775 606.897852 
L 691.019775 615.608164 
Q 691.019775 618.308164 693.719775 618.308164 
z
" style="fill: #ffffff; opacity: 0.8; stroke: #808080; stroke-width: 0.5; stroke-linejoin: miter"/>
    </g>
    <!-- S10 -->
    <g transform="translate(693.719775 613.736446) scale(0.09 -0.09)">
     <defs>
      <path id="DejaVuSans-Bold-30" d="M 2944 2338 
Q 2944 3213 2780 3570 
Q 2616 3928 2228 3928 
Q 1841 3928 1675 3570 
Q 1509 3213 1509 2338 
Q 1509 1453 1675 1090 
Q 1841 728 2228 728 
Q 2613 728 2778 1090 
Q 2944 1453 2944 2338 
z
M 4147 2328 
Q 4147 1169 3647 539 
Q 3147 -91 2228 -91 
Q 1306 -91 806 539 
Q 306 1169 306 2328 
Q 306 3491 806 4120 
Q 1306 4750 2228 4750 
Q 3147 4750 3647 4120 
Q 4147 3491 4147 2328 
z
" transform="scale(0.015625)"/>
     </defs>
     <use xlink:href="#DejaVuSans-Bold-53"/>
     <use xlink:href="#DejaVuSans-Bold-31" x="72.021484"/>
     <use xlink:href="#DejaVuSans-Bold-30" x="141.601562"/>
    </g>
   </g>
   <g id="text_23">
    <g id="patch_25">
     <path d="M 222.000609 434.25405 
L 261.107016 434.25405 
Q 263.807016 434.25405 263.807016 431.55405 
L 263.807016 422.843738 
Q 263.807016 420.143738 261.107016 420.143738 
L 222.000609 420.143738 
Q 219.300609 420.143738 219.300609 422.843738 
L 219.300609 431.55405 
Q 219.300609 434.25405 222.000609 434.25405 
z
" style="fill: #ffffff; opacity: 0.8; stroke: #808080; stroke-width: 0.5; stroke-linejoin: miter"/>
    </g>
    <!-- Q8 (BK) -->
    <g transform="translate(222.000609 429.682331) scale(0.09 -0.09)">
     <defs>
      <path id="DejaVuSans-Bold-51" d="M 2847 -84 
L 2753 -84 
Q 1600 -84 959 553 
Q 319 1191 319 2328 
Q 319 3463 958 4106 
Q 1597 4750 2719 4750 
Q 3853 4750 4486 4112 
Q 5119 3475 5119 2328 
Q 5119 1541 4783 972 
Q 4447 403 3816 116 
L 4756 -934 
L 3609 -934 
L 2847 -84 
z
M 2719 3878 
Q 2169 3878 1866 3472 
Q 1563 3066 1563 2328 
Q 1563 1578 1859 1179 
Q 2156 781 2719 781 
Q 3272 781 3575 1187 
Q 3878 1594 3878 2328 
Q 3878 3066 3575 3472 
Q 3272 3878 2719 3878 
z
" transform="scale(0.015625)"/>
      <path id="DejaVuSans-Bold-38" d="M 2228 2088 
Q 1891 2088 1709 1903 
Q 1528 1719 1528 1375 
Q 1528 1031 1709 848 
Q 1891 666 2228 666 
Q 2563 666 2741 848 
Q 2919 1031 2919 1375 
Q 2919 1722 2741 1905 
Q 2563 2088 2228 2088 
z
M 1350 2484 
Q 925 2613 709 2878 
Q 494 3144 494 3541 
Q 494 4131 934 4440 
Q 1375 4750 2228 4750 
Q 3075 4750 3515 4442 
Q 3956 4134 3956 3541 
Q 3956 3144 3739 2878 
Q 3522 2613 3097 2484 
Q 3572 2353 3814 2058 
Q 4056 1763 4056 1313 
Q 4056 619 3595 264 
Q 3134 -91 2228 -91 
Q 1319 -91 855 264 
Q 391 619 391 1313 
Q 391 1763 633 2058 
Q 875 2353 1350 2484 
z
M 1631 3419 
Q 1631 3141 1786 2991 
Q 1941 2841 2228 2841 
Q 2509 2841 2662 2991 
Q 2816 3141 2816 3419 
Q 2816 3697 2662 3845 
Q 2509 3994 2228 3994 
Q 1941 3994 1786 3844 
Q 1631 3694 1631 3419 
z
" transform="scale(0.015625)"/>
      <path id="DejaVuSans-Bold-28" d="M 2413 -844 
L 1484 -844 
Q 1006 -72 778 623 
Q 550 1319 550 2003 
Q 550 2688 779 3389 
Q 1009 4091 1484 4856 
L 2413 4856 
Q 2013 4116 1813 3408 
Q 1613 2700 1613 2009 
Q 1613 1319 1811 609 
Q 2009 -100 2413 -844 
z
" transform="scale(0.015625)"/>
      <path id="DejaVuSans-Bold-42" d="M 2456 2859 
Q 2741 2859 2887 2984 
Q 3034 3109 3034 3353 
Q 3034 3594 2887 3720 
Q 2741 3847 2456 3847 
L 1791 3847 
L 1791 2859 
L 2456 2859 
z
M 2497 819 
Q 2859 819 3042 972 
Q 3225 1125 3225 1434 
Q 3225 1738 3044 1889 
Q 2863 2041 2497 2041 
L 1791 2041 
L 1791 819 
L 2497 819 
z
M 3616 2497 
Q 4003 2384 4215 2081 
Q 4428 1778 4428 1338 
Q 4428 663 3972 331 
Q 3516 0 2584 0 
L 588 0 
L 588 4666 
L 2394 4666 
Q 3366 4666 3802 4372 
Q 4238 4078 4238 3431 
Q 4238 3091 4078 2852 
Q 3919 2613 3616 2497 
z
" transform="scale(0.015625)"/>
      <path id="DejaVuSans-Bold-4b" d="M 588 4666 
L 1791 4666 
L 1791 2963 
L 3525 4666 
L 4922 4666 
L 2675 2456 
L 5153 0 
L 3647 0 
L 1791 1838 
L 1791 0 
L 588 0 
L 588 4666 
z
" transform="scale(0.015625)"/>
      <path id="DejaVuSans-Bold-29" d="M 513 -844 
Q 913 -100 1113 609 
Q 1313 1319 1313 2009 
Q 1313 2700 1113 3408 
Q 913 4116 513 4856 
L 1441 4856 
Q 1916 4091 2145 3389 
Q 2375 2688 2375 2003 
Q 2375 1319 2147 623 
Q 1919 -72 1441 -844 
L 513 -844 
z
" transform="scale(0.015625)"/>
     </defs>
     <use xlink:href="#DejaVuSans-Bold-51"/>
     <use xlink:href="#DejaVuSans-Bold-38" x="85.009766"/>
     <use xlink:href="#DejaVuSans-Bold-20" x="154.589844"/>
     <use xlink:href="#DejaVuSans-Bold-28" x="189.404297"/>
     <use xlink:href="#DejaVuSans-Bold-42" x="235.107422"/>
     <use xlink:href="#DejaVuSans-Bold-4b" x="311.328125"/>
     <use xlink:href="#DejaVuSans-Bold-29" x="388.818359"/>
    </g>
   </g>
   <g id="text_24">
    <g id="patch_26">
     <path d="M 879.758434 451.20788 
L 925.126871 451.20788 
Q 927.826871 451.20788 927.826871 448.50788 
L 927.826871 439.797568 
Q 927.826871 437.097568 925.126871 437.097568 
L 879.758434 437.097568 
Q 877.058434 437.097568 877.058434 439.797568 
L 877.058434 448.50788 
Q 877.058434 451.20788 879.758434 451.20788 
z
" style="fill: #ffffff; opacity: 0.8; stroke: #808080; stroke-width: 0.5; stroke-linejoin: miter"/>
    </g>
    <!-- Q11 (BK) -->
    <g transform="translate(879.758434 446.636161) scale(0.09 -0.09)">
     <use xlink:href="#DejaVuSans-Bold-51"/>
     <use xlink:href="#DejaVuSans-Bold-31" x="85.009766"/>
     <use xlink:href="#DejaVuSans-Bold-31" x="154.589844"/>
     <use xlink:href="#DejaVuSans-Bold-20" x="224.169922"/>
     <use xlink:href="#DejaVuSans-Bold-28" x="258.984375"/>
     <use xlink:href="#DejaVuSans-Bold-42" x="304.6875"/>
     <use xlink:href="#DejaVuSans-Bold-4b" x="380.908203"/>
     <use xlink:href="#DejaVuSans-Bold-29" x="458.398438"/>
    </g>
   </g>
   <g id="text_25">
    <g id="patch_27">
     <path d="M 186.694412 416.603029 
L 225.800818 416.603029 
Q 228.500818 416.603029 228.500818 413.903029 
L 228.500818 405.192717 
Q 228.500818 402.492717 225.800818 402.492717 
L 186.694412 402.492717 
Q 183.994412 402.492717 183.994412 405.192717 
L 183.994412 413.903029 
Q 183.994412 416.603029 186.694412 416.603029 
z
" style="fill: #ffffff; opacity: 0.8; stroke: #808080; stroke-width: 0.5; stroke-linejoin: miter"/>
    </g>
    <!-- Q4 (BK) -->
    <g transform="translate(186.694412 412.031311) scale(0.09 -0.09)">
     <defs>
      <path id="DejaVuSans-Bold-34" d="M 2356 3675 
L 1038 1722 
L 2356 1722 
L 2356 3675 
z
M 2156 4666 
L 3494 4666 
L 3494 1722 
L 4159 1722 
L 4159 850 
L 3494 850 
L 3494 0 
L 2356 0 
L 2356 850 
L 288 850 
L 288 1881 
L 2156 4666 
z
" transform="scale(0.015625)"/>
     </defs>
     <use xlink:href="#DejaVuSans-Bold-51"/>
     <use xlink:href="#DejaVuSans-Bold-34" x="85.009766"/>
     <use xlink:href="#DejaVuSans-Bold-20" x="154.589844"/>
     <use xlink:href="#DejaVuSans-Bold-28" x="189.404297"/>
     <use xlink:href="#DejaVuSans-Bold-42" x="235.107422"/>
     <use xlink:href="#DejaVuSans-Bold-4b" x="311.328125"/>
     <use xlink:href="#DejaVuSans-Bold-29" x="388.818359"/>
    </g>
   </g>
   <g id="text_26">
    <g id="patch_28">
     <path d="M 356.209275 632.272202 
L 394.604118 632.272202 
Q 397.304118 632.272202 397.304118 629.572202 
L 397.304118 620.861889 
Q 397.304118 618.161889 394.604118 618.161889 
L 356.209275 618.161889 
Q 353.509275 618.161889 353.509275 620.861889 
L 353.509275 629.572202 
Q 353.509275 632.272202 356.209275 632.272202 
z
" style="fill: #ffffff; opacity: 0.8; stroke: #808080; stroke-width: 0.5; stroke-linejoin: miter"/>
    </g>
    <!-- Q7 (FK) -->
    <g transform="translate(356.209275 627.700483) scale(0.09 -0.09)">
     <defs>
      <path id="DejaVuSans-Bold-37" d="M 428 4666 
L 3944 4666 
L 3944 3988 
L 2125 0 
L 953 0 
L 2675 3781 
L 428 3781 
L 428 4666 
z
" transform="scale(0.015625)"/>
      <path id="DejaVuSans-Bold-46" d="M 588 4666 
L 3834 4666 
L 3834 3756 
L 1791 3756 
L 1791 2888 
L 3713 2888 
L 3713 1978 
L 1791 1978 
L 1791 0 
L 588 0 
L 588 4666 
z
" transform="scale(0.015625)"/>
     </defs>
     <use xlink:href="#DejaVuSans-Bold-51"/>
     <use xlink:href="#DejaVuSans-Bold-37" x="85.009766"/>
     <use xlink:href="#DejaVuSans-Bold-20" x="154.589844"/>
     <use xlink:href="#DejaVuSans-Bold-28" x="189.404297"/>
     <use xlink:href="#DejaVuSans-Bold-46" x="235.107422"/>
     <use xlink:href="#DejaVuSans-Bold-4b" x="303.417969"/>
     <use xlink:href="#DejaVuSans-Bold-29" x="380.908203"/>
    </g>
   </g>
   <g id="text_27">
    <g id="patch_29">
     <path d="M 345.352382 70.708565 
L 383.747225 70.708565 
Q 386.447225 70.708565 386.447225 68.008565 
L 386.447225 59.298253 
Q 386.447225 56.598253 383.747225 56.598253 
L 345.352382 56.598253 
Q 342.652382 56.598253 342.652382 59.298253 
L 342.652382 68.008565 
Q 342.652382 70.708565 345.352382 70.708565 
z
" style="fill: #ffffff; opacity: 0.8; stroke: #808080; stroke-width: 0.5; stroke-linejoin: miter"/>
    </g>
    <!-- Q3 (FK) -->
    <g transform="translate(345.352382 66.136847) scale(0.09 -0.09)">
     <use xlink:href="#DejaVuSans-Bold-51"/>
     <use xlink:href="#DejaVuSans-Bold-33" x="85.009766"/>
     <use xlink:href="#DejaVuSans-Bold-20" x="154.589844"/>
     <use xlink:href="#DejaVuSans-Bold-28" x="189.404297"/>
     <use xlink:href="#DejaVuSans-Bold-46" x="235.107422"/>
     <use xlink:href="#DejaVuSans-Bold-4b" x="303.417969"/>
     <use xlink:href="#DejaVuSans-Bold-29" x="380.908203"/>
    </g>
   </g>
   <g id="text_28">
    <g id="patch_30">
     <path d="M 89.521685 216.851204 
L 134.17856 216.851204 
Q 136.87856 216.851204 136.87856 214.151204 
L 136.87856 205.440892 
Q 136.87856 202.740892 134.17856 202.740892 
L 89.521685 202.740892 
Q 86.821685 202.740892 86.821685 205.440892 
L 86.821685 214.151204 
Q 86.821685 216.851204 89.521685 216.851204 
z
" style="fill: #ffffff; opacity: 0.8; stroke: #808080; stroke-width: 0.5; stroke-linejoin: miter"/>
    </g>
    <!-- Q12 (FK) -->
    <g transform="translate(89.521685 212.279485) scale(0.09 -0.09)">
     <use xlink:href="#DejaVuSans-Bold-51"/>
     <use xlink:href="#DejaVuSans-Bold-31" x="85.009766"/>
     <use xlink:href="#DejaVuSans-Bold-32" x="154.589844"/>
     <use xlink:href="#DejaVuSans-Bold-20" x="224.169922"/>
     <use xlink:href="#DejaVuSans-Bold-28" x="258.984375"/>
     <use xlink:href="#DejaVuSans-Bold-46" x="304.6875"/>
     <use xlink:href="#DejaVuSans-Bold-4b" x="372.998047"/>
     <use xlink:href="#DejaVuSans-Bold-29" x="450.488281"/>
    </g>
   </g>
   <g id="text_29">
    <g id="patch_31">
     <path d="M 75.982538 661.763225 
L 324.196913 661.763225 
Q 326.896912 661.763225 326.896912 659.063225 
L 326.896912 640.274881 
Q 326.896912 637.574881 324.196913 637.574881 
L 75.982538 637.574881 
Q 73.282538 637.574881 73.282538 640.274881 
L 73.282538 659.063225 
Q 73.282538 661.763225 75.982538 661.763225 
z
" style="fill: #f5deb3; opacity: 0.7; stroke: #000000; stroke-linejoin: miter"/>
    </g>
    <!-- Labels: S=Support, Q=Query (sample ID from test.csv) -->
    <g transform="translate(75.982538 647.113475) scale(0.09 -0.09)">
     <defs>
      <path id="DejaVuSans-4c" d="M 628 4666 
L 1259 4666 
L 1259 531 
L 3531 531 
L 3531 0 
L 628 0 
L 628 4666 
z
" transform="scale(0.015625)"/>
      <path id="DejaVuSans-61" d="M 2194 1759 
Q 1497 1759 1228 1600 
Q 959 1441 959 1056 
Q 959 750 1161 570 
Q 1363 391 1709 391 
Q 2188 391 2477 730 
Q 2766 1069 2766 1631 
L 2766 1759 
L 2194 1759 
z
M 3341 1997 
L 3341 0 
L 2766 0 
L 2766 531 
Q 2569 213 2275 61 
Q 1981 -91 1556 -91 
Q 1019 -91 701 211 
Q 384 513 384 1019 
Q 384 1609 779 1909 
Q 1175 2209 1959 2209 
L 2766 2209 
L 2766 2266 
Q 2766 2663 2505 2880 
Q 2244 3097 1772 3097 
Q 1472 3097 1187 3025 
Q 903 2953 641 2809 
L 641 3341 
Q 956 3463 1253 3523 
Q 1550 3584 1831 3584 
Q 2591 3584 2966 3190 
Q 3341 2797 3341 1997 
z
" transform="scale(0.015625)"/>
      <path id="DejaVuSans-62" d="M 3116 1747 
Q 3116 2381 2855 2742 
Q 2594 3103 2138 3103 
Q 1681 3103 1420 2742 
Q 1159 2381 1159 1747 
Q 1159 1113 1420 752 
Q 1681 391 2138 391 
Q 2594 391 2855 752 
Q 3116 1113 3116 1747 
z
M 1159 2969 
Q 1341 3281 1617 3432 
Q 1894 3584 2278 3584 
Q 2916 3584 3314 3078 
Q 3713 2572 3713 1747 
Q 3713 922 3314 415 
Q 2916 -91 2278 -91 
Q 1894 -91 1617 61 
Q 1341 213 1159 525 
L 1159 0 
L 581 0 
L 581 4863 
L 1159 4863 
L 1159 2969 
z
" transform="scale(0.015625)"/>
      <path id="DejaVuSans-65" d="M 3597 1894 
L 3597 1613 
L 953 1613 
Q 991 1019 1311 708 
Q 1631 397 2203 397 
Q 2534 397 2845 478 
Q 3156 559 3463 722 
L 3463 178 
Q 3153 47 2828 -22 
Q 2503 -91 2169 -91 
Q 1331 -91 842 396 
Q 353 884 353 1716 
Q 353 2575 817 3079 
Q 1281 3584 2069 3584 
Q 2775 3584 3186 3129 
Q 3597 2675 3597 1894 
z
M 3022 2063 
Q 3016 2534 2758 2815 
Q 2500 3097 2075 3097 
Q 1594 3097 1305 2825 
Q 1016 2553 972 2059 
L 3022 2063 
z
" transform="scale(0.015625)"/>
      <path id="DejaVuSans-6c" d="M 603 4863 
L 1178 4863 
L 1178 0 
L 603 0 
L 603 4863 
z
" transform="scale(0.015625)"/>
      <path id="DejaVuSans-73" d="M 2834 3397 
L 2834 2853 
Q 2591 2978 2328 3040 
Q 2066 3103 1784 3103 
Q 1356 3103 1142 2972 
Q 928 2841 928 2578 
Q 928 2378 1081 2264 
Q 1234 2150 1697 2047 
L 1894 2003 
Q 2506 1872 2764 1633 
Q 3022 1394 3022 966 
Q 3022 478 2636 193 
Q 2250 -91 1575 -91 
Q 1294 -91 989 -36 
Q 684 19 347 128 
L 347 722 
Q 666 556 975 473 
Q 1284 391 1588 391 
Q 1994 391 2212 530 
Q 2431 669 2431 922 
Q 2431 1156 2273 1281 
Q 2116 1406 1581 1522 
L 1381 1569 
Q 847 1681 609 1914 
Q 372 2147 372 2553 
Q 372 3047 722 3315 
Q 1072 3584 1716 3584 
Q 2034 3584 2315 3537 
Q 2597 3491 2834 3397 
z
" transform="scale(0.015625)"/>
      <path id="DejaVuSans-3a" d="M 750 794 
L 1409 794 
L 1409 0 
L 750 0 
L 750 794 
z
M 750 3309 
L 1409 3309 
L 1409 2516 
L 750 2516 
L 750 3309 
z
" transform="scale(0.015625)"/>
      <path id="DejaVuSans-20" transform="scale(0.015625)"/>
      <path id="DejaVuSans-53" d="M 3425 4513 
L 3425 3897 
Q 3066 4069 2747 4153 
Q 2428 4238 2131 4238 
Q 1616 4238 1336 4038 
Q 1056 3838 1056 3469 
Q 1056 3159 1242 3001 
Q 1428 2844 1947 2747 
L 2328 2669 
Q 3034 2534 3370 2195 
Q 3706 1856 3706 1288 
Q 3706 609 3251 259 
Q 2797 -91 1919 -91 
Q 1588 -91 1214 -16 
Q 841 59 441 206 
L 441 856 
Q 825 641 1194 531 
Q 1563 422 1919 422 
Q 2459 422 2753 634 
Q 3047 847 3047 1241 
Q 3047 1584 2836 1778 
Q 2625 1972 2144 2069 
L 1759 2144 
Q 1053 2284 737 2584 
Q 422 2884 422 3419 
Q 422 4038 858 4394 
Q 1294 4750 2059 4750 
Q 2388 4750 2728 4690 
Q 3069 4631 3425 4513 
z
" transform="scale(0.015625)"/>
      <path id="DejaVuSans-3d" d="M 678 2906 
L 4684 2906 
L 4684 2381 
L 678 2381 
L 678 2906 
z
M 678 1631 
L 4684 1631 
L 4684 1100 
L 678 1100 
L 678 1631 
z
" transform="scale(0.015625)"/>
      <path id="DejaVuSans-75" d="M 544 1381 
L 544 3500 
L 1119 3500 
L 1119 1403 
Q 1119 906 1312 657 
Q 1506 409 1894 409 
Q 2359 409 2629 706 
Q 2900 1003 2900 1516 
L 2900 3500 
L 3475 3500 
L 3475 0 
L 2900 0 
L 2900 538 
Q 2691 219 2414 64 
Q 2138 -91 1772 -91 
Q 1169 -91 856 284 
Q 544 659 544 1381 
z
M 1991 3584 
L 1991 3584 
z
" transform="scale(0.015625)"/>
      <path id="DejaVuSans-70" d="M 1159 525 
L 1159 -1331 
L 581 -1331 
L 581 3500 
L 1159 3500 
L 1159 2969 
Q 1341 3281 1617 3432 
Q 1894 3584 2278 3584 
Q 2916 3584 3314 3078 
Q 3713 2572 3713 1747 
Q 3713 922 3314 415 
Q 2916 -91 2278 -91 
Q 1894 -91 1617 61 
Q 1341 213 1159 525 
z
M 3116 1747 
Q 3116 2381 2855 2742 
Q 2594 3103 2138 3103 
Q 1681 3103 1420 2742 
Q 1159 2381 1159 1747 
Q 1159 1113 1420 752 
Q 1681 391 2138 391 
Q 2594 391 2855 752 
Q 3116 1113 3116 1747 
z
" transform="scale(0.015625)"/>
      <path id="DejaVuSans-6f" d="M 1959 3097 
Q 1497 3097 1228 2736 
Q 959 2375 959 1747 
Q 959 1119 1226 758 
Q 1494 397 1959 397 
Q 2419 397 2687 759 
Q 2956 1122 2956 1747 
Q 2956 2369 2687 2733 
Q 2419 3097 1959 3097 
z
M 1959 3584 
Q 2709 3584 3137 3096 
Q 3566 2609 3566 1747 
Q 3566 888 3137 398 
Q 2709 -91 1959 -91 
Q 1206 -91 779 398 
Q 353 888 353 1747 
Q 353 2609 779 3096 
Q 1206 3584 1959 3584 
z
" transform="scale(0.015625)"/>
      <path id="DejaVuSans-72" d="M 2631 2963 
Q 2534 3019 2420 3045 
Q 2306 3072 2169 3072 
Q 1681 3072 1420 2755 
Q 1159 2438 1159 1844 
L 1159 0 
L 581 0 
L 581 3500 
L 1159 3500 
L 1159 2956 
Q 1341 3275 1631 3429 
Q 1922 3584 2338 3584 
Q 2397 3584 2469 3576 
Q 2541 3569 2628 3553 
L 2631 2963 
z
" transform="scale(0.015625)"/>
      <path id="DejaVuSans-74" d="M 1172 4494 
L 1172 3500 
L 2356 3500 
L 2356 3053 
L 1172 3053 
L 1172 1153 
Q 1172 725 1289 603 
Q 1406 481 1766 481 
L 2356 481 
L 2356 0 
L 1766 0 
Q 1100 0 847 248 
Q 594 497 594 1153 
L 594 3053 
L 172 3053 
L 172 3500 
L 594 3500 
L 594 4494 
L 1172 4494 
z
" transform="scale(0.015625)"/>
      <path id="DejaVuSans-2c" d="M 750 794 
L 1409 794 
L 1409 256 
L 897 -744 
L 494 -744 
L 750 256 
L 750 794 
z
" transform="scale(0.015625)"/>
      <path id="DejaVuSans-51" d="M 2522 4238 
Q 1834 4238 1429 3725 
Q 1025 3213 1025 2328 
Q 1025 1447 1429 934 
Q 1834 422 2522 422 
Q 3209 422 3611 934 
Q 4013 1447 4013 2328 
Q 4013 3213 3611 3725 
Q 3209 4238 2522 4238 
z
M 3406 84 
L 4238 -825 
L 3475 -825 
L 2784 -78 
Q 2681 -84 2626 -87 
Q 2572 -91 2522 -91 
Q 1538 -91 948 567 
Q 359 1225 359 2328 
Q 359 3434 948 4092 
Q 1538 4750 2522 4750 
Q 3503 4750 4090 4092 
Q 4678 3434 4678 2328 
Q 4678 1516 4351 937 
Q 4025 359 3406 84 
z
" transform="scale(0.015625)"/>
      <path id="DejaVuSans-79" d="M 2059 -325 
Q 1816 -950 1584 -1140 
Q 1353 -1331 966 -1331 
L 506 -1331 
L 506 -850 
L 844 -850 
Q 1081 -850 1212 -737 
Q 1344 -625 1503 -206 
L 1606 56 
L 191 3500 
L 800 3500 
L 1894 763 
L 2988 3500 
L 3597 3500 
L 2059 -325 
z
" transform="scale(0.015625)"/>
      <path id="DejaVuSans-28" d="M 1984 4856 
Q 1566 4138 1362 3434 
Q 1159 2731 1159 2009 
Q 1159 1288 1364 580 
Q 1569 -128 1984 -844 
L 1484 -844 
Q 1016 -109 783 600 
Q 550 1309 550 2009 
Q 550 2706 781 3412 
Q 1013 4119 1484 4856 
L 1984 4856 
z
" transform="scale(0.015625)"/>
      <path id="DejaVuSans-6d" d="M 3328 2828 
Q 3544 3216 3844 3400 
Q 4144 3584 4550 3584 
Q 5097 3584 5394 3201 
Q 5691 2819 5691 2113 
L 5691 0 
L 5113 0 
L 5113 2094 
Q 5113 2597 4934 2840 
Q 4756 3084 4391 3084 
Q 3944 3084 3684 2787 
Q 3425 2491 3425 1978 
L 3425 0 
L 2847 0 
L 2847 2094 
Q 2847 2600 2669 2842 
Q 2491 3084 2119 3084 
Q 1678 3084 1418 2786 
Q 1159 2488 1159 1978 
L 1159 0 
L 581 0 
L 581 3500 
L 1159 3500 
L 1159 2956 
Q 1356 3278 1631 3431 
Q 1906 3584 2284 3584 
Q 2666 3584 2933 3390 
Q 3200 3197 3328 2828 
z
" transform="scale(0.015625)"/>
      <path id="DejaVuSans-49" d="M 628 4666 
L 1259 4666 
L 1259 0 
L 628 0 
L 628 4666 
z
" transform="scale(0.015625)"/>
      <path id="DejaVuSans-44" d="M 1259 4147 
L 1259 519 
L 2022 519 
Q 2988 519 3436 956 
Q 3884 1394 3884 2338 
Q 3884 3275 3436 3711 
Q 2988 4147 2022 4147 
L 1259 4147 
z
M 628 4666 
L 1925 4666 
Q 3281 4666 3915 4102 
Q 4550 3538 4550 2338 
Q 4550 1131 3912 565 
Q 3275 0 1925 0 
L 628 0 
L 628 4666 
z
" transform="scale(0.015625)"/>
      <path id="DejaVuSans-66" d="M 2375 4863 
L 2375 4384 
L 1825 4384 
Q 1516 4384 1395 4259 
Q 1275 4134 1275 3809 
L 1275 3500 
L 2222 3500 
L 2222 3053 
L 1275 3053 
L 1275 0 
L 697 0 
L 697 3053 
L 147 3053 
L 147 3500 
L 697 3500 
L 697 3744 
Q 697 4328 969 4595 
Q 1241 4863 1831 4863 
L 2375 4863 
z
" transform="scale(0.015625)"/>
      <path id="DejaVuSans-2e" d="M 684 794 
L 1344 794 
L 1344 0 
L 684 0 
L 684 794 
z
" transform="scale(0.015625)"/>
      <path id="DejaVuSans-63" d="M 3122 3366 
L 3122 2828 
Q 2878 2963 2633 3030 
Q 2388 3097 2138 3097 
Q 1578 3097 1268 2742 
Q 959 2388 959 1747 
Q 959 1106 1268 751 
Q 1578 397 2138 397 
Q 2388 397 2633 464 
Q 2878 531 3122 666 
L 3122 134 
Q 2881 22 2623 -34 
Q 2366 -91 2075 -91 
Q 1284 -91 818 406 
Q 353 903 353 1747 
Q 353 2603 823 3093 
Q 1294 3584 2113 3584 
Q 2378 3584 2631 3529 
Q 2884 3475 3122 3366 
z
" transform="scale(0.015625)"/>
      <path id="DejaVuSans-76" d="M 191 3500 
L 800 3500 
L 1894 563 
L 2988 3500 
L 3597 3500 
L 2284 0 
L 1503 0 
L 191 3500 
z
" transform="scale(0.015625)"/>
      <path id="DejaVuSans-29" d="M 513 4856 
L 1013 4856 
Q 1481 4119 1714 3412 
Q 1947 2706 1947 2009 
Q 1947 1309 1714 600 
Q 1481 -109 1013 -844 
L 513 -844 
Q 928 -128 1133 580 
Q 1338 1288 1338 2009 
Q 1338 2731 1133 3434 
Q 928 4138 513 4856 
z
" transform="scale(0.015625)"/>
     </defs>
     <use xlink:href="#DejaVuSans-4c"/>
     <use xlink:href="#DejaVuSans-61" x="55.712891"/>
     <use xlink:href="#DejaVuSans-62" x="116.992188"/>
     <use xlink:href="#DejaVuSans-65" x="180.46875"/>
     <use xlink:href="#DejaVuSans-6c" x="241.992188"/>
     <use xlink:href="#DejaVuSans-73" x="269.775391"/>
     <use xlink:href="#DejaVuSans-3a" x="321.875"/>
     <use xlink:href="#DejaVuSans-20" x="355.566406"/>
     <use xlink:href="#DejaVuSans-53" x="387.353516"/>
     <use xlink:href="#DejaVuSans-3d" x="450.830078"/>
     <use xlink:href="#DejaVuSans-53" x="534.619141"/>
     <use xlink:href="#DejaVuSans-75" x="598.095703"/>
     <use xlink:href="#DejaVuSans-70" x="661.474609"/>
     <use xlink:href="#DejaVuSans-70" x="724.951172"/>
     <use xlink:href="#DejaVuSans-6f" x="788.427734"/>
     <use xlink:href="#DejaVuSans-72" x="849.609375"/>
     <use xlink:href="#DejaVuSans-74" x="890.722656"/>
     <use xlink:href="#DejaVuSans-2c" x="929.931641"/>
     <use xlink:href="#DejaVuSans-20" x="961.71875"/>
     <use xlink:href="#DejaVuSans-51" x="993.505859"/>
     <use xlink:href="#DejaVuSans-3d" x="1072.216797"/>
     <use xlink:href="#DejaVuSans-51" x="1156.005859"/>
     <use xlink:href="#DejaVuSans-75" x="1234.716797"/>
     <use xlink:href="#DejaVuSans-65" x="1298.095703"/>
     <use xlink:href="#DejaVuSans-72" x="1359.619141"/>
     <use xlink:href="#DejaVuSans-79" x="1400.732422"/>
     <use xlink:href="#DejaVuSans-20" x="1459.912109"/>
     <use xlink:href="#DejaVuSans-28" x="1491.699219"/>
     <use xlink:href="#DejaVuSans-73" x="1530.712891"/>
     <use xlink:href="#DejaVuSans-61" x="1582.8125"/>
     <use xlink:href="#DejaVuSans-6d" x="1644.091797"/>
     <use xlink:href="#DejaVuSans-70" x="1741.503906"/>
     <use xlink:href="#DejaVuSans-6c" x="1804.980469"/>
     <use xlink:href="#DejaVuSans-65" x="1832.763672"/>
     <use xlink:href="#DejaVuSans-20" x="1894.287109"/>
     <use xlink:href="#DejaVuSans-49" x="1926.074219"/>
     <use xlink:href="#DejaVuSans-44" x="1955.566406"/>
     <use xlink:href="#DejaVuSans-20" x="2032.568359"/>
     <use xlink:href="#DejaVuSans-66" x="2064.355469"/>
     <use xlink:href="#DejaVuSans-72" x="2099.560547"/>
     <use xlink:href="#DejaVuSans-6f" x="2138.423828"/>
     <use xlink:href="#DejaVuSans-6d" x="2199.605469"/>
     <use xlink:href="#DejaVuSans-20" x="2297.017578"/>
     <use xlink:href="#DejaVuSans-74" x="2328.804688"/>
     <use xlink:href="#DejaVuSans-65" x="2368.013672"/>
     <use xlink:href="#DejaVuSans-73" x="2429.537109"/>
     <use xlink:href="#DejaVuSans-74" x="2481.636719"/>
     <use xlink:href="#DejaVuSans-2e" x="2520.845703"/>
     <use xlink:href="#DejaVuSans-63" x="2552.632812"/>
     <use xlink:href="#DejaVuSans-73" x="2607.613281"/>
     <use xlink:href="#DejaVuSans-76" x="2659.712891"/>
     <use xlink:href="#DejaVuSans-29" x="2718.892578"/>
    </g>
    <!-- * indicates misclassification (0/6 errors) -->
    <g transform="translate(75.982538 657.191506) scale(0.09 -0.09)">
     <defs>
      <path id="DejaVuSans-2a" d="M 3009 3897 
L 1888 3291 
L 3009 2681 
L 2828 2375 
L 1778 3009 
L 1778 1831 
L 1422 1831 
L 1422 3009 
L 372 2375 
L 191 2681 
L 1313 3291 
L 191 3897 
L 372 4206 
L 1422 3572 
L 1422 4750 
L 1778 4750 
L 1778 3572 
L 2828 4206 
L 3009 3897 
z
" transform="scale(0.015625)"/>
      <path id="DejaVuSans-69" d="M 603 3500 
L 1178 3500 
L 1178 0 
L 603 0 
L 603 3500 
z
M 603 4863 
L 1178 4863 
L 1178 4134 
L 603 4134 
L 603 4863 
z
" transform="scale(0.015625)"/>
      <path id="DejaVuSans-6e" d="M 3513 2113 
L 3513 0 
L 2938 0 
L 2938 2094 
Q 2938 2591 2744 2837 
Q 2550 3084 2163 3084 
Q 1697 3084 1428 2787 
Q 1159 2491 1159 1978 
L 1159 0 
L 581 0 
L 581 3500 
L 1159 3500 
L 1159 2956 
Q 1366 3272 1645 3428 
Q 1925 3584 2291 3584 
Q 2894 3584 3203 3211 
Q 3513 2838 3513 2113 
z
" transform="scale(0.015625)"/>
      <path id="DejaVuSans-64" d="M 2906 2969 
L 2906 4863 
L 3481 4863 
L 3481 0 
L 2906 0 
L 2906 525 
Q 2725 213 2448 61 
Q 2172 -91 1784 -91 
Q 1150 -91 751 415 
Q 353 922 353 1747 
Q 353 2572 751 3078 
Q 1150 3584 1784 3584 
Q 2172 3584 2448 3432 
Q 2725 3281 2906 2969 
z
M 947 1747 
Q 947 1113 1208 752 
Q 1469 391 1925 391 
Q 2381 391 2643 752 
Q 2906 1113 2906 1747 
Q 2906 2381 2643 2742 
Q 2381 3103 1925 3103 
Q 1469 3103 1208 2742 
Q 947 2381 947 1747 
z
" transform="scale(0.015625)"/>
      <path id="DejaVuSans-2f" d="M 1625 4666 
L 2156 4666 
L 531 -594 
L 0 -594 
L 1625 4666 
z
" transform="scale(0.015625)"/>
      <path id="DejaVuSans-36" d="M 2113 2584 
Q 1688 2584 1439 2293 
Q 1191 2003 1191 1497 
Q 1191 994 1439 701 
Q 1688 409 2113 409 
Q 2538 409 2786 701 
Q 3034 994 3034 1497 
Q 3034 2003 2786 2293 
Q 2538 2584 2113 2584 
z
M 3366 4563 
L 3366 3988 
Q 3128 4100 2886 4159 
Q 2644 4219 2406 4219 
Q 1781 4219 1451 3797 
Q 1122 3375 1075 2522 
Q 1259 2794 1537 2939 
Q 1816 3084 2150 3084 
Q 2853 3084 3261 2657 
Q 3669 2231 3669 1497 
Q 3669 778 3244 343 
Q 2819 -91 2113 -91 
Q 1303 -91 875 529 
Q 447 1150 447 2328 
Q 447 3434 972 4092 
Q 1497 4750 2381 4750 
Q 2619 4750 2861 4703 
Q 3103 4656 3366 4563 
z
" transform="scale(0.015625)"/>
     </defs>
     <use xlink:href="#DejaVuSans-2a"/>
     <use xlink:href="#DejaVuSans-20" x="50"/>
     <use xlink:href="#DejaVuSans-69" x="81.787109"/>
     <use xlink:href="#DejaVuSans-6e" x="109.570312"/>
     <use xlink:href="#DejaVuSans-64" x="172.949219"/>
     <use xlink:href="#DejaVuSans-69" x="236.425781"/>
     <use xlink:href="#DejaVuSans-63" x="264.208984"/>
     <use xlink:href="#DejaVuSans-61" x="319.189453"/>
     <use xlink:href="#DejaVuSans-74" x="380.46875"/>
     <use xlink:href="#DejaVuSans-65" x="419.677734"/>
     <use xlink:href="#DejaVuSans-73" x="481.201172"/>
     <use xlink:href="#DejaVuSans-20" x="533.300781"/>
     <use xlink:href="#DejaVuSans-6d" x="565.087891"/>
     <use xlink:href="#DejaVuSans-69" x="662.5"/>
     <use xlink:href="#DejaVuSans-73" x="690.283203"/>
     <use xlink:href="#DejaVuSans-63" x="742.382812"/>
     <use xlink:href="#DejaVuSans-6c" x="797.363281"/>
     <use xlink:href="#DejaVuSans-61" x="825.146484"/>
     <use xlink:href="#DejaVuSans-73" x="886.425781"/>
     <use xlink:href="#DejaVuSans-73" x="938.525391"/>
     <use xlink:href="#DejaVuSans-69" x="990.625"/>
     <use xlink:href="#DejaVuSans-66" x="1018.408203"/>
     <use xlink:href="#DejaVuSans-69" x="1053.613281"/>
     <use xlink:href="#DejaVuSans-63" x="1081.396484"/>
     <use xlink:href="#DejaVuSans-61" x="1136.376953"/>
     <use xlink:href="#DejaVuSans-74" x="1197.65625"/>
     <use xlink:href="#DejaVuSans-69" x="1236.865234"/>
     <use xlink:href="#DejaVuSans-6f" x="1264.648438"/>
     <use xlink:href="#DejaVuSans-6e" x="1325.830078"/>
     <use xlink:href="#DejaVuSans-20" x="1389.208984"/>
     <use xlink:href="#DejaVuSans-28" x="1420.996094"/>
     <use xlink:href="#DejaVuSans-30" x="1460.009766"/>
     <use xlink:href="#DejaVuSans-2f" x="1523.632812"/>
     <use xlink:href="#DejaVuSans-36" x="1557.324219"/>
     <use xlink:href="#DejaVuSans-20" x="1620.947266"/>
     <use xlink:href="#DejaVuSans-65" x="1652.734375"/>
     <use xlink:href="#DejaVuSans-72" x="1714.257812"/>
     <use xlink:href="#DejaVuSans-72" x="1753.621094"/>
     <use xlink:href="#DejaVuSans-6f" x="1792.484375"/>
     <use xlink:href="#DejaVuSans-72" x="1853.666016"/>
     <use xlink:href="#DejaVuSans-73" x="1894.779297"/>
     <use xlink:href="#DejaVuSans-29" x="1946.878906"/>
    </g>
   </g>
   <g id="text_30">
    <!-- Episode 10: Embedding Space Visualization (TSNE) -->
    <g transform="translate(323.69125 17.837812) scale(0.14 -0.14)">
     <defs>
      <path id="DejaVuSans-Bold-45" d="M 588 4666 
L 3834 4666 
L 3834 3756 
L 1791 3756 
L 1791 2888 
L 3713 2888 
L 3713 1978 
L 1791 1978 
L 1791 909 
L 3903 909 
L 3903 0 
L 588 0 
L 588 4666 
z
" transform="scale(0.015625)"/>
      <path id="DejaVuSans-Bold-70" d="M 1656 506 
L 1656 -1331 
L 538 -1331 
L 538 3500 
L 1656 3500 
L 1656 2988 
Q 1888 3294 2169 3439 
Q 2450 3584 2816 3584 
Q 3463 3584 3878 3070 
Q 4294 2556 4294 1747 
Q 4294 938 3878 423 
Q 3463 -91 2816 -91 
Q 2450 -91 2169 54 
Q 1888 200 1656 506 
z
M 2400 2772 
Q 2041 2772 1848 2508 
Q 1656 2244 1656 1747 
Q 1656 1250 1848 986 
Q 2041 722 2400 722 
Q 2759 722 2948 984 
Q 3138 1247 3138 1747 
Q 3138 2247 2948 2509 
Q 2759 2772 2400 2772 
z
" transform="scale(0.015625)"/>
      <path id="DejaVuSans-Bold-64" d="M 2919 2988 
L 2919 4863 
L 4044 4863 
L 4044 0 
L 2919 0 
L 2919 506 
Q 2688 197 2409 53 
Q 2131 -91 1766 -91 
Q 1119 -91 703 423 
Q 288 938 288 1747 
Q 288 2556 703 3070 
Q 1119 3584 1766 3584 
Q 2128 3584 2408 3439 
Q 2688 3294 2919 2988 
z
M 2181 722 
Q 2541 722 2730 984 
Q 2919 1247 2919 1747 
Q 2919 2247 2730 2509 
Q 2541 2772 2181 2772 
Q 1825 2772 1636 2509 
Q 1447 2247 1447 1747 
Q 1447 1247 1636 984 
Q 1825 722 2181 722 
z
" transform="scale(0.015625)"/>
      <path id="DejaVuSans-Bold-3a" d="M 716 3500 
L 1844 3500 
L 1844 2291 
L 716 2291 
L 716 3500 
z
M 716 1209 
L 1844 1209 
L 1844 0 
L 716 0 
L 716 1209 
z
" transform="scale(0.015625)"/>
      <path id="DejaVuSans-Bold-62" d="M 2400 722 
Q 2759 722 2948 984 
Q 3138 1247 3138 1747 
Q 3138 2247 2948 2509 
Q 2759 2772 2400 2772 
Q 2041 2772 1848 2508 
Q 1656 2244 1656 1747 
Q 1656 1250 1848 986 
Q 2041 722 2400 722 
z
M 1656 2988 
Q 1888 3294 2169 3439 
Q 2450 3584 2816 3584 
Q 3463 3584 3878 3070 
Q 4294 2556 4294 1747 
Q 4294 938 3878 423 
Q 3463 -91 2816 -91 
Q 2450 -91 2169 54 
Q 1888 200 1656 506 
L 1656 0 
L 538 0 
L 538 4863 
L 1656 4863 
L 1656 2988 
z
" transform="scale(0.015625)"/>
      <path id="DejaVuSans-Bold-67" d="M 2919 594 
Q 2688 288 2409 144 
Q 2131 0 1766 0 
Q 1125 0 706 504 
Q 288 1009 288 1791 
Q 288 2575 706 3076 
Q 1125 3578 1766 3578 
Q 2131 3578 2409 3434 
Q 2688 3291 2919 2981 
L 2919 3500 
L 4044 3500 
L 4044 353 
Q 4044 -491 3511 -936 
Q 2978 -1381 1966 -1381 
Q 1638 -1381 1331 -1331 
Q 1025 -1281 716 -1178 
L 716 -306 
Q 1009 -475 1290 -558 
Q 1572 -641 1856 -641 
Q 2406 -641 2662 -400 
Q 2919 -159 2919 353 
L 2919 594 
z
M 2181 2772 
Q 1834 2772 1640 2515 
Q 1447 2259 1447 1791 
Q 1447 1309 1634 1061 
Q 1822 813 2181 813 
Q 2531 813 2725 1069 
Q 2919 1325 2919 1791 
Q 2919 2259 2725 2515 
Q 2531 2772 2181 2772 
z
" transform="scale(0.015625)"/>
      <path id="DejaVuSans-Bold-61" d="M 2106 1575 
Q 1756 1575 1579 1456 
Q 1403 1338 1403 1106 
Q 1403 894 1545 773 
Q 1688 653 1941 653 
Q 2256 653 2472 879 
Q 2688 1106 2688 1447 
L 2688 1575 
L 2106 1575 
z
M 3816 1997 
L 3816 0 
L 2688 0 
L 2688 519 
Q 2463 200 2181 54 
Q 1900 -91 1497 -91 
Q 953 -91 614 226 
Q 275 544 275 1050 
Q 275 1666 698 1953 
Q 1122 2241 2028 2241 
L 2688 2241 
L 2688 2328 
Q 2688 2594 2478 2717 
Q 2269 2841 1825 2841 
Q 1466 2841 1156 2769 
Q 847 2697 581 2553 
L 581 3406 
Q 941 3494 1303 3539 
Q 1666 3584 2028 3584 
Q 2975 3584 3395 3211 
Q 3816 2838 3816 1997 
z
" transform="scale(0.015625)"/>
      <path id="DejaVuSans-Bold-63" d="M 3366 3391 
L 3366 2478 
Q 3138 2634 2908 2709 
Q 2678 2784 2431 2784 
Q 1963 2784 1702 2511 
Q 1441 2238 1441 1747 
Q 1441 1256 1702 982 
Q 1963 709 2431 709 
Q 2694 709 2930 787 
Q 3166 866 3366 1019 
L 3366 103 
Q 3103 6 2833 -42 
Q 2563 -91 2291 -91 
Q 1344 -91 809 395 
Q 275 881 275 1747 
Q 275 2613 809 3098 
Q 1344 3584 2291 3584 
Q 2566 3584 2833 3536 
Q 3100 3488 3366 3391 
z
" transform="scale(0.015625)"/>
      <path id="DejaVuSans-Bold-56" d="M 31 4666 
L 1241 4666 
L 2478 1222 
L 3713 4666 
L 4922 4666 
L 3194 0 
L 1759 0 
L 31 4666 
z
" transform="scale(0.015625)"/>
      <path id="DejaVuSans-Bold-75" d="M 500 1363 
L 500 3500 
L 1625 3500 
L 1625 3150 
Q 1625 2866 1622 2436 
Q 1619 2006 1619 1863 
Q 1619 1441 1641 1255 
Q 1663 1069 1716 984 
Q 1784 875 1895 815 
Q 2006 756 2150 756 
Q 2500 756 2700 1025 
Q 2900 1294 2900 1772 
L 2900 3500 
L 4019 3500 
L 4019 0 
L 2900 0 
L 2900 506 
Q 2647 200 2364 54 
Q 2081 -91 1741 -91 
Q 1134 -91 817 281 
Q 500 653 500 1363 
z
" transform="scale(0.015625)"/>
      <path id="DejaVuSans-Bold-6c" d="M 538 4863 
L 1656 4863 
L 1656 0 
L 538 0 
L 538 4863 
z
" transform="scale(0.015625)"/>
      <path id="DejaVuSans-Bold-7a" d="M 366 3500 
L 3419 3500 
L 3419 2719 
L 1575 800 
L 3419 800 
L 3419 0 
L 288 0 
L 288 781 
L 2131 2700 
L 366 2700 
L 366 3500 
z
" transform="scale(0.015625)"/>
      <path id="DejaVuSans-Bold-74" d="M 1759 4494 
L 1759 3500 
L 2913 3500 
L 2913 2700 
L 1759 2700 
L 1759 1216 
Q 1759 972 1856 886 
Q 1953 800 2241 800 
L 2816 800 
L 2816 0 
L 1856 0 
Q 1194 0 917 276 
Q 641 553 641 1216 
L 641 2700 
L 84 2700 
L 84 3500 
L 641 3500 
L 641 4494 
L 1759 4494 
z
" transform="scale(0.015625)"/>
      <path id="DejaVuSans-Bold-54" d="M 31 4666 
L 4331 4666 
L 4331 3756 
L 2784 3756 
L 2784 0 
L 1581 0 
L 1581 3756 
L 31 3756 
L 31 4666 
z
" transform="scale(0.015625)"/>
      <path id="DejaVuSans-Bold-4e" d="M 588 4666 
L 1931 4666 
L 3628 1466 
L 3628 4666 
L 4769 4666 
L 4769 0 
L 3425 0 
L 1728 3200 
L 1728 0 
L 588 0 
L 588 4666 
z
" transform="scale(0.015625)"/>
     </defs>
     <use xlink:href="#DejaVuSans-Bold-45"/>
     <use xlink:href="#DejaVuSans-Bold-70" x="68.310547"/>
     <use xlink:href="#DejaVuSans-Bold-69" x="139.892578"/>
     <use xlink:href="#DejaVuSans-Bold-73" x="174.169922"/>
     <use xlink:href="#DejaVuSans-Bold-6f" x="233.691406"/>
     <use xlink:href="#DejaVuSans-Bold-64" x="302.392578"/>
     <use xlink:href="#DejaVuSans-Bold-65" x="373.974609"/>
     <use xlink:href="#DejaVuSans-Bold-20" x="441.796875"/>
     <use xlink:href="#DejaVuSans-Bold-31" x="476.611328"/>
     <use xlink:href="#DejaVuSans-Bold-30" x="546.191406"/>
     <use xlink:href="#DejaVuSans-Bold-3a" x="615.771484"/>
     <use xlink:href="#DejaVuSans-Bold-20" x="655.761719"/>
     <use xlink:href="#DejaVuSans-Bold-45" x="690.576172"/>
     <use xlink:href="#DejaVuSans-Bold-6d" x="758.886719"/>
     <use xlink:href="#DejaVuSans-Bold-62" x="863.085938"/>
     <use xlink:href="#DejaVuSans-Bold-65" x="934.667969"/>
     <use xlink:href="#DejaVuSans-Bold-64" x="1002.490234"/>
     <use xlink:href="#DejaVuSans-Bold-64" x="1074.072266"/>
     <use xlink:href="#DejaVuSans-Bold-69" x="1145.654297"/>
     <use xlink:href="#DejaVuSans-Bold-6e" x="1179.931641"/>
     <use xlink:href="#DejaVuSans-Bold-67" x="1251.123047"/>
     <use xlink:href="#DejaVuSans-Bold-20" x="1322.705078"/>
     <use xlink:href="#DejaVuSans-Bold-53" x="1357.519531"/>
     <use xlink:href="#DejaVuSans-Bold-70" x="1429.541016"/>
     <use xlink:href="#DejaVuSans-Bold-61" x="1501.123047"/>
     <use xlink:href="#DejaVuSans-Bold-63" x="1568.603516"/>
     <use xlink:href="#DejaVuSans-Bold-65" x="1627.880859"/>
     <use xlink:href="#DejaVuSans-Bold-20" x="1695.703125"/>
     <use xlink:href="#DejaVuSans-Bold-56" x="1730.517578"/>
     <use xlink:href="#DejaVuSans-Bold-69" x="1806.160156"/>
     <use xlink:href="#DejaVuSans-Bold-73" x="1840.4375"/>
     <use xlink:href="#DejaVuSans-Bold-75" x="1899.958984"/>
     <use xlink:href="#DejaVuSans-Bold-61" x="1971.150391"/>
     <use xlink:href="#DejaVuSans-Bold-6c" x="2038.630859"/>
     <use xlink:href="#DejaVuSans-Bold-69" x="2072.908203"/>
     <use xlink:href="#DejaVuSans-Bold-7a" x="2107.185547"/>
     <use xlink:href="#DejaVuSans-Bold-61" x="2165.388672"/>
     <use xlink:href="#DejaVuSans-Bold-74" x="2232.869141"/>
     <use xlink:href="#DejaVuSans-Bold-69" x="2280.671875"/>
     <use xlink:href="#DejaVuSans-Bold-6f" x="2314.949219"/>
     <use xlink:href="#DejaVuSans-Bold-6e" x="2383.650391"/>
     <use xlink:href="#DejaVuSans-Bold-20" x="2454.841797"/>
     <use xlink:href="#DejaVuSans-Bold-28" x="2489.65625"/>
     <use xlink:href="#DejaVuSans-Bold-54" x="2535.359375"/>
     <use xlink:href="#DejaVuSans-Bold-53" x="2603.572266"/>
     <use xlink:href="#DejaVuSans-Bold-4e" x="2675.59375"/>
     <use xlink:href="#DejaVuSans-Bold-45" x="2759.285156"/>
     <use xlink:href="#DejaVuSans-Bold-29" x="2827.595703"/>
    </g>
    <!-- 2-way 3-shot | Backbone: resnet50 -->
    <g transform="translate(387.728125 33.697625) scale(0.14 -0.14)">
     <defs>
      <path id="DejaVuSans-Bold-2d" d="M 347 2297 
L 2309 2297 
L 2309 1388 
L 347 1388 
L 347 2297 
z
" transform="scale(0.015625)"/>
      <path id="DejaVuSans-Bold-77" d="M 225 3500 
L 1313 3500 
L 1900 1088 
L 2491 3500 
L 3425 3500 
L 4013 1113 
L 4603 3500 
L 5691 3500 
L 4769 0 
L 3547 0 
L 2956 2406 
L 2369 0 
L 1147 0 
L 225 3500 
z
" transform="scale(0.015625)"/>
      <path id="DejaVuSans-Bold-79" d="M 78 3500 
L 1197 3500 
L 2138 1125 
L 2938 3500 
L 4056 3500 
L 2584 -331 
Q 2363 -916 2067 -1148 
Q 1772 -1381 1288 -1381 
L 641 -1381 
L 641 -647 
L 991 -647 
Q 1275 -647 1404 -556 
Q 1534 -466 1606 -231 
L 1638 -134 
L 78 3500 
z
" transform="scale(0.015625)"/>
      <path id="DejaVuSans-Bold-68" d="M 4056 2131 
L 4056 0 
L 2931 0 
L 2931 347 
L 2931 1625 
Q 2931 2084 2911 2256 
Q 2891 2428 2841 2509 
Q 2775 2619 2662 2680 
Q 2550 2741 2406 2741 
Q 2056 2741 1856 2470 
Q 1656 2200 1656 1722 
L 1656 0 
L 538 0 
L 538 4863 
L 1656 4863 
L 1656 2988 
Q 1909 3294 2193 3439 
Q 2478 3584 2822 3584 
Q 3428 3584 3742 3212 
Q 4056 2841 4056 2131 
z
" transform="scale(0.015625)"/>
      <path id="DejaVuSans-Bold-7c" d="M 1522 4891 
L 1522 -1509 
L 813 -1509 
L 813 4891 
L 1522 4891 
z
" transform="scale(0.015625)"/>
      <path id="DejaVuSans-Bold-6b" d="M 538 4863 
L 1656 4863 
L 1656 2216 
L 2944 3500 
L 4244 3500 
L 2534 1894 
L 4378 0 
L 3022 0 
L 1656 1459 
L 1656 0 
L 538 0 
L 538 4863 
z
" transform="scale(0.015625)"/>
      <path id="DejaVuSans-Bold-72" d="M 3138 2547 
Q 2991 2616 2845 2648 
Q 2700 2681 2553 2681 
Q 2122 2681 1889 2404 
Q 1656 2128 1656 1613 
L 1656 0 
L 538 0 
L 538 3500 
L 1656 3500 
L 1656 2925 
Q 1872 3269 2151 3426 
Q 2431 3584 2822 3584 
Q 2878 3584 2943 3579 
Q 3009 3575 3134 3559 
L 3138 2547 
z
" transform="scale(0.015625)"/>
      <path id="DejaVuSans-Bold-35" d="M 678 4666 
L 3669 4666 
L 3669 3781 
L 1638 3781 
L 1638 3059 
Q 1775 3097 1914 3117 
Q 2053 3138 2203 3138 
Q 3056 3138 3531 2711 
Q 4006 2284 4006 1522 
Q 4006 766 3489 337 
Q 2972 -91 2053 -91 
Q 1656 -91 1267 -14 
Q 878 63 494 219 
L 494 1166 
Q 875 947 1217 837 
Q 1559 728 1863 728 
Q 2300 728 2551 942 
Q 2803 1156 2803 1522 
Q 2803 1891 2551 2103 
Q 2300 2316 1863 2316 
Q 1603 2316 1309 2248 
Q 1016 2181 678 2041 
L 678 4666 
z
" transform="scale(0.015625)"/>
     </defs>
     <use xlink:href="#DejaVuSans-Bold-32"/>
     <use xlink:href="#DejaVuSans-Bold-2d" x="69.580078"/>
     <use xlink:href="#DejaVuSans-Bold-77" x="111.083984"/>
     <use xlink:href="#DejaVuSans-Bold-61" x="203.466797"/>
     <use xlink:href="#DejaVuSans-Bold-79" x="267.822266"/>
     <use xlink:href="#DejaVuSans-Bold-20" x="333.007812"/>
     <use xlink:href="#DejaVuSans-Bold-33" x="367.822266"/>
     <use xlink:href="#DejaVuSans-Bold-2d" x="437.402344"/>
     <use xlink:href="#DejaVuSans-Bold-73" x="478.90625"/>
     <use xlink:href="#DejaVuSans-Bold-68" x="538.427734"/>
     <use xlink:href="#DejaVuSans-Bold-6f" x="609.619141"/>
     <use xlink:href="#DejaVuSans-Bold-74" x="678.320312"/>
     <use xlink:href="#DejaVuSans-Bold-20" x="726.123047"/>
     <use xlink:href="#DejaVuSans-Bold-7c" x="760.9375"/>
     <use xlink:href="#DejaVuSans-Bold-20" x="797.460938"/>
     <use xlink:href="#DejaVuSans-Bold-42" x="832.275391"/>
     <use xlink:href="#DejaVuSans-Bold-61" x="908.496094"/>
     <use xlink:href="#DejaVuSans-Bold-63" x="975.976562"/>
     <use xlink:href="#DejaVuSans-Bold-6b" x="1035.253906"/>
     <use xlink:href="#DejaVuSans-Bold-62" x="1101.757812"/>
     <use xlink:href="#DejaVuSans-Bold-6f" x="1173.339844"/>
     <use xlink:href="#DejaVuSans-Bold-6e" x="1242.041016"/>
     <use xlink:href="#DejaVuSans-Bold-65" x="1313.232422"/>
     <use xlink:href="#DejaVuSans-Bold-3a" x="1381.054688"/>
     <use xlink:href="#DejaVuSans-Bold-20" x="1421.044922"/>
     <use xlink:href="#DejaVuSans-Bold-72" x="1455.859375"/>
     <use xlink:href="#DejaVuSans-Bold-65" x="1505.175781"/>
     <use xlink:href="#DejaVuSans-Bold-73" x="1572.998047"/>
     <use xlink:href="#DejaVuSans-Bold-6e" x="1632.519531"/>
     <use xlink:href="#DejaVuSans-Bold-65" x="1703.710938"/>
     <use xlink:href="#DejaVuSans-Bold-74" x="1771.533203"/>
     <use xlink:href="#DejaVuSans-Bold-35" x="1819.335938"/>
     <use xlink:href="#DejaVuSans-Bold-30" x="1888.916016"/>
    </g>
   </g>
   <g id="legend_1">
    <g id="patch_32">
     <path d="M 841.307813 223.766375 
L 987.360938 223.766375 
Q 989.360938 223.766375 989.360938 221.766375 
L 989.360938 62.697625 
Q 989.360938 60.697625 987.360938 60.697625 
L 841.307813 60.697625 
Q 839.307813 60.697625 839.307813 62.697625 
L 839.307813 221.766375 
Q 839.307813 223.766375 841.307813 223.766375 
z
" style="fill: #4d4d4d; opacity: 0.5; stroke: #4d4d4d; stroke-linejoin: miter"/>
    </g>
    <g id="patch_33">
     <path d="M 839.307813 221.766375 
L 985.360938 221.766375 
Q 987.360938 221.766375 987.360938 219.766375 
L 987.360938 60.697625 
Q 987.360938 58.697625 985.360938 58.697625 
L 839.307813 58.697625 
Q 837.307813 58.697625 837.307813 60.697625 
L 837.307813 219.766375 
Q 837.307813 221.766375 839.307813 221.766375 
z
" style="fill: #ffffff; opacity: 0.95; stroke: #000000; stroke-linejoin: miter"/>
    </g>
    <g id="PathCollection_5">
     <defs>
      <path id="m10be4cbd04" d="M -5.656854 5.656854 
L 5.656854 5.656854 
L 5.656854 -5.656854 
L -5.656854 -5.656854 
z
" style="stroke: #000000; stroke-opacity: 0.7; stroke-width: 2"/>
     </defs>
     <g>
      <use xlink:href="#m10be4cbd04" x="867.307813" y="78.671062" style="fill: #1f77b4; fill-opacity: 0.7; stroke: #000000; stroke-opacity: 0.7; stroke-width: 2"/>
     </g>
    </g>
    <g id="text_31">
     <!-- BK Support -->
     <g transform="translate(894.307813 81.296062) scale(0.1 -0.1)">
      <defs>
       <path id="DejaVuSans-42" d="M 1259 2228 
L 1259 519 
L 2272 519 
Q 2781 519 3026 730 
Q 3272 941 3272 1375 
Q 3272 1813 3026 2020 
Q 2781 2228 2272 2228 
L 1259 2228 
z
M 1259 4147 
L 1259 2741 
L 2194 2741 
Q 2656 2741 2882 2914 
Q 3109 3088 3109 3444 
Q 3109 3797 2882 3972 
Q 2656 4147 2194 4147 
L 1259 4147 
z
M 628 4666 
L 2241 4666 
Q 2963 4666 3353 4366 
Q 3744 4066 3744 3513 
Q 3744 3084 3544 2831 
Q 3344 2578 2956 2516 
Q 3422 2416 3680 2098 
Q 3938 1781 3938 1306 
Q 3938 681 3513 340 
Q 3088 0 2303 0 
L 628 0 
L 628 4666 
z
" transform="scale(0.015625)"/>
       <path id="DejaVuSans-4b" d="M 628 4666 
L 1259 4666 
L 1259 2694 
L 3353 4666 
L 4166 4666 
L 1850 2491 
L 4331 0 
L 3500 0 
L 1259 2247 
L 1259 0 
L 628 0 
L 628 4666 
z
" transform="scale(0.015625)"/>
      </defs>
      <use xlink:href="#DejaVuSans-42"/>
      <use xlink:href="#DejaVuSans-4b" x="68.603516"/>
      <use xlink:href="#DejaVuSans-20" x="134.179688"/>
      <use xlink:href="#DejaVuSans-53" x="165.966797"/>
      <use xlink:href="#DejaVuSans-75" x="229.443359"/>
      <use xlink:href="#DejaVuSans-70" x="292.822266"/>
      <use xlink:href="#DejaVuSans-70" x="356.298828"/>
      <use xlink:href="#DejaVuSans-6f" x="419.775391"/>
      <use xlink:href="#DejaVuSans-72" x="480.957031"/>
      <use xlink:href="#DejaVuSans-74" x="522.070312"/>
     </g>
    </g>
    <g id="PathCollection_6">
     <defs>
      <path id="m64286cb82b" d="M -5.656854 5.656854 
L 5.656854 5.656854 
L 5.656854 -5.656854 
L -5.656854 -5.656854 
z
" style="stroke: #000000; stroke-opacity: 0.7; stroke-width: 2"/>
     </defs>
     <g>
      <use xlink:href="#m64286cb82b" x="867.307813" y="103.349187" style="fill: #ff7f0e; fill-opacity: 0.7; stroke: #000000; stroke-opacity: 0.7; stroke-width: 2"/>
     </g>
    </g>
    <g id="text_32">
     <!-- FK Support -->
     <g transform="translate(894.307813 105.974187) scale(0.1 -0.1)">
      <defs>
       <path id="DejaVuSans-46" d="M 628 4666 
L 3309 4666 
L 3309 4134 
L 1259 4134 
L 1259 2759 
L 3109 2759 
L 3109 2228 
L 1259 2228 
L 1259 0 
L 628 0 
L 628 4666 
z
" transform="scale(0.015625)"/>
      </defs>
      <use xlink:href="#DejaVuSans-46"/>
      <use xlink:href="#DejaVuSans-4b" x="57.519531"/>
      <use xlink:href="#DejaVuSans-20" x="123.095703"/>
      <use xlink:href="#DejaVuSans-53" x="154.882812"/>
      <use xlink:href="#DejaVuSans-75" x="218.359375"/>
      <use xlink:href="#DejaVuSans-70" x="281.738281"/>
      <use xlink:href="#DejaVuSans-70" x="345.214844"/>
      <use xlink:href="#DejaVuSans-6f" x="408.691406"/>
      <use xlink:href="#DejaVuSans-72" x="469.873047"/>
      <use xlink:href="#DejaVuSans-74" x="510.986328"/>
     </g>
    </g>
    <g id="PathCollection_7">
     <defs>
      <path id="m460d741adf" d="M -2.309401 6.928203 
L 2.309401 6.928203 
L 2.309401 2.309401 
L 6.928203 2.309401 
L 6.928203 -2.309401 
L 2.309401 -2.309401 
L 2.309401 -6.928203 
L -2.309401 -6.928203 
L -2.309401 -2.309401 
L -6.928203 -2.309401 
L -6.928203 2.309401 
L -2.309401 2.309401 
z
" style="stroke: #000000; stroke-width: 2"/>
     </defs>
     <g>
      <use xlink:href="#m460d741adf" x="867.307813" y="128.027312" style="fill: #1f77b4; stroke: #000000; stroke-width: 2"/>
     </g>
    </g>
    <g id="text_33">
     <!-- BK Centroid -->
     <g transform="translate(894.307813 130.652312) scale(0.1 -0.1)">
      <defs>
       <path id="DejaVuSans-43" d="M 4122 4306 
L 4122 3641 
Q 3803 3938 3442 4084 
Q 3081 4231 2675 4231 
Q 1875 4231 1450 3742 
Q 1025 3253 1025 2328 
Q 1025 1406 1450 917 
Q 1875 428 2675 428 
Q 3081 428 3442 575 
Q 3803 722 4122 1019 
L 4122 359 
Q 3791 134 3420 21 
Q 3050 -91 2638 -91 
Q 1578 -91 968 557 
Q 359 1206 359 2328 
Q 359 3453 968 4101 
Q 1578 4750 2638 4750 
Q 3056 4750 3426 4639 
Q 3797 4528 4122 4306 
z
" transform="scale(0.015625)"/>
      </defs>
      <use xlink:href="#DejaVuSans-42"/>
      <use xlink:href="#DejaVuSans-4b" x="68.603516"/>
      <use xlink:href="#DejaVuSans-20" x="134.179688"/>
      <use xlink:href="#DejaVuSans-43" x="165.966797"/>
      <use xlink:href="#DejaVuSans-65" x="235.791016"/>
      <use xlink:href="#DejaVuSans-6e" x="297.314453"/>
      <use xlink:href="#DejaVuSans-74" x="360.693359"/>
      <use xlink:href="#DejaVuSans-72" x="399.902344"/>
      <use xlink:href="#DejaVuSans-6f" x="438.765625"/>
      <use xlink:href="#DejaVuSans-69" x="499.947266"/>
      <use xlink:href="#DejaVuSans-64" x="527.730469"/>
     </g>
    </g>
    <g id="PathCollection_8">
     <defs>
      <path id="ma0b7536a87" d="M -2.309401 6.928203 
L 2.309401 6.928203 
L 2.309401 2.309401 
L 6.928203 2.309401 
L 6.928203 -2.309401 
L 2.309401 -2.309401 
L 2.309401 -6.928203 
L -2.309401 -6.928203 
L -2.309401 -2.309401 
L -6.928203 -2.309401 
L -6.928203 2.309401 
L -2.309401 2.309401 
z
" style="stroke: #000000; stroke-width: 2"/>
     </defs>
     <g>
      <use xlink:href="#ma0b7536a87" x="867.307813" y="152.705437" style="fill: #ff7f0e; stroke: #000000; stroke-width: 2"/>
     </g>
    </g>
    <g id="text_34">
     <!-- FK Centroid -->
     <g transform="translate(894.307813 155.330437) scale(0.1 -0.1)">
      <use xlink:href="#DejaVuSans-46"/>
      <use xlink:href="#DejaVuSans-4b" x="57.519531"/>
      <use xlink:href="#DejaVuSans-20" x="123.095703"/>
      <use xlink:href="#DejaVuSans-43" x="154.882812"/>
      <use xlink:href="#DejaVuSans-65" x="224.707031"/>
      <use xlink:href="#DejaVuSans-6e" x="286.230469"/>
      <use xlink:href="#DejaVuSans-74" x="349.609375"/>
      <use xlink:href="#DejaVuSans-72" x="388.818359"/>
      <use xlink:href="#DejaVuSans-6f" x="427.681641"/>
      <use xlink:href="#DejaVuSans-69" x="488.863281"/>
      <use xlink:href="#DejaVuSans-64" x="516.646484"/>
     </g>
    </g>
    <g id="PathCollection_9">
     <defs>
      <path id="mf0b7a142be" d="M 0 4.898979 
C 1.299225 4.898979 2.545411 4.382792 3.464102 3.464102 
C 4.382792 2.545411 4.898979 1.299225 4.898979 0 
C 4.898979 -1.299225 4.382792 -2.545411 3.464102 -3.464102 
C 2.545411 -4.382792 1.299225 -4.898979 0 -4.898979 
C -1.299225 -4.898979 -2.545411 -4.382792 -3.464102 -3.464102 
C -4.382792 -2.545411 -4.898979 -1.299225 -4.898979 0 
C -4.898979 1.299225 -4.382792 2.545411 -3.464102 3.464102 
C -2.545411 4.382792 -1.299225 4.898979 0 4.898979 
z
" style="stroke: #000000; stroke-opacity: 0.8; stroke-width: 1.5"/>
     </defs>
     <g>
      <use xlink:href="#mf0b7a142be" x="867.307813" y="177.383562" style="fill: #1f77b4; fill-opacity: 0.8; stroke: #000000; stroke-opacity: 0.8; stroke-width: 1.5"/>
     </g>
    </g>
    <g id="text_35">
     <!-- Predicted as BK -->
     <g transform="translate(894.307813 180.008562) scale(0.1 -0.1)">
      <defs>
       <path id="DejaVuSans-50" d="M 1259 4147 
L 1259 2394 
L 2053 2394 
Q 2494 2394 2734 2622 
Q 2975 2850 2975 3272 
Q 2975 3691 2734 3919 
Q 2494 4147 2053 4147 
L 1259 4147 
z
M 628 4666 
L 2053 4666 
Q 2838 4666 3239 4311 
Q 3641 3956 3641 3272 
Q 3641 2581 3239 2228 
Q 2838 1875 2053 1875 
L 1259 1875 
L 1259 0 
L 628 0 
L 628 4666 
z
" transform="scale(0.015625)"/>
      </defs>
      <use xlink:href="#DejaVuSans-50"/>
      <use xlink:href="#DejaVuSans-72" x="58.552734"/>
      <use xlink:href="#DejaVuSans-65" x="97.416016"/>
      <use xlink:href="#DejaVuSans-64" x="158.939453"/>
      <use xlink:href="#DejaVuSans-69" x="222.416016"/>
      <use xlink:href="#DejaVuSans-63" x="250.199219"/>
      <use xlink:href="#DejaVuSans-74" x="305.179688"/>
      <use xlink:href="#DejaVuSans-65" x="344.388672"/>
      <use xlink:href="#DejaVuSans-64" x="405.912109"/>
      <use xlink:href="#DejaVuSans-20" x="469.388672"/>
      <use xlink:href="#DejaVuSans-61" x="501.175781"/>
      <use xlink:href="#DejaVuSans-73" x="562.455078"/>
      <use xlink:href="#DejaVuSans-20" x="614.554688"/>
      <use xlink:href="#DejaVuSans-42" x="646.341797"/>
      <use xlink:href="#DejaVuSans-4b" x="714.945312"/>
     </g>
    </g>
    <g id="PathCollection_10">
     <defs>
      <path id="m315a35bc75" d="M 0 4.898979 
C 1.299225 4.898979 2.545411 4.382792 3.464102 3.464102 
C 4.382792 2.545411 4.898979 1.299225 4.898979 0 
C 4.898979 -1.299225 4.382792 -2.545411 3.464102 -3.464102 
C 2.545411 -4.382792 1.299225 -4.898979 0 -4.898979 
C -1.299225 -4.898979 -2.545411 -4.382792 -3.464102 -3.464102 
C -4.382792 -2.545411 -4.898979 -1.299225 -4.898979 0 
C -4.898979 1.299225 -4.382792 2.545411 -3.464102 3.464102 
C -2.545411 4.382792 -1.299225 4.898979 0 4.898979 
z
" style="stroke: #000000; stroke-opacity: 0.8; stroke-width: 1.5"/>
     </defs>
     <g>
      <use xlink:href="#m315a35bc75" x="867.307813" y="202.061687" style="fill: #ff7f0e; fill-opacity: 0.8; stroke: #000000; stroke-opacity: 0.8; stroke-width: 1.5"/>
     </g>
    </g>
    <g id="text_36">
     <!-- Predicted as FK -->
     <g transform="translate(894.307813 204.686687) scale(0.1 -0.1)">
      <use xlink:href="#DejaVuSans-50"/>
      <use xlink:href="#DejaVuSans-72" x="58.552734"/>
      <use xlink:href="#DejaVuSans-65" x="97.416016"/>
      <use xlink:href="#DejaVuSans-64" x="158.939453"/>
      <use xlink:href="#DejaVuSans-69" x="222.416016"/>
      <use xlink:href="#DejaVuSans-63" x="250.199219"/>
      <use xlink:href="#DejaVuSans-74" x="305.179688"/>
      <use xlink:href="#DejaVuSans-65" x="344.388672"/>
      <use xlink:href="#DejaVuSans-64" x="405.912109"/>
      <use xlink:href="#DejaVuSans-20" x="469.388672"/>
      <use xlink:href="#DejaVuSans-61" x="501.175781"/>
      <use xlink:href="#DejaVuSans-73" x="562.455078"/>
      <use xlink:href="#DejaVuSans-20" x="614.554688"/>
      <use xlink:href="#DejaVuSans-46" x="646.341797"/>
      <use xlink:href="#DejaVuSans-4b" x="703.861328"/>
     </g>
    </g>
   </g>
   <g id="PathCollection_11">
    <defs>
     <path id="m3c9aeb6d45" d="M -2.886751 8.660254 
L 2.886751 8.660254 
L 2.886751 2.886751 
L 8.660254 2.886751 
L 8.660254 -2.886751 
L 2.886751 -2.886751 
L 2.886751 -8.660254 
L -2.886751 -8.660254 
L -2.886751 -2.886751 
L -8.660254 -2.886751 
L -8.660254 2.886751 
L -2.886751 2.886751 
z
" style="stroke: #000000; stroke-width: 2"/>
    </defs>
    <g clip-path="url(#p6db0c35456)">
     <use xlink:href="#m3c9aeb6d45" x="682.508173" y="276.265696" style="fill: #1f77b4; stroke: #000000; stroke-width: 2"/>
    </g>
   </g>
   <g id="PathCollection_12">
    <defs>
     <path id="m10923741f6" d="M -2.886751 8.660254 
L 2.886751 8.660254 
L 2.886751 2.886751 
L 8.660254 2.886751 
L 8.660254 -2.886751 
L 2.886751 -2.886751 
L 2.886751 -8.660254 
L -2.886751 -8.660254 
L -2.886751 -2.886751 
L -8.660254 -2.886751 
L -8.660254 2.886751 
L -2.886751 2.886751 
z
" style="stroke: #000000; stroke-width: 2"/>
    </defs>
    <g clip-path="url(#p6db0c35456)">
     <use xlink:href="#m10923741f6" x="636.101242" y="403.328136" style="fill: #ff7f0e; stroke: #000000; stroke-width: 2"/>
    </g>
   </g>
  </g>
 </g>
 <defs>
  <clipPath id="p6db0c35456">
   <rect x="57.280938" y="53.697625" width="935.08" height="617.72"/>
  </clipPath>
 </defs>
</svg>
