<?xml version="1.0" encoding="utf-8" standalone="no"?>
<!DOCTYPE svg PUBLIC "-//W3C//DTD SVG 1.1//EN"
  "http://www.w3.org/Graphics/SVG/1.1/DTD/svg11.dtd">
<svg xmlns:xlink="http://www.w3.org/1999/xlink" width="999.498437pt" height="710.9095pt" viewBox="0 0 999.498437 710.9095" xmlns="http://www.w3.org/2000/svg" version="1.1">
 <metadata>
  <rdf:RDF xmlns:dc="http://purl.org/dc/elements/1.1/" xmlns:cc="http://creativecommons.org/ns#" xmlns:rdf="http://www.w3.org/1999/02/22-rdf-syntax-ns#">
   <cc:Work>
    <dc:type rdf:resource="http://purl.org/dc/dcmitype/StillImage"/>
    <dc:date>2025-11-07T23:18:21.564029</dc:date>
    <dc:format>image/svg+xml</dc:format>
    <dc:creator>
     <cc:Agent>
      <dc:title>Matplotlib v3.9.4, https://matplotlib.org/</dc:title>
     </cc:Agent>
    </dc:creator>
   </cc:Work>
  </rdf:RDF>
 </metadata>
 <defs>
  <style type="text/css">*{stroke-linejoin: round; stroke-linecap: butt}</style>
 </defs>
 <g id="figure_1">
  <g id="patch_1">
   <path d="M 0 710.9095 
L 999.498437 710.9095 
L 999.498437 0 
L 0 0 
z
" style="fill: #ffffff"/>
  </g>
  <g id="axes_1">
   <g id="patch_2">
    <path d="M 50.918438 671.417625 
L 992.298437 671.417625 
L 992.298437 53.697625 
L 50.918438 53.697625 
z
" style="fill: #ffffff"/>
   </g>
   <g id="PathCollection_1">
    <defs>
     <path id="m3d9b8c7016" d="M -7.071068 7.071068 
L 7.071068 7.071068 
L 7.071068 -7.071068 
L -7.071068 -7.071068 
z
" style="stroke: #000000; stroke-opacity: 0.7; stroke-width: 2"/>
    </defs>
    <g clip-path="url(#pc71e1de309)">
     <use xlink:href="#m3d9b8c7016" x="389.043932" y="276.025461" style="fill: #1f77b4; fill-opacity: 0.7; stroke: #000000; stroke-opacity: 0.7; stroke-width: 2"/>
     <use xlink:href="#m3d9b8c7016" x="949.508438" y="325.642703" style="fill: #1f77b4; fill-opacity: 0.7; stroke: #000000; stroke-opacity: 0.7; stroke-width: 2"/>
     <use xlink:href="#m3d9b8c7016" x="830.051987" y="127.432439" style="fill: #1f77b4; fill-opacity: 0.7; stroke: #000000; stroke-opacity: 0.7; stroke-width: 2"/>
    </g>
   </g>
   <g id="PathCollection_2">
    <defs>
     <path id="mf4c879d82e" d="M -7.071068 7.071068 
L 7.071068 7.071068 
L 7.071068 -7.071068 
L -7.071068 -7.071068 
z
" style="stroke: #000000; stroke-opacity: 0.7; stroke-width: 2"/>
    </defs>
    <g clip-path="url(#pc71e1de309)">
     <use xlink:href="#mf4c879d82e" x="495.9258" y="450.72394" style="fill: #ff7f0e; fill-opacity: 0.7; stroke: #000000; stroke-opacity: 0.7; stroke-width: 2"/>
     <use xlink:href="#mf4c879d82e" x="616.822423" y="643.339443" style="fill: #ff7f0e; fill-opacity: 0.7; stroke: #000000; stroke-opacity: 0.7; stroke-width: 2"/>
     <use xlink:href="#mf4c879d82e" x="553.817472" y="96.354003" style="fill: #ff7f0e; fill-opacity: 0.7; stroke: #000000; stroke-opacity: 0.7; stroke-width: 2"/>
    </g>
   </g>
   <g id="PathCollection_3">
    <defs>
     <path id="mfa525a6ae9" d="M 0 6.123724 
C 1.624031 6.123724 3.181764 5.47849 4.330127 4.330127 
C 5.47849 3.181764 6.123724 1.624031 6.123724 0 
C 6.123724 -1.624031 5.47849 -3.181764 4.330127 -4.330127 
C 3.181764 -5.47849 1.624031 -6.123724 0 -6.123724 
C -1.624031 -6.123724 -3.181764 -5.47849 -4.330127 -4.330127 
C -5.47849 -3.181764 -6.123724 -1.624031 -6.123724 0 
C -6.123724 1.624031 -5.47849 3.181764 -4.330127 4.330127 
C -3.181764 5.47849 -1.624031 6.123724 0 6.123724 
z
" style="stroke: #000000; stroke-opacity: 0.8; stroke-width: 1.5"/>
    </defs>
    <g clip-path="url(#pc71e1de309)">
     <use xlink:href="#mfa525a6ae9" x="792.514558" y="489.350512" style="fill: #1f77b4; fill-opacity: 0.8; stroke: #000000; stroke-opacity: 0.8; stroke-width: 1.5"/>
     <use xlink:href="#mfa525a6ae9" x="193.790667" y="439.62686" style="fill: #1f77b4; fill-opacity: 0.8; stroke: #000000; stroke-opacity: 0.8; stroke-width: 1.5"/>
     <use xlink:href="#mfa525a6ae9" x="315.561639" y="617.665906" style="fill: #1f77b4; fill-opacity: 0.8; stroke: #000000; stroke-opacity: 0.8; stroke-width: 1.5"/>
    </g>
   </g>
   <g id="PathCollection_4">
    <defs>
     <path id="m19492c4b73" d="M 0 6.123724 
C 1.624031 6.123724 3.181764 5.47849 4.330127 4.330127 
C 5.47849 3.181764 6.123724 1.624031 6.123724 0 
C 6.123724 -1.624031 5.47849 -3.181764 4.330127 -4.330127 
C 3.181764 -5.47849 1.624031 -6.123724 0 -6.123724 
C -1.624031 -6.123724 -3.181764 -5.47849 -4.330127 -4.330127 
C -5.47849 -3.181764 -6.123724 -1.624031 -6.123724 0 
C -6.123724 1.624031 -5.47849 3.181764 -4.330127 4.330127 
C -3.181764 5.47849 -1.624031 6.123724 0 6.123724 
z
" style="stroke: #000000; stroke-opacity: 0.8; stroke-width: 1.5"/>
    </defs>
    <g clip-path="url(#pc71e1de309)">
     <use xlink:href="#m19492c4b73" x="275.539127" y="81.775807" style="fill: #ff7f0e; fill-opacity: 0.8; stroke: #000000; stroke-opacity: 0.8; stroke-width: 1.5"/>
     <use xlink:href="#m19492c4b73" x="93.708438" y="254.495375" style="fill: #ff7f0e; fill-opacity: 0.8; stroke: #000000; stroke-opacity: 0.8; stroke-width: 1.5"/>
     <use xlink:href="#m19492c4b73" x="655.867707" y="297.765192" style="fill: #ff7f0e; fill-opacity: 0.8; stroke: #000000; stroke-opacity: 0.8; stroke-width: 1.5"/>
    </g>
   </g>
   <g id="patch_3">
    <path d="M 496.089782 438.305926 
Q 496.007791 439.045079 495.9258 439.784232 
" clip-path="url(#pc71e1de309)" style="fill: none; stroke: #808080; stroke-width: 0.5; stroke-linecap: round"/>
   </g>
   <g id="patch_4">
    <path d="M 616.822423 630.93496 
Q 616.822423 631.667347 616.822423 632.399734 
" clip-path="url(#pc71e1de309)" style="fill: none; stroke: #808080; stroke-width: 0.5; stroke-linecap: round"/>
   </g>
   <g id="patch_5">
    <path d="M 553.981453 83.935988 
Q 553.899462 84.675141 553.817472 85.414294 
" clip-path="url(#pc71e1de309)" style="fill: none; stroke: #808080; stroke-width: 0.5; stroke-linecap: round"/>
   </g>
   <g id="patch_6">
    <path d="M 389.043932 263.620978 
Q 389.043932 264.353365 389.043932 265.085752 
" clip-path="url(#pc71e1de309)" style="fill: none; stroke: #808080; stroke-width: 0.5; stroke-linecap: round"/>
   </g>
   <g id="patch_7">
    <path d="M 949.672419 313.224688 
Q 949.590428 313.963841 949.508438 314.702995 
" clip-path="url(#pc71e1de309)" style="fill: none; stroke: #808080; stroke-width: 0.5; stroke-linecap: round"/>
   </g>
   <g id="patch_8">
    <path d="M 830.051987 115.027956 
Q 830.051987 115.760343 830.051987 116.49273 
" clip-path="url(#pc71e1de309)" style="fill: none; stroke: #808080; stroke-width: 0.5; stroke-linecap: round"/>
   </g>
   <g id="patch_9">
    <path d="M 792.678539 476.932497 
Q 792.596548 477.67165 792.514558 478.410803 
" clip-path="url(#pc71e1de309)" style="fill: none; stroke: #808080; stroke-width: 0.5; stroke-linecap: round"/>
   </g>
   <g id="patch_10">
    <path d="M 275.703109 69.357792 
Q 275.621118 70.096945 275.539127 70.836098 
" clip-path="url(#pc71e1de309)" style="fill: none; stroke: #808080; stroke-width: 0.5; stroke-linecap: round"/>
   </g>
   <g id="patch_11">
    <path d="M 93.872419 242.07736 
Q 93.790428 242.816513 93.708438 243.555666 
" clip-path="url(#pc71e1de309)" style="fill: none; stroke: #808080; stroke-width: 0.5; stroke-linecap: round"/>
   </g>
   <g id="patch_12">
    <path d="M 193.954648 427.208845 
Q 193.872657 427.947998 193.790667 428.687151 
" clip-path="url(#pc71e1de309)" style="fill: none; stroke: #808080; stroke-width: 0.5; stroke-linecap: round"/>
   </g>
   <g id="patch_13">
    <path d="M 315.72562 605.247891 
Q 315.64363 605.987044 315.561639 606.726197 
" clip-path="url(#pc71e1de309)" style="fill: none; stroke: #808080; stroke-width: 0.5; stroke-linecap: round"/>
   </g>
   <g id="patch_14">
    <path d="M 656.031689 285.347177 
Q 655.949698 286.08633 655.867707 286.825483 
" clip-path="url(#pc71e1de309)" style="fill: none; stroke: #808080; stroke-width: 0.5; stroke-linecap: round"/>
   </g>
   <g id="matplotlib.axis_1">
    <g id="xtick_1">
     <g id="line2d_1">
      <path d="M 131.631887 671.417625 
L 131.631887 53.697625 
" clip-path="url(#pc71e1de309)" style="fill: none; stroke-dasharray: 2.96,1.28; stroke-dashoffset: 0; stroke: #b0b0b0; stroke-opacity: 0.3; stroke-width: 0.8"/>
     </g>
     <g id="line2d_2">
      <defs>
       <path id="m38892eced8" d="M 0 0 
L 0 3.5 
" style="stroke: #000000; stroke-width: 0.8"/>
      </defs>
      <g>
       <use xlink:href="#m38892eced8" x="131.631887" y="671.417625" style="stroke: #000000; stroke-width: 0.8"/>
      </g>
     </g>
     <g id="text_1">
      <!-- −60 -->
      <g transform="translate(121.079543 686.016062) scale(0.1 -0.1)">
       <defs>
        <path id="DejaVuSans-2212" d="M 678 2272 
L 4684 2272 
L 4684 1741 
L 678 1741 
L 678 2272 
z
" transform="scale(0.015625)"/>
        <path id="DejaVuSans-36" d="M 2113 2584 
Q 1688 2584 1439 2293 
Q 1191 2003 1191 1497 
Q 1191 994 1439 701 
Q 1688 409 2113 409 
Q 2538 409 2786 701 
Q 3034 994 3034 1497 
Q 3034 2003 2786 2293 
Q 2538 2584 2113 2584 
z
M 3366 4563 
L 3366 3988 
Q 3128 4100 2886 4159 
Q 2644 4219 2406 4219 
Q 1781 4219 1451 3797 
Q 1122 3375 1075 2522 
Q 1259 2794 1537 2939 
Q 1816 3084 2150 3084 
Q 2853 3084 3261 2657 
Q 3669 2231 3669 1497 
Q 3669 778 3244 343 
Q 2819 -91 2113 -91 
Q 1303 -91 875 529 
Q 447 1150 447 2328 
Q 447 3434 972 4092 
Q 1497 4750 2381 4750 
Q 2619 4750 2861 4703 
Q 3103 4656 3366 4563 
z
" transform="scale(0.015625)"/>
        <path id="DejaVuSans-30" d="M 2034 4250 
Q 1547 4250 1301 3770 
Q 1056 3291 1056 2328 
Q 1056 1369 1301 889 
Q 1547 409 2034 409 
Q 2525 409 2770 889 
Q 3016 1369 3016 2328 
Q 3016 3291 2770 3770 
Q 2525 4250 2034 4250 
z
M 2034 4750 
Q 2819 4750 3233 4129 
Q 3647 3509 3647 2328 
Q 3647 1150 3233 529 
Q 2819 -91 2034 -91 
Q 1250 -91 836 529 
Q 422 1150 422 2328 
Q 422 3509 836 4129 
Q 1250 4750 2034 4750 
z
" transform="scale(0.015625)"/>
       </defs>
       <use xlink:href="#DejaVuSans-2212"/>
       <use xlink:href="#DejaVuSans-36" x="83.789062"/>
       <use xlink:href="#DejaVuSans-30" x="147.412109"/>
      </g>
     </g>
    </g>
    <g id="xtick_2">
     <g id="line2d_3">
      <path d="M 266.183418 671.417625 
L 266.183418 53.697625 
" clip-path="url(#pc71e1de309)" style="fill: none; stroke-dasharray: 2.96,1.28; stroke-dashoffset: 0; stroke: #b0b0b0; stroke-opacity: 0.3; stroke-width: 0.8"/>
     </g>
     <g id="line2d_4">
      <g>
       <use xlink:href="#m38892eced8" x="266.183418" y="671.417625" style="stroke: #000000; stroke-width: 0.8"/>
      </g>
     </g>
     <g id="text_2">
      <!-- −40 -->
      <g transform="translate(255.631074 686.016062) scale(0.1 -0.1)">
       <defs>
        <path id="DejaVuSans-34" d="M 2419 4116 
L 825 1625 
L 2419 1625 
L 2419 4116 
z
M 2253 4666 
L 3047 4666 
L 3047 1625 
L 3713 1625 
L 3713 1100 
L 3047 1100 
L 3047 0 
L 2419 0 
L 2419 1100 
L 313 1100 
L 313 1709 
L 2253 4666 
z
" transform="scale(0.015625)"/>
       </defs>
       <use xlink:href="#DejaVuSans-2212"/>
       <use xlink:href="#DejaVuSans-34" x="83.789062"/>
       <use xlink:href="#DejaVuSans-30" x="147.412109"/>
      </g>
     </g>
    </g>
    <g id="xtick_3">
     <g id="line2d_5">
      <path d="M 400.734949 671.417625 
L 400.734949 53.697625 
" clip-path="url(#pc71e1de309)" style="fill: none; stroke-dasharray: 2.96,1.28; stroke-dashoffset: 0; stroke: #b0b0b0; stroke-opacity: 0.3; stroke-width: 0.8"/>
     </g>
     <g id="line2d_6">
      <g>
       <use xlink:href="#m38892eced8" x="400.734949" y="671.417625" style="stroke: #000000; stroke-width: 0.8"/>
      </g>
     </g>
     <g id="text_3">
      <!-- −20 -->
      <g transform="translate(390.182605 686.016062) scale(0.1 -0.1)">
       <defs>
        <path id="DejaVuSans-32" d="M 1228 531 
L 3431 531 
L 3431 0 
L 469 0 
L 469 531 
Q 828 903 1448 1529 
Q 2069 2156 2228 2338 
Q 2531 2678 2651 2914 
Q 2772 3150 2772 3378 
Q 2772 3750 2511 3984 
Q 2250 4219 1831 4219 
Q 1534 4219 1204 4116 
Q 875 4013 500 3803 
L 500 4441 
Q 881 4594 1212 4672 
Q 1544 4750 1819 4750 
Q 2544 4750 2975 4387 
Q 3406 4025 3406 3419 
Q 3406 3131 3298 2873 
Q 3191 2616 2906 2266 
Q 2828 2175 2409 1742 
Q 1991 1309 1228 531 
z
" transform="scale(0.015625)"/>
       </defs>
       <use xlink:href="#DejaVuSans-2212"/>
       <use xlink:href="#DejaVuSans-32" x="83.789062"/>
       <use xlink:href="#DejaVuSans-30" x="147.412109"/>
      </g>
     </g>
    </g>
    <g id="xtick_4">
     <g id="line2d_7">
      <path d="M 535.28648 671.417625 
L 535.28648 53.697625 
" clip-path="url(#pc71e1de309)" style="fill: none; stroke-dasharray: 2.96,1.28; stroke-dashoffset: 0; stroke: #b0b0b0; stroke-opacity: 0.3; stroke-width: 0.8"/>
     </g>
     <g id="line2d_8">
      <g>
       <use xlink:href="#m38892eced8" x="535.28648" y="671.417625" style="stroke: #000000; stroke-width: 0.8"/>
      </g>
     </g>
     <g id="text_4">
      <!-- 0 -->
      <g transform="translate(532.10523 686.016062) scale(0.1 -0.1)">
       <use xlink:href="#DejaVuSans-30"/>
      </g>
     </g>
    </g>
    <g id="xtick_5">
     <g id="line2d_9">
      <path d="M 669.838011 671.417625 
L 669.838011 53.697625 
" clip-path="url(#pc71e1de309)" style="fill: none; stroke-dasharray: 2.96,1.28; stroke-dashoffset: 0; stroke: #b0b0b0; stroke-opacity: 0.3; stroke-width: 0.8"/>
     </g>
     <g id="line2d_10">
      <g>
       <use xlink:href="#m38892eced8" x="669.838011" y="671.417625" style="stroke: #000000; stroke-width: 0.8"/>
      </g>
     </g>
     <g id="text_5">
      <!-- 20 -->
      <g transform="translate(663.475511 686.016062) scale(0.1 -0.1)">
       <use xlink:href="#DejaVuSans-32"/>
       <use xlink:href="#DejaVuSans-30" x="63.623047"/>
      </g>
     </g>
    </g>
    <g id="xtick_6">
     <g id="line2d_11">
      <path d="M 804.389542 671.417625 
L 804.389542 53.697625 
" clip-path="url(#pc71e1de309)" style="fill: none; stroke-dasharray: 2.96,1.28; stroke-dashoffset: 0; stroke: #b0b0b0; stroke-opacity: 0.3; stroke-width: 0.8"/>
     </g>
     <g id="line2d_12">
      <g>
       <use xlink:href="#m38892eced8" x="804.389542" y="671.417625" style="stroke: #000000; stroke-width: 0.8"/>
      </g>
     </g>
     <g id="text_6">
      <!-- 40 -->
      <g transform="translate(798.027042 686.016062) scale(0.1 -0.1)">
       <use xlink:href="#DejaVuSans-34"/>
       <use xlink:href="#DejaVuSans-30" x="63.623047"/>
      </g>
     </g>
    </g>
    <g id="xtick_7">
     <g id="line2d_13">
      <path d="M 938.941073 671.417625 
L 938.941073 53.697625 
" clip-path="url(#pc71e1de309)" style="fill: none; stroke-dasharray: 2.96,1.28; stroke-dashoffset: 0; stroke: #b0b0b0; stroke-opacity: 0.3; stroke-width: 0.8"/>
     </g>
     <g id="line2d_14">
      <g>
       <use xlink:href="#m38892eced8" x="938.941073" y="671.417625" style="stroke: #000000; stroke-width: 0.8"/>
      </g>
     </g>
     <g id="text_7">
      <!-- 60 -->
      <g transform="translate(932.578573 686.016062) scale(0.1 -0.1)">
       <use xlink:href="#DejaVuSans-36"/>
       <use xlink:href="#DejaVuSans-30" x="63.623047"/>
      </g>
     </g>
    </g>
    <g id="text_8">
     <!-- Dimension 1 -->
     <g transform="translate(479.692813 701.213875) scale(0.12 -0.12)">
      <defs>
       <path id="DejaVuSans-Bold-44" d="M 1791 3756 
L 1791 909 
L 2222 909 
Q 2959 909 3348 1275 
Q 3738 1641 3738 2338 
Q 3738 3031 3350 3393 
Q 2963 3756 2222 3756 
L 1791 3756 
z
M 588 4666 
L 1856 4666 
Q 2919 4666 3439 4514 
Q 3959 4363 4331 4000 
Q 4659 3684 4818 3271 
Q 4978 2859 4978 2338 
Q 4978 1809 4818 1395 
Q 4659 981 4331 666 
Q 3956 303 3431 151 
Q 2906 0 1856 0 
L 588 0 
L 588 4666 
z
" transform="scale(0.015625)"/>
       <path id="DejaVuSans-Bold-69" d="M 538 3500 
L 1656 3500 
L 1656 0 
L 538 0 
L 538 3500 
z
M 538 4863 
L 1656 4863 
L 1656 3950 
L 538 3950 
L 538 4863 
z
" transform="scale(0.015625)"/>
       <path id="DejaVuSans-Bold-6d" d="M 3781 2919 
Q 3994 3244 4286 3414 
Q 4578 3584 4928 3584 
Q 5531 3584 5847 3212 
Q 6163 2841 6163 2131 
L 6163 0 
L 5038 0 
L 5038 1825 
Q 5041 1866 5042 1909 
Q 5044 1953 5044 2034 
Q 5044 2406 4934 2573 
Q 4825 2741 4581 2741 
Q 4263 2741 4089 2478 
Q 3916 2216 3909 1719 
L 3909 0 
L 2784 0 
L 2784 1825 
Q 2784 2406 2684 2573 
Q 2584 2741 2328 2741 
Q 2006 2741 1831 2477 
Q 1656 2213 1656 1722 
L 1656 0 
L 531 0 
L 531 3500 
L 1656 3500 
L 1656 2988 
Q 1863 3284 2130 3434 
Q 2397 3584 2719 3584 
Q 3081 3584 3359 3409 
Q 3638 3234 3781 2919 
z
" transform="scale(0.015625)"/>
       <path id="DejaVuSans-Bold-65" d="M 4031 1759 
L 4031 1441 
L 1416 1441 
Q 1456 1047 1700 850 
Q 1944 653 2381 653 
Q 2734 653 3104 758 
Q 3475 863 3866 1075 
L 3866 213 
Q 3469 63 3072 -14 
Q 2675 -91 2278 -91 
Q 1328 -91 801 392 
Q 275 875 275 1747 
Q 275 2603 792 3093 
Q 1309 3584 2216 3584 
Q 3041 3584 3536 3087 
Q 4031 2591 4031 1759 
z
M 2881 2131 
Q 2881 2450 2695 2645 
Q 2509 2841 2209 2841 
Q 1884 2841 1681 2658 
Q 1478 2475 1428 2131 
L 2881 2131 
z
" transform="scale(0.015625)"/>
       <path id="DejaVuSans-Bold-6e" d="M 4056 2131 
L 4056 0 
L 2931 0 
L 2931 347 
L 2931 1631 
Q 2931 2084 2911 2256 
Q 2891 2428 2841 2509 
Q 2775 2619 2662 2680 
Q 2550 2741 2406 2741 
Q 2056 2741 1856 2470 
Q 1656 2200 1656 1722 
L 1656 0 
L 538 0 
L 538 3500 
L 1656 3500 
L 1656 2988 
Q 1909 3294 2193 3439 
Q 2478 3584 2822 3584 
Q 3428 3584 3742 3212 
Q 4056 2841 4056 2131 
z
" transform="scale(0.015625)"/>
       <path id="DejaVuSans-Bold-73" d="M 3272 3391 
L 3272 2541 
Q 2913 2691 2578 2766 
Q 2244 2841 1947 2841 
Q 1628 2841 1473 2761 
Q 1319 2681 1319 2516 
Q 1319 2381 1436 2309 
Q 1553 2238 1856 2203 
L 2053 2175 
Q 2913 2066 3209 1816 
Q 3506 1566 3506 1031 
Q 3506 472 3093 190 
Q 2681 -91 1863 -91 
Q 1516 -91 1145 -36 
Q 775 19 384 128 
L 384 978 
Q 719 816 1070 734 
Q 1422 653 1784 653 
Q 2113 653 2278 743 
Q 2444 834 2444 1013 
Q 2444 1163 2330 1236 
Q 2216 1309 1875 1350 
L 1678 1375 
Q 931 1469 631 1722 
Q 331 1975 331 2491 
Q 331 3047 712 3315 
Q 1094 3584 1881 3584 
Q 2191 3584 2531 3537 
Q 2872 3491 3272 3391 
z
" transform="scale(0.015625)"/>
       <path id="DejaVuSans-Bold-6f" d="M 2203 2784 
Q 1831 2784 1636 2517 
Q 1441 2250 1441 1747 
Q 1441 1244 1636 976 
Q 1831 709 2203 709 
Q 2569 709 2762 976 
Q 2956 1244 2956 1747 
Q 2956 2250 2762 2517 
Q 2569 2784 2203 2784 
z
M 2203 3584 
Q 3106 3584 3614 3096 
Q 4122 2609 4122 1747 
Q 4122 884 3614 396 
Q 3106 -91 2203 -91 
Q 1297 -91 786 396 
Q 275 884 275 1747 
Q 275 2609 786 3096 
Q 1297 3584 2203 3584 
z
" transform="scale(0.015625)"/>
       <path id="DejaVuSans-Bold-20" transform="scale(0.015625)"/>
       <path id="DejaVuSans-Bold-31" d="M 750 831 
L 1813 831 
L 1813 3847 
L 722 3622 
L 722 4441 
L 1806 4666 
L 2950 4666 
L 2950 831 
L 4013 831 
L 4013 0 
L 750 0 
L 750 831 
z
" transform="scale(0.015625)"/>
      </defs>
      <use xlink:href="#DejaVuSans-Bold-44"/>
      <use xlink:href="#DejaVuSans-Bold-69" x="83.007812"/>
      <use xlink:href="#DejaVuSans-Bold-6d" x="117.285156"/>
      <use xlink:href="#DejaVuSans-Bold-65" x="221.484375"/>
      <use xlink:href="#DejaVuSans-Bold-6e" x="289.306641"/>
      <use xlink:href="#DejaVuSans-Bold-73" x="360.498047"/>
      <use xlink:href="#DejaVuSans-Bold-69" x="420.019531"/>
      <use xlink:href="#DejaVuSans-Bold-6f" x="454.296875"/>
      <use xlink:href="#DejaVuSans-Bold-6e" x="522.998047"/>
      <use xlink:href="#DejaVuSans-Bold-20" x="594.189453"/>
      <use xlink:href="#DejaVuSans-Bold-31" x="629.003906"/>
     </g>
    </g>
   </g>
   <g id="matplotlib.axis_2">
    <g id="ytick_1">
     <g id="line2d_15">
      <path d="M 50.918438 649.804329 
L 992.298437 649.804329 
" clip-path="url(#pc71e1de309)" style="fill: none; stroke-dasharray: 2.96,1.28; stroke-dashoffset: 0; stroke: #b0b0b0; stroke-opacity: 0.3; stroke-width: 0.8"/>
     </g>
     <g id="line2d_16">
      <defs>
       <path id="m3148b03e2b" d="M 0 0 
L -3.5 0 
" style="stroke: #000000; stroke-width: 0.8"/>
      </defs>
      <g>
       <use xlink:href="#m3148b03e2b" x="50.918438" y="649.804329" style="stroke: #000000; stroke-width: 0.8"/>
      </g>
     </g>
     <g id="text_9">
      <!-- −60 -->
      <g transform="translate(22.81375 653.603548) scale(0.1 -0.1)">
       <use xlink:href="#DejaVuSans-2212"/>
       <use xlink:href="#DejaVuSans-36" x="83.789062"/>
       <use xlink:href="#DejaVuSans-30" x="147.412109"/>
      </g>
     </g>
    </g>
    <g id="ytick_2">
     <g id="line2d_17">
      <path d="M 50.918438 554.361491 
L 992.298437 554.361491 
" clip-path="url(#pc71e1de309)" style="fill: none; stroke-dasharray: 2.96,1.28; stroke-dashoffset: 0; stroke: #b0b0b0; stroke-opacity: 0.3; stroke-width: 0.8"/>
     </g>
     <g id="line2d_18">
      <g>
       <use xlink:href="#m3148b03e2b" x="50.918438" y="554.361491" style="stroke: #000000; stroke-width: 0.8"/>
      </g>
     </g>
     <g id="text_10">
      <!-- −40 -->
      <g transform="translate(22.81375 558.160709) scale(0.1 -0.1)">
       <use xlink:href="#DejaVuSans-2212"/>
       <use xlink:href="#DejaVuSans-34" x="83.789062"/>
       <use xlink:href="#DejaVuSans-30" x="147.412109"/>
      </g>
     </g>
    </g>
    <g id="ytick_3">
     <g id="line2d_19">
      <path d="M 50.918438 458.918652 
L 992.298437 458.918652 
" clip-path="url(#pc71e1de309)" style="fill: none; stroke-dasharray: 2.96,1.28; stroke-dashoffset: 0; stroke: #b0b0b0; stroke-opacity: 0.3; stroke-width: 0.8"/>
     </g>
     <g id="line2d_20">
      <g>
       <use xlink:href="#m3148b03e2b" x="50.918438" y="458.918652" style="stroke: #000000; stroke-width: 0.8"/>
      </g>
     </g>
     <g id="text_11">
      <!-- −20 -->
      <g transform="translate(22.81375 462.717871) scale(0.1 -0.1)">
       <use xlink:href="#DejaVuSans-2212"/>
       <use xlink:href="#DejaVuSans-32" x="83.789062"/>
       <use xlink:href="#DejaVuSans-30" x="147.412109"/>
      </g>
     </g>
    </g>
    <g id="ytick_4">
     <g id="line2d_21">
      <path d="M 50.918438 363.475813 
L 992.298437 363.475813 
" clip-path="url(#pc71e1de309)" style="fill: none; stroke-dasharray: 2.96,1.28; stroke-dashoffset: 0; stroke: #b0b0b0; stroke-opacity: 0.3; stroke-width: 0.8"/>
     </g>
     <g id="line2d_22">
      <g>
       <use xlink:href="#m3148b03e2b" x="50.918438" y="363.475813" style="stroke: #000000; stroke-width: 0.8"/>
      </g>
     </g>
     <g id="text_12">
      <!-- 0 -->
      <g transform="translate(37.555937 367.275032) scale(0.1 -0.1)">
       <use xlink:href="#DejaVuSans-30"/>
      </g>
     </g>
    </g>
    <g id="ytick_5">
     <g id="line2d_23">
      <path d="M 50.918438 268.032975 
L 992.298437 268.032975 
" clip-path="url(#pc71e1de309)" style="fill: none; stroke-dasharray: 2.96,1.28; stroke-dashoffset: 0; stroke: #b0b0b0; stroke-opacity: 0.3; stroke-width: 0.8"/>
     </g>
     <g id="line2d_24">
      <g>
       <use xlink:href="#m3148b03e2b" x="50.918438" y="268.032975" style="stroke: #000000; stroke-width: 0.8"/>
      </g>
     </g>
     <g id="text_13">
      <!-- 20 -->
      <g transform="translate(31.193438 271.832194) scale(0.1 -0.1)">
       <use xlink:href="#DejaVuSans-32"/>
       <use xlink:href="#DejaVuSans-30" x="63.623047"/>
      </g>
     </g>
    </g>
    <g id="ytick_6">
     <g id="line2d_25">
      <path d="M 50.918438 172.590136 
L 992.298437 172.590136 
" clip-path="url(#pc71e1de309)" style="fill: none; stroke-dasharray: 2.96,1.28; stroke-dashoffset: 0; stroke: #b0b0b0; stroke-opacity: 0.3; stroke-width: 0.8"/>
     </g>
     <g id="line2d_26">
      <g>
       <use xlink:href="#m3148b03e2b" x="50.918438" y="172.590136" style="stroke: #000000; stroke-width: 0.8"/>
      </g>
     </g>
     <g id="text_14">
      <!-- 40 -->
      <g transform="translate(31.193438 176.389355) scale(0.1 -0.1)">
       <use xlink:href="#DejaVuSans-34"/>
       <use xlink:href="#DejaVuSans-30" x="63.623047"/>
      </g>
     </g>
    </g>
    <g id="ytick_7">
     <g id="line2d_27">
      <path d="M 50.918438 77.147298 
L 992.298437 77.147298 
" clip-path="url(#pc71e1de309)" style="fill: none; stroke-dasharray: 2.96,1.28; stroke-dashoffset: 0; stroke: #b0b0b0; stroke-opacity: 0.3; stroke-width: 0.8"/>
     </g>
     <g id="line2d_28">
      <g>
       <use xlink:href="#m3148b03e2b" x="50.918438" y="77.147298" style="stroke: #000000; stroke-width: 0.8"/>
      </g>
     </g>
     <g id="text_15">
      <!-- 60 -->
      <g transform="translate(31.193438 80.946517) scale(0.1 -0.1)">
       <use xlink:href="#DejaVuSans-36"/>
       <use xlink:href="#DejaVuSans-30" x="63.623047"/>
      </g>
     </g>
    </g>
    <g id="text_16">
     <!-- Dimension 2 -->
     <g transform="translate(16.318125 404.47325) rotate(-90) scale(0.12 -0.12)">
      <defs>
       <path id="DejaVuSans-Bold-32" d="M 1844 884 
L 3897 884 
L 3897 0 
L 506 0 
L 506 884 
L 2209 2388 
Q 2438 2594 2547 2791 
Q 2656 2988 2656 3200 
Q 2656 3528 2436 3728 
Q 2216 3928 1850 3928 
Q 1569 3928 1234 3808 
Q 900 3688 519 3450 
L 519 4475 
Q 925 4609 1322 4679 
Q 1719 4750 2100 4750 
Q 2938 4750 3402 4381 
Q 3866 4013 3866 3353 
Q 3866 2972 3669 2642 
Q 3472 2313 2841 1759 
L 1844 884 
z
" transform="scale(0.015625)"/>
      </defs>
      <use xlink:href="#DejaVuSans-Bold-44"/>
      <use xlink:href="#DejaVuSans-Bold-69" x="83.007812"/>
      <use xlink:href="#DejaVuSans-Bold-6d" x="117.285156"/>
      <use xlink:href="#DejaVuSans-Bold-65" x="221.484375"/>
      <use xlink:href="#DejaVuSans-Bold-6e" x="289.306641"/>
      <use xlink:href="#DejaVuSans-Bold-73" x="360.498047"/>
      <use xlink:href="#DejaVuSans-Bold-69" x="420.019531"/>
      <use xlink:href="#DejaVuSans-Bold-6f" x="454.296875"/>
      <use xlink:href="#DejaVuSans-Bold-6e" x="522.998047"/>
      <use xlink:href="#DejaVuSans-Bold-20" x="594.189453"/>
      <use xlink:href="#DejaVuSans-Bold-32" x="629.003906"/>
     </g>
    </g>
   </g>
   <g id="patch_15">
    <path d="M 50.918438 671.417625 
L 50.918438 53.697625 
" style="fill: none; stroke: #000000; stroke-width: 0.8; stroke-linejoin: miter; stroke-linecap: square"/>
   </g>
   <g id="patch_16">
    <path d="M 992.298437 671.417625 
L 992.298437 53.697625 
" style="fill: none; stroke: #000000; stroke-width: 0.8; stroke-linejoin: miter; stroke-linecap: square"/>
   </g>
   <g id="patch_17">
    <path d="M 50.918438 671.417625 
L 992.298438 671.417625 
" style="fill: none; stroke: #000000; stroke-width: 0.8; stroke-linejoin: miter; stroke-linecap: square"/>
   </g>
   <g id="patch_18">
    <path d="M 50.918438 53.697625 
L 992.298438 53.697625 
" style="fill: none; stroke: #000000; stroke-width: 0.8; stroke-linejoin: miter; stroke-linecap: square"/>
   </g>
   <g id="text_17">
    <g id="patch_19">
     <path d="M 487.290697 439.017609 
L 506.296166 439.017609 
Q 508.996166 439.017609 508.996166 436.317609 
L 508.996166 427.607296 
Q 508.996166 424.907296 506.296166 424.907296 
L 487.290697 424.907296 
Q 484.590697 424.907296 484.590697 427.607296 
L 484.590697 436.317609 
Q 484.590697 439.017609 487.290697 439.017609 
z
" style="fill: #ffffff; opacity: 0.8; stroke: #808080; stroke-width: 0.5; stroke-linejoin: miter"/>
    </g>
    <!-- S10 -->
    <g transform="translate(487.290697 434.44589) scale(0.09 -0.09)">
     <defs>
      <path id="DejaVuSans-Bold-53" d="M 3834 4519 
L 3834 3531 
Q 3450 3703 3084 3790 
Q 2719 3878 2394 3878 
Q 1963 3878 1756 3759 
Q 1550 3641 1550 3391 
Q 1550 3203 1689 3098 
Q 1828 2994 2194 2919 
L 2706 2816 
Q 3484 2659 3812 2340 
Q 4141 2022 4141 1434 
Q 4141 663 3683 286 
Q 3225 -91 2284 -91 
Q 1841 -91 1394 -6 
Q 947 78 500 244 
L 500 1259 
Q 947 1022 1364 901 
Q 1781 781 2169 781 
Q 2563 781 2772 912 
Q 2981 1044 2981 1288 
Q 2981 1506 2839 1625 
Q 2697 1744 2272 1838 
L 1806 1941 
Q 1106 2091 782 2419 
Q 459 2747 459 3303 
Q 459 4000 909 4375 
Q 1359 4750 2203 4750 
Q 2588 4750 2994 4692 
Q 3400 4634 3834 4519 
z
" transform="scale(0.015625)"/>
      <path id="DejaVuSans-Bold-30" d="M 2944 2338 
Q 2944 3213 2780 3570 
Q 2616 3928 2228 3928 
Q 1841 3928 1675 3570 
Q 1509 3213 1509 2338 
Q 1509 1453 1675 1090 
Q 1841 728 2228 728 
Q 2613 728 2778 1090 
Q 2944 1453 2944 2338 
z
M 4147 2328 
Q 4147 1169 3647 539 
Q 3147 -91 2228 -91 
Q 1306 -91 806 539 
Q 306 1169 306 2328 
Q 306 3491 806 4120 
Q 1306 4750 2228 4750 
Q 3147 4750 3647 4120 
Q 4147 3491 4147 2328 
z
" transform="scale(0.015625)"/>
     </defs>
     <use xlink:href="#DejaVuSans-Bold-53"/>
     <use xlink:href="#DejaVuSans-Bold-31" x="72.021484"/>
     <use xlink:href="#DejaVuSans-Bold-30" x="141.601562"/>
    </g>
   </g>
   <g id="text_18">
    <g id="patch_20">
     <path d="M 610.450704 631.633111 
L 623.194142 631.633111 
Q 625.894142 631.633111 625.894142 628.933111 
L 625.894142 620.222799 
Q 625.894142 617.522799 623.194142 617.522799 
L 610.450704 617.522799 
Q 607.750704 617.522799 607.750704 620.222799 
L 607.750704 628.933111 
Q 607.750704 631.633111 610.450704 631.633111 
z
" style="fill: #ffffff; opacity: 0.8; stroke: #808080; stroke-width: 0.5; stroke-linejoin: miter"/>
    </g>
    <!-- S5 -->
    <g transform="translate(610.450704 627.061393) scale(0.09 -0.09)">
     <defs>
      <path id="DejaVuSans-Bold-35" d="M 678 4666 
L 3669 4666 
L 3669 3781 
L 1638 3781 
L 1638 3059 
Q 1775 3097 1914 3117 
Q 2053 3138 2203 3138 
Q 3056 3138 3531 2711 
Q 4006 2284 4006 1522 
Q 4006 766 3489 337 
Q 2972 -91 2053 -91 
Q 1656 -91 1267 -14 
Q 878 63 494 219 
L 494 1166 
Q 875 947 1217 837 
Q 1559 728 1863 728 
Q 2300 728 2551 942 
Q 2803 1156 2803 1522 
Q 2803 1891 2551 2103 
Q 2300 2316 1863 2316 
Q 1603 2316 1309 2248 
Q 1016 2181 678 2041 
L 678 4666 
z
" transform="scale(0.015625)"/>
     </defs>
     <use xlink:href="#DejaVuSans-Bold-53"/>
     <use xlink:href="#DejaVuSans-Bold-35" x="72.021484"/>
    </g>
   </g>
   <g id="text_19">
    <g id="patch_21">
     <path d="M 545.182369 84.647671 
L 564.187837 84.647671 
Q 566.887837 84.647671 566.887837 81.947671 
L 566.887837 73.237359 
Q 566.887837 70.537359 564.187837 70.537359 
L 545.182369 70.537359 
Q 542.482369 70.537359 542.482369 73.237359 
L 542.482369 81.947671 
Q 542.482369 84.647671 545.182369 84.647671 
z
" style="fill: #ffffff; opacity: 0.8; stroke: #808080; stroke-width: 0.5; stroke-linejoin: miter"/>
    </g>
    <!-- S12 -->
    <g transform="translate(545.182369 80.075953) scale(0.09 -0.09)">
     <use xlink:href="#DejaVuSans-Bold-53"/>
     <use xlink:href="#DejaVuSans-Bold-31" x="72.021484"/>
     <use xlink:href="#DejaVuSans-Bold-32" x="141.601562"/>
    </g>
   </g>
   <g id="text_20">
    <g id="patch_22">
     <path d="M 382.672214 264.319129 
L 395.415651 264.319129 
Q 398.115651 264.319129 398.115651 261.619129 
L 398.115651 252.908817 
Q 398.115651 250.208817 395.415651 250.208817 
L 382.672214 250.208817 
Q 379.972214 250.208817 379.972214 252.908817 
L 379.972214 261.619129 
Q 379.972214 264.319129 382.672214 264.319129 
z
" style="fill: #ffffff; opacity: 0.8; stroke: #808080; stroke-width: 0.5; stroke-linejoin: miter"/>
    </g>
    <!-- S8 -->
    <g transform="translate(382.672214 259.747411) scale(0.09 -0.09)">
     <defs>
      <path id="DejaVuSans-Bold-38" d="M 2228 2088 
Q 1891 2088 1709 1903 
Q 1528 1719 1528 1375 
Q 1528 1031 1709 848 
Q 1891 666 2228 666 
Q 2563 666 2741 848 
Q 2919 1031 2919 1375 
Q 2919 1722 2741 1905 
Q 2563 2088 2228 2088 
z
M 1350 2484 
Q 925 2613 709 2878 
Q 494 3144 494 3541 
Q 494 4131 934 4440 
Q 1375 4750 2228 4750 
Q 3075 4750 3515 4442 
Q 3956 4134 3956 3541 
Q 3956 3144 3739 2878 
Q 3522 2613 3097 2484 
Q 3572 2353 3814 2058 
Q 4056 1763 4056 1313 
Q 4056 619 3595 264 
Q 3134 -91 2228 -91 
Q 1319 -91 855 264 
Q 391 619 391 1313 
Q 391 1763 633 2058 
Q 875 2353 1350 2484 
z
M 1631 3419 
Q 1631 3141 1786 2991 
Q 1941 2841 2228 2841 
Q 2509 2841 2662 2991 
Q 2816 3141 2816 3419 
Q 2816 3697 2662 3845 
Q 2509 3994 2228 3994 
Q 1941 3994 1786 3844 
Q 1631 3694 1631 3419 
z
" transform="scale(0.015625)"/>
     </defs>
     <use xlink:href="#DejaVuSans-Bold-53"/>
     <use xlink:href="#DejaVuSans-Bold-38" x="72.021484"/>
    </g>
   </g>
   <g id="text_21">
    <g id="patch_23">
     <path d="M 940.873334 313.936372 
L 959.878803 313.936372 
Q 962.578803 313.936372 962.578803 311.236372 
L 962.578803 302.526059 
Q 962.578803 299.826059 959.878803 299.826059 
L 940.873334 299.826059 
Q 938.173334 299.826059 938.173334 302.526059 
L 938.173334 311.236372 
Q 938.173334 313.936372 940.873334 313.936372 
z
" style="fill: #ffffff; opacity: 0.8; stroke: #808080; stroke-width: 0.5; stroke-linejoin: miter"/>
    </g>
    <!-- S11 -->
    <g transform="translate(940.873334 309.364653) scale(0.09 -0.09)">
     <use xlink:href="#DejaVuSans-Bold-53"/>
     <use xlink:href="#DejaVuSans-Bold-31" x="72.021484"/>
     <use xlink:href="#DejaVuSans-Bold-31" x="141.601562"/>
    </g>
   </g>
   <g id="text_22">
    <g id="patch_24">
     <path d="M 823.680269 115.726108 
L 836.423706 115.726108 
Q 839.123706 115.726108 839.123706 113.026108 
L 839.123706 104.315795 
Q 839.123706 101.615795 836.423706 101.615795 
L 823.680269 101.615795 
Q 820.980269 101.615795 820.980269 104.315795 
L 820.980269 113.026108 
Q 820.980269 115.726108 823.680269 115.726108 
z
" style="fill: #ffffff; opacity: 0.8; stroke: #808080; stroke-width: 0.5; stroke-linejoin: miter"/>
    </g>
    <!-- S6 -->
    <g transform="translate(823.680269 111.154389) scale(0.09 -0.09)">
     <defs>
      <path id="DejaVuSans-Bold-36" d="M 2316 2303 
Q 2000 2303 1842 2098 
Q 1684 1894 1684 1484 
Q 1684 1075 1842 870 
Q 2000 666 2316 666 
Q 2634 666 2792 870 
Q 2950 1075 2950 1484 
Q 2950 1894 2792 2098 
Q 2634 2303 2316 2303 
z
M 3803 4544 
L 3803 3681 
Q 3506 3822 3243 3889 
Q 2981 3956 2731 3956 
Q 2194 3956 1894 3657 
Q 1594 3359 1544 2772 
Q 1750 2925 1990 3001 
Q 2231 3078 2516 3078 
Q 3231 3078 3670 2659 
Q 4109 2241 4109 1563 
Q 4109 813 3618 361 
Q 3128 -91 2303 -91 
Q 1394 -91 895 523 
Q 397 1138 397 2266 
Q 397 3422 980 4083 
Q 1563 4744 2578 4744 
Q 2900 4744 3203 4694 
Q 3506 4644 3803 4544 
z
" transform="scale(0.015625)"/>
     </defs>
     <use xlink:href="#DejaVuSans-Bold-53"/>
     <use xlink:href="#DejaVuSans-Bold-36" x="72.021484"/>
    </g>
   </g>
   <g id="text_23">
    <g id="patch_25">
     <path d="M 771.831408 477.64418 
L 814.93297 477.64418 
Q 817.63297 477.64418 817.63297 474.94418 
L 817.63297 466.233868 
Q 817.63297 463.533868 814.93297 463.533868 
L 771.831408 463.533868 
Q 769.131408 463.533868 769.131408 466.233868 
L 769.131408 474.94418 
Q 769.131408 477.64418 771.831408 477.64418 
z
" style="fill: #ffffff; opacity: 0.9; stroke: #ff0000; stroke-linejoin: miter"/>
    </g>
    <!-- Q2 (FK)* -->
    <g style="fill: #ff0000" transform="translate(771.831408 473.072462) scale(0.09 -0.09)">
     <defs>
      <path id="DejaVuSans-Bold-51" d="M 2847 -84 
L 2753 -84 
Q 1600 -84 959 553 
Q 319 1191 319 2328 
Q 319 3463 958 4106 
Q 1597 4750 2719 4750 
Q 3853 4750 4486 4112 
Q 5119 3475 5119 2328 
Q 5119 1541 4783 972 
Q 4447 403 3816 116 
L 4756 -934 
L 3609 -934 
L 2847 -84 
z
M 2719 3878 
Q 2169 3878 1866 3472 
Q 1563 3066 1563 2328 
Q 1563 1578 1859 1179 
Q 2156 781 2719 781 
Q 3272 781 3575 1187 
Q 3878 1594 3878 2328 
Q 3878 3066 3575 3472 
Q 3272 3878 2719 3878 
z
" transform="scale(0.015625)"/>
      <path id="DejaVuSans-Bold-28" d="M 2413 -844 
L 1484 -844 
Q 1006 -72 778 623 
Q 550 1319 550 2003 
Q 550 2688 779 3389 
Q 1009 4091 1484 4856 
L 2413 4856 
Q 2013 4116 1813 3408 
Q 1613 2700 1613 2009 
Q 1613 1319 1811 609 
Q 2009 -100 2413 -844 
z
" transform="scale(0.015625)"/>
      <path id="DejaVuSans-Bold-46" d="M 588 4666 
L 3834 4666 
L 3834 3756 
L 1791 3756 
L 1791 2888 
L 3713 2888 
L 3713 1978 
L 1791 1978 
L 1791 0 
L 588 0 
L 588 4666 
z
" transform="scale(0.015625)"/>
      <path id="DejaVuSans-Bold-4b" d="M 588 4666 
L 1791 4666 
L 1791 2963 
L 3525 4666 
L 4922 4666 
L 2675 2456 
L 5153 0 
L 3647 0 
L 1791 1838 
L 1791 0 
L 588 0 
L 588 4666 
z
" transform="scale(0.015625)"/>
      <path id="DejaVuSans-Bold-29" d="M 513 -844 
Q 913 -100 1113 609 
Q 1313 1319 1313 2009 
Q 1313 2700 1113 3408 
Q 913 4116 513 4856 
L 1441 4856 
Q 1916 4091 2145 3389 
Q 2375 2688 2375 2003 
Q 2375 1319 2147 623 
Q 1919 -72 1441 -844 
L 513 -844 
z
" transform="scale(0.015625)"/>
      <path id="DejaVuSans-Bold-2a" d="M 3219 3803 
L 2188 3263 
L 3219 2719 
L 2981 2278 
L 1941 2853 
L 1941 1778 
L 1409 1778 
L 1409 2853 
L 366 2278 
L 128 2719 
L 1172 3263 
L 128 3803 
L 366 4244 
L 1409 3675 
L 1409 4750 
L 1941 4750 
L 1941 3675 
L 2981 4244 
L 3219 3803 
z
" transform="scale(0.015625)"/>
     </defs>
     <use xlink:href="#DejaVuSans-Bold-51"/>
     <use xlink:href="#DejaVuSans-Bold-32" x="85.009766"/>
     <use xlink:href="#DejaVuSans-Bold-20" x="154.589844"/>
     <use xlink:href="#DejaVuSans-Bold-28" x="189.404297"/>
     <use xlink:href="#DejaVuSans-Bold-46" x="235.107422"/>
     <use xlink:href="#DejaVuSans-Bold-4b" x="303.417969"/>
     <use xlink:href="#DejaVuSans-Bold-29" x="380.908203"/>
     <use xlink:href="#DejaVuSans-Bold-2a" x="426.611328"/>
    </g>
   </g>
   <g id="text_24">
    <g id="patch_26">
     <path d="M 257.209337 70.069475 
L 295.604181 70.069475 
Q 298.304181 70.069475 298.304181 67.369475 
L 298.304181 58.659163 
Q 298.304181 55.959163 295.604181 55.959163 
L 257.209337 55.959163 
Q 254.509337 55.959163 254.509337 58.659163 
L 254.509337 67.369475 
Q 254.509337 70.069475 257.209337 70.069475 
z
" style="fill: #ffffff; opacity: 0.8; stroke: #808080; stroke-width: 0.5; stroke-linejoin: miter"/>
    </g>
    <!-- Q3 (FK) -->
    <g transform="translate(257.209337 65.497756) scale(0.09 -0.09)">
     <defs>
      <path id="DejaVuSans-Bold-33" d="M 2981 2516 
Q 3453 2394 3698 2092 
Q 3944 1791 3944 1325 
Q 3944 631 3412 270 
Q 2881 -91 1863 -91 
Q 1503 -91 1142 -33 
Q 781 25 428 141 
L 428 1069 
Q 766 900 1098 814 
Q 1431 728 1753 728 
Q 2231 728 2486 893 
Q 2741 1059 2741 1369 
Q 2741 1688 2480 1852 
Q 2219 2016 1709 2016 
L 1228 2016 
L 1228 2791 
L 1734 2791 
Q 2188 2791 2409 2933 
Q 2631 3075 2631 3366 
Q 2631 3634 2415 3781 
Q 2200 3928 1806 3928 
Q 1516 3928 1219 3862 
Q 922 3797 628 3669 
L 628 4550 
Q 984 4650 1334 4700 
Q 1684 4750 2022 4750 
Q 2931 4750 3382 4451 
Q 3834 4153 3834 3553 
Q 3834 3144 3618 2883 
Q 3403 2622 2981 2516 
z
" transform="scale(0.015625)"/>
     </defs>
     <use xlink:href="#DejaVuSans-Bold-51"/>
     <use xlink:href="#DejaVuSans-Bold-33" x="85.009766"/>
     <use xlink:href="#DejaVuSans-Bold-20" x="154.589844"/>
     <use xlink:href="#DejaVuSans-Bold-28" x="189.404297"/>
     <use xlink:href="#DejaVuSans-Bold-46" x="235.107422"/>
     <use xlink:href="#DejaVuSans-Bold-4b" x="303.417969"/>
     <use xlink:href="#DejaVuSans-Bold-29" x="380.908203"/>
    </g>
   </g>
   <g id="text_25">
    <g id="patch_27">
     <path d="M 75.378647 242.789043 
L 113.773491 242.789043 
Q 116.473491 242.789043 116.473491 240.089043 
L 116.473491 231.37873 
Q 116.473491 228.67873 113.773491 228.67873 
L 75.378647 228.67873 
Q 72.678647 228.67873 72.678647 231.37873 
L 72.678647 240.089043 
Q 72.678647 242.789043 75.378647 242.789043 
z
" style="fill: #ffffff; opacity: 0.8; stroke: #808080; stroke-width: 0.5; stroke-linejoin: miter"/>
    </g>
    <!-- Q9 (FK) -->
    <g transform="translate(75.378647 238.217324) scale(0.09 -0.09)">
     <defs>
      <path id="DejaVuSans-Bold-39" d="M 641 103 
L 641 966 
Q 928 831 1190 764 
Q 1453 697 1709 697 
Q 2247 697 2547 995 
Q 2847 1294 2900 1881 
Q 2688 1725 2447 1647 
Q 2206 1569 1925 1569 
Q 1209 1569 770 1986 
Q 331 2403 331 3084 
Q 331 3838 820 4291 
Q 1309 4744 2131 4744 
Q 3044 4744 3544 4128 
Q 4044 3513 4044 2388 
Q 4044 1231 3459 570 
Q 2875 -91 1856 -91 
Q 1528 -91 1228 -42 
Q 928 6 641 103 
z
M 2125 2350 
Q 2441 2350 2600 2554 
Q 2759 2759 2759 3169 
Q 2759 3575 2600 3781 
Q 2441 3988 2125 3988 
Q 1809 3988 1650 3781 
Q 1491 3575 1491 3169 
Q 1491 2759 1650 2554 
Q 1809 2350 2125 2350 
z
" transform="scale(0.015625)"/>
     </defs>
     <use xlink:href="#DejaVuSans-Bold-51"/>
     <use xlink:href="#DejaVuSans-Bold-39" x="85.009766"/>
     <use xlink:href="#DejaVuSans-Bold-20" x="154.589844"/>
     <use xlink:href="#DejaVuSans-Bold-28" x="189.404297"/>
     <use xlink:href="#DejaVuSans-Bold-46" x="235.107422"/>
     <use xlink:href="#DejaVuSans-Bold-4b" x="303.417969"/>
     <use xlink:href="#DejaVuSans-Bold-29" x="380.908203"/>
    </g>
   </g>
   <g id="text_26">
    <g id="patch_28">
     <path d="M 171.974079 427.920528 
L 217.342517 427.920528 
Q 220.042517 427.920528 220.042517 425.220528 
L 220.042517 416.510215 
Q 220.042517 413.810215 217.342517 413.810215 
L 171.974079 413.810215 
Q 169.274079 413.810215 169.274079 416.510215 
L 169.274079 425.220528 
Q 169.274079 427.920528 171.974079 427.920528 
z
" style="fill: #ffffff; opacity: 0.8; stroke: #808080; stroke-width: 0.5; stroke-linejoin: miter"/>
    </g>
    <!-- Q13 (BK) -->
    <g transform="translate(171.974079 423.348809) scale(0.09 -0.09)">
     <defs>
      <path id="DejaVuSans-Bold-42" d="M 2456 2859 
Q 2741 2859 2887 2984 
Q 3034 3109 3034 3353 
Q 3034 3594 2887 3720 
Q 2741 3847 2456 3847 
L 1791 3847 
L 1791 2859 
L 2456 2859 
z
M 2497 819 
Q 2859 819 3042 972 
Q 3225 1125 3225 1434 
Q 3225 1738 3044 1889 
Q 2863 2041 2497 2041 
L 1791 2041 
L 1791 819 
L 2497 819 
z
M 3616 2497 
Q 4003 2384 4215 2081 
Q 4428 1778 4428 1338 
Q 4428 663 3972 331 
Q 3516 0 2584 0 
L 588 0 
L 588 4666 
L 2394 4666 
Q 3366 4666 3802 4372 
Q 4238 4078 4238 3431 
Q 4238 3091 4078 2852 
Q 3919 2613 3616 2497 
z
" transform="scale(0.015625)"/>
     </defs>
     <use xlink:href="#DejaVuSans-Bold-51"/>
     <use xlink:href="#DejaVuSans-Bold-31" x="85.009766"/>
     <use xlink:href="#DejaVuSans-Bold-33" x="154.589844"/>
     <use xlink:href="#DejaVuSans-Bold-20" x="224.169922"/>
     <use xlink:href="#DejaVuSans-Bold-28" x="258.984375"/>
     <use xlink:href="#DejaVuSans-Bold-42" x="304.6875"/>
     <use xlink:href="#DejaVuSans-Bold-4b" x="380.908203"/>
     <use xlink:href="#DejaVuSans-Bold-29" x="458.398438"/>
    </g>
   </g>
   <g id="text_27">
    <g id="patch_29">
     <path d="M 296.876067 605.959574 
L 335.982474 605.959574 
Q 338.682474 605.959574 338.682474 603.259574 
L 338.682474 594.549262 
Q 338.682474 591.849262 335.982474 591.849262 
L 296.876067 591.849262 
Q 294.176067 591.849262 294.176067 594.549262 
L 294.176067 603.259574 
Q 294.176067 605.959574 296.876067 605.959574 
z
" style="fill: #ffffff; opacity: 0.8; stroke: #808080; stroke-width: 0.5; stroke-linejoin: miter"/>
    </g>
    <!-- Q4 (BK) -->
    <g transform="translate(296.876067 601.387855) scale(0.09 -0.09)">
     <defs>
      <path id="DejaVuSans-Bold-34" d="M 2356 3675 
L 1038 1722 
L 2356 1722 
L 2356 3675 
z
M 2156 4666 
L 3494 4666 
L 3494 1722 
L 4159 1722 
L 4159 850 
L 3494 850 
L 3494 0 
L 2356 0 
L 2356 850 
L 288 850 
L 288 1881 
L 2156 4666 
z
" transform="scale(0.015625)"/>
     </defs>
     <use xlink:href="#DejaVuSans-Bold-51"/>
     <use xlink:href="#DejaVuSans-Bold-34" x="85.009766"/>
     <use xlink:href="#DejaVuSans-Bold-20" x="154.589844"/>
     <use xlink:href="#DejaVuSans-Bold-28" x="189.404297"/>
     <use xlink:href="#DejaVuSans-Bold-42" x="235.107422"/>
     <use xlink:href="#DejaVuSans-Bold-4b" x="311.328125"/>
     <use xlink:href="#DejaVuSans-Bold-29" x="388.818359"/>
    </g>
   </g>
   <g id="text_28">
    <g id="patch_30">
     <path d="M 634.828776 286.05886 
L 678.641901 286.05886 
Q 681.341901 286.05886 681.341901 283.35886 
L 681.341901 274.648548 
Q 681.341901 271.948548 678.641901 271.948548 
L 634.828776 271.948548 
Q 632.128776 271.948548 632.128776 274.648548 
L 632.128776 283.35886 
Q 632.128776 286.05886 634.828776 286.05886 
z
" style="fill: #ffffff; opacity: 0.9; stroke: #ff0000; stroke-linejoin: miter"/>
    </g>
    <!-- Q1 (BK)* -->
    <g style="fill: #ff0000" transform="translate(634.828776 281.487142) scale(0.09 -0.09)">
     <use xlink:href="#DejaVuSans-Bold-51"/>
     <use xlink:href="#DejaVuSans-Bold-31" x="85.009766"/>
     <use xlink:href="#DejaVuSans-Bold-20" x="154.589844"/>
     <use xlink:href="#DejaVuSans-Bold-28" x="189.404297"/>
     <use xlink:href="#DejaVuSans-Bold-42" x="235.107422"/>
     <use xlink:href="#DejaVuSans-Bold-4b" x="311.328125"/>
     <use xlink:href="#DejaVuSans-Bold-29" x="388.818359"/>
     <use xlink:href="#DejaVuSans-Bold-2a" x="434.521484"/>
    </g>
   </g>
   <g id="text_29">
    <g id="patch_31">
     <path d="M 69.746037 661.763225 
L 317.960413 661.763225 
Q 320.660413 661.763225 320.660413 659.063225 
L 320.660413 640.274881 
Q 320.660413 637.574881 317.960413 637.574881 
L 69.746037 637.574881 
Q 67.046037 637.574881 67.046037 640.274881 
L 67.046037 659.063225 
Q 67.046037 661.763225 69.746037 661.763225 
z
" style="fill: #f5deb3; opacity: 0.7; stroke: #000000; stroke-linejoin: miter"/>
    </g>
    <!-- Labels: S=Support, Q=Query (sample ID from test.csv) -->
    <g transform="translate(69.746037 647.113475) scale(0.09 -0.09)">
     <defs>
      <path id="DejaVuSans-4c" d="M 628 4666 
L 1259 4666 
L 1259 531 
L 3531 531 
L 3531 0 
L 628 0 
L 628 4666 
z
" transform="scale(0.015625)"/>
      <path id="DejaVuSans-61" d="M 2194 1759 
Q 1497 1759 1228 1600 
Q 959 1441 959 1056 
Q 959 750 1161 570 
Q 1363 391 1709 391 
Q 2188 391 2477 730 
Q 2766 1069 2766 1631 
L 2766 1759 
L 2194 1759 
z
M 3341 1997 
L 3341 0 
L 2766 0 
L 2766 531 
Q 2569 213 2275 61 
Q 1981 -91 1556 -91 
Q 1019 -91 701 211 
Q 384 513 384 1019 
Q 384 1609 779 1909 
Q 1175 2209 1959 2209 
L 2766 2209 
L 2766 2266 
Q 2766 2663 2505 2880 
Q 2244 3097 1772 3097 
Q 1472 3097 1187 3025 
Q 903 2953 641 2809 
L 641 3341 
Q 956 3463 1253 3523 
Q 1550 3584 1831 3584 
Q 2591 3584 2966 3190 
Q 3341 2797 3341 1997 
z
" transform="scale(0.015625)"/>
      <path id="DejaVuSans-62" d="M 3116 1747 
Q 3116 2381 2855 2742 
Q 2594 3103 2138 3103 
Q 1681 3103 1420 2742 
Q 1159 2381 1159 1747 
Q 1159 1113 1420 752 
Q 1681 391 2138 391 
Q 2594 391 2855 752 
Q 3116 1113 3116 1747 
z
M 1159 2969 
Q 1341 3281 1617 3432 
Q 1894 3584 2278 3584 
Q 2916 3584 3314 3078 
Q 3713 2572 3713 1747 
Q 3713 922 3314 415 
Q 2916 -91 2278 -91 
Q 1894 -91 1617 61 
Q 1341 213 1159 525 
L 1159 0 
L 581 0 
L 581 4863 
L 1159 4863 
L 1159 2969 
z
" transform="scale(0.015625)"/>
      <path id="DejaVuSans-65" d="M 3597 1894 
L 3597 1613 
L 953 1613 
Q 991 1019 1311 708 
Q 1631 397 2203 397 
Q 2534 397 2845 478 
Q 3156 559 3463 722 
L 3463 178 
Q 3153 47 2828 -22 
Q 2503 -91 2169 -91 
Q 1331 -91 842 396 
Q 353 884 353 1716 
Q 353 2575 817 3079 
Q 1281 3584 2069 3584 
Q 2775 3584 3186 3129 
Q 3597 2675 3597 1894 
z
M 3022 2063 
Q 3016 2534 2758 2815 
Q 2500 3097 2075 3097 
Q 1594 3097 1305 2825 
Q 1016 2553 972 2059 
L 3022 2063 
z
" transform="scale(0.015625)"/>
      <path id="DejaVuSans-6c" d="M 603 4863 
L 1178 4863 
L 1178 0 
L 603 0 
L 603 4863 
z
" transform="scale(0.015625)"/>
      <path id="DejaVuSans-73" d="M 2834 3397 
L 2834 2853 
Q 2591 2978 2328 3040 
Q 2066 3103 1784 3103 
Q 1356 3103 1142 2972 
Q 928 2841 928 2578 
Q 928 2378 1081 2264 
Q 1234 2150 1697 2047 
L 1894 2003 
Q 2506 1872 2764 1633 
Q 3022 1394 3022 966 
Q 3022 478 2636 193 
Q 2250 -91 1575 -91 
Q 1294 -91 989 -36 
Q 684 19 347 128 
L 347 722 
Q 666 556 975 473 
Q 1284 391 1588 391 
Q 1994 391 2212 530 
Q 2431 669 2431 922 
Q 2431 1156 2273 1281 
Q 2116 1406 1581 1522 
L 1381 1569 
Q 847 1681 609 1914 
Q 372 2147 372 2553 
Q 372 3047 722 3315 
Q 1072 3584 1716 3584 
Q 2034 3584 2315 3537 
Q 2597 3491 2834 3397 
z
" transform="scale(0.015625)"/>
      <path id="DejaVuSans-3a" d="M 750 794 
L 1409 794 
L 1409 0 
L 750 0 
L 750 794 
z
M 750 3309 
L 1409 3309 
L 1409 2516 
L 750 2516 
L 750 3309 
z
" transform="scale(0.015625)"/>
      <path id="DejaVuSans-20" transform="scale(0.015625)"/>
      <path id="DejaVuSans-53" d="M 3425 4513 
L 3425 3897 
Q 3066 4069 2747 4153 
Q 2428 4238 2131 4238 
Q 1616 4238 1336 4038 
Q 1056 3838 1056 3469 
Q 1056 3159 1242 3001 
Q 1428 2844 1947 2747 
L 2328 2669 
Q 3034 2534 3370 2195 
Q 3706 1856 3706 1288 
Q 3706 609 3251 259 
Q 2797 -91 1919 -91 
Q 1588 -91 1214 -16 
Q 841 59 441 206 
L 441 856 
Q 825 641 1194 531 
Q 1563 422 1919 422 
Q 2459 422 2753 634 
Q 3047 847 3047 1241 
Q 3047 1584 2836 1778 
Q 2625 1972 2144 2069 
L 1759 2144 
Q 1053 2284 737 2584 
Q 422 2884 422 3419 
Q 422 4038 858 4394 
Q 1294 4750 2059 4750 
Q 2388 4750 2728 4690 
Q 3069 4631 3425 4513 
z
" transform="scale(0.015625)"/>
      <path id="DejaVuSans-3d" d="M 678 2906 
L 4684 2906 
L 4684 2381 
L 678 2381 
L 678 2906 
z
M 678 1631 
L 4684 1631 
L 4684 1100 
L 678 1100 
L 678 1631 
z
" transform="scale(0.015625)"/>
      <path id="DejaVuSans-75" d="M 544 1381 
L 544 3500 
L 1119 3500 
L 1119 1403 
Q 1119 906 1312 657 
Q 1506 409 1894 409 
Q 2359 409 2629 706 
Q 2900 1003 2900 1516 
L 2900 3500 
L 3475 3500 
L 3475 0 
L 2900 0 
L 2900 538 
Q 2691 219 2414 64 
Q 2138 -91 1772 -91 
Q 1169 -91 856 284 
Q 544 659 544 1381 
z
M 1991 3584 
L 1991 3584 
z
" transform="scale(0.015625)"/>
      <path id="DejaVuSans-70" d="M 1159 525 
L 1159 -1331 
L 581 -1331 
L 581 3500 
L 1159 3500 
L 1159 2969 
Q 1341 3281 1617 3432 
Q 1894 3584 2278 3584 
Q 2916 3584 3314 3078 
Q 3713 2572 3713 1747 
Q 3713 922 3314 415 
Q 2916 -91 2278 -91 
Q 1894 -91 1617 61 
Q 1341 213 1159 525 
z
M 3116 1747 
Q 3116 2381 2855 2742 
Q 2594 3103 2138 3103 
Q 1681 3103 1420 2742 
Q 1159 2381 1159 1747 
Q 1159 1113 1420 752 
Q 1681 391 2138 391 
Q 2594 391 2855 752 
Q 3116 1113 3116 1747 
z
" transform="scale(0.015625)"/>
      <path id="DejaVuSans-6f" d="M 1959 3097 
Q 1497 3097 1228 2736 
Q 959 2375 959 1747 
Q 959 1119 1226 758 
Q 1494 397 1959 397 
Q 2419 397 2687 759 
Q 2956 1122 2956 1747 
Q 2956 2369 2687 2733 
Q 2419 3097 1959 3097 
z
M 1959 3584 
Q 2709 3584 3137 3096 
Q 3566 2609 3566 1747 
Q 3566 888 3137 398 
Q 2709 -91 1959 -91 
Q 1206 -91 779 398 
Q 353 888 353 1747 
Q 353 2609 779 3096 
Q 1206 3584 1959 3584 
z
" transform="scale(0.015625)"/>
      <path id="DejaVuSans-72" d="M 2631 2963 
Q 2534 3019 2420 3045 
Q 2306 3072 2169 3072 
Q 1681 3072 1420 2755 
Q 1159 2438 1159 1844 
L 1159 0 
L 581 0 
L 581 3500 
L 1159 3500 
L 1159 2956 
Q 1341 3275 1631 3429 
Q 1922 3584 2338 3584 
Q 2397 3584 2469 3576 
Q 2541 3569 2628 3553 
L 2631 2963 
z
" transform="scale(0.015625)"/>
      <path id="DejaVuSans-74" d="M 1172 4494 
L 1172 3500 
L 2356 3500 
L 2356 3053 
L 1172 3053 
L 1172 1153 
Q 1172 725 1289 603 
Q 1406 481 1766 481 
L 2356 481 
L 2356 0 
L 1766 0 
Q 1100 0 847 248 
Q 594 497 594 1153 
L 594 3053 
L 172 3053 
L 172 3500 
L 594 3500 
L 594 4494 
L 1172 4494 
z
" transform="scale(0.015625)"/>
      <path id="DejaVuSans-2c" d="M 750 794 
L 1409 794 
L 1409 256 
L 897 -744 
L 494 -744 
L 750 256 
L 750 794 
z
" transform="scale(0.015625)"/>
      <path id="DejaVuSans-51" d="M 2522 4238 
Q 1834 4238 1429 3725 
Q 1025 3213 1025 2328 
Q 1025 1447 1429 934 
Q 1834 422 2522 422 
Q 3209 422 3611 934 
Q 4013 1447 4013 2328 
Q 4013 3213 3611 3725 
Q 3209 4238 2522 4238 
z
M 3406 84 
L 4238 -825 
L 3475 -825 
L 2784 -78 
Q 2681 -84 2626 -87 
Q 2572 -91 2522 -91 
Q 1538 -91 948 567 
Q 359 1225 359 2328 
Q 359 3434 948 4092 
Q 1538 4750 2522 4750 
Q 3503 4750 4090 4092 
Q 4678 3434 4678 2328 
Q 4678 1516 4351 937 
Q 4025 359 3406 84 
z
" transform="scale(0.015625)"/>
      <path id="DejaVuSans-79" d="M 2059 -325 
Q 1816 -950 1584 -1140 
Q 1353 -1331 966 -1331 
L 506 -1331 
L 506 -850 
L 844 -850 
Q 1081 -850 1212 -737 
Q 1344 -625 1503 -206 
L 1606 56 
L 191 3500 
L 800 3500 
L 1894 763 
L 2988 3500 
L 3597 3500 
L 2059 -325 
z
" transform="scale(0.015625)"/>
      <path id="DejaVuSans-28" d="M 1984 4856 
Q 1566 4138 1362 3434 
Q 1159 2731 1159 2009 
Q 1159 1288 1364 580 
Q 1569 -128 1984 -844 
L 1484 -844 
Q 1016 -109 783 600 
Q 550 1309 550 2009 
Q 550 2706 781 3412 
Q 1013 4119 1484 4856 
L 1984 4856 
z
" transform="scale(0.015625)"/>
      <path id="DejaVuSans-6d" d="M 3328 2828 
Q 3544 3216 3844 3400 
Q 4144 3584 4550 3584 
Q 5097 3584 5394 3201 
Q 5691 2819 5691 2113 
L 5691 0 
L 5113 0 
L 5113 2094 
Q 5113 2597 4934 2840 
Q 4756 3084 4391 3084 
Q 3944 3084 3684 2787 
Q 3425 2491 3425 1978 
L 3425 0 
L 2847 0 
L 2847 2094 
Q 2847 2600 2669 2842 
Q 2491 3084 2119 3084 
Q 1678 3084 1418 2786 
Q 1159 2488 1159 1978 
L 1159 0 
L 581 0 
L 581 3500 
L 1159 3500 
L 1159 2956 
Q 1356 3278 1631 3431 
Q 1906 3584 2284 3584 
Q 2666 3584 2933 3390 
Q 3200 3197 3328 2828 
z
" transform="scale(0.015625)"/>
      <path id="DejaVuSans-49" d="M 628 4666 
L 1259 4666 
L 1259 0 
L 628 0 
L 628 4666 
z
" transform="scale(0.015625)"/>
      <path id="DejaVuSans-44" d="M 1259 4147 
L 1259 519 
L 2022 519 
Q 2988 519 3436 956 
Q 3884 1394 3884 2338 
Q 3884 3275 3436 3711 
Q 2988 4147 2022 4147 
L 1259 4147 
z
M 628 4666 
L 1925 4666 
Q 3281 4666 3915 4102 
Q 4550 3538 4550 2338 
Q 4550 1131 3912 565 
Q 3275 0 1925 0 
L 628 0 
L 628 4666 
z
" transform="scale(0.015625)"/>
      <path id="DejaVuSans-66" d="M 2375 4863 
L 2375 4384 
L 1825 4384 
Q 1516 4384 1395 4259 
Q 1275 4134 1275 3809 
L 1275 3500 
L 2222 3500 
L 2222 3053 
L 1275 3053 
L 1275 0 
L 697 0 
L 697 3053 
L 147 3053 
L 147 3500 
L 697 3500 
L 697 3744 
Q 697 4328 969 4595 
Q 1241 4863 1831 4863 
L 2375 4863 
z
" transform="scale(0.015625)"/>
      <path id="DejaVuSans-2e" d="M 684 794 
L 1344 794 
L 1344 0 
L 684 0 
L 684 794 
z
" transform="scale(0.015625)"/>
      <path id="DejaVuSans-63" d="M 3122 3366 
L 3122 2828 
Q 2878 2963 2633 3030 
Q 2388 3097 2138 3097 
Q 1578 3097 1268 2742 
Q 959 2388 959 1747 
Q 959 1106 1268 751 
Q 1578 397 2138 397 
Q 2388 397 2633 464 
Q 2878 531 3122 666 
L 3122 134 
Q 2881 22 2623 -34 
Q 2366 -91 2075 -91 
Q 1284 -91 818 406 
Q 353 903 353 1747 
Q 353 2603 823 3093 
Q 1294 3584 2113 3584 
Q 2378 3584 2631 3529 
Q 2884 3475 3122 3366 
z
" transform="scale(0.015625)"/>
      <path id="DejaVuSans-76" d="M 191 3500 
L 800 3500 
L 1894 563 
L 2988 3500 
L 3597 3500 
L 2284 0 
L 1503 0 
L 191 3500 
z
" transform="scale(0.015625)"/>
      <path id="DejaVuSans-29" d="M 513 4856 
L 1013 4856 
Q 1481 4119 1714 3412 
Q 1947 2706 1947 2009 
Q 1947 1309 1714 600 
Q 1481 -109 1013 -844 
L 513 -844 
Q 928 -128 1133 580 
Q 1338 1288 1338 2009 
Q 1338 2731 1133 3434 
Q 928 4138 513 4856 
z
" transform="scale(0.015625)"/>
     </defs>
     <use xlink:href="#DejaVuSans-4c"/>
     <use xlink:href="#DejaVuSans-61" x="55.712891"/>
     <use xlink:href="#DejaVuSans-62" x="116.992188"/>
     <use xlink:href="#DejaVuSans-65" x="180.46875"/>
     <use xlink:href="#DejaVuSans-6c" x="241.992188"/>
     <use xlink:href="#DejaVuSans-73" x="269.775391"/>
     <use xlink:href="#DejaVuSans-3a" x="321.875"/>
     <use xlink:href="#DejaVuSans-20" x="355.566406"/>
     <use xlink:href="#DejaVuSans-53" x="387.353516"/>
     <use xlink:href="#DejaVuSans-3d" x="450.830078"/>
     <use xlink:href="#DejaVuSans-53" x="534.619141"/>
     <use xlink:href="#DejaVuSans-75" x="598.095703"/>
     <use xlink:href="#DejaVuSans-70" x="661.474609"/>
     <use xlink:href="#DejaVuSans-70" x="724.951172"/>
     <use xlink:href="#DejaVuSans-6f" x="788.427734"/>
     <use xlink:href="#DejaVuSans-72" x="849.609375"/>
     <use xlink:href="#DejaVuSans-74" x="890.722656"/>
     <use xlink:href="#DejaVuSans-2c" x="929.931641"/>
     <use xlink:href="#DejaVuSans-20" x="961.71875"/>
     <use xlink:href="#DejaVuSans-51" x="993.505859"/>
     <use xlink:href="#DejaVuSans-3d" x="1072.216797"/>
     <use xlink:href="#DejaVuSans-51" x="1156.005859"/>
     <use xlink:href="#DejaVuSans-75" x="1234.716797"/>
     <use xlink:href="#DejaVuSans-65" x="1298.095703"/>
     <use xlink:href="#DejaVuSans-72" x="1359.619141"/>
     <use xlink:href="#DejaVuSans-79" x="1400.732422"/>
     <use xlink:href="#DejaVuSans-20" x="1459.912109"/>
     <use xlink:href="#DejaVuSans-28" x="1491.699219"/>
     <use xlink:href="#DejaVuSans-73" x="1530.712891"/>
     <use xlink:href="#DejaVuSans-61" x="1582.8125"/>
     <use xlink:href="#DejaVuSans-6d" x="1644.091797"/>
     <use xlink:href="#DejaVuSans-70" x="1741.503906"/>
     <use xlink:href="#DejaVuSans-6c" x="1804.980469"/>
     <use xlink:href="#DejaVuSans-65" x="1832.763672"/>
     <use xlink:href="#DejaVuSans-20" x="1894.287109"/>
     <use xlink:href="#DejaVuSans-49" x="1926.074219"/>
     <use xlink:href="#DejaVuSans-44" x="1955.566406"/>
     <use xlink:href="#DejaVuSans-20" x="2032.568359"/>
     <use xlink:href="#DejaVuSans-66" x="2064.355469"/>
     <use xlink:href="#DejaVuSans-72" x="2099.560547"/>
     <use xlink:href="#DejaVuSans-6f" x="2138.423828"/>
     <use xlink:href="#DejaVuSans-6d" x="2199.605469"/>
     <use xlink:href="#DejaVuSans-20" x="2297.017578"/>
     <use xlink:href="#DejaVuSans-74" x="2328.804688"/>
     <use xlink:href="#DejaVuSans-65" x="2368.013672"/>
     <use xlink:href="#DejaVuSans-73" x="2429.537109"/>
     <use xlink:href="#DejaVuSans-74" x="2481.636719"/>
     <use xlink:href="#DejaVuSans-2e" x="2520.845703"/>
     <use xlink:href="#DejaVuSans-63" x="2552.632812"/>
     <use xlink:href="#DejaVuSans-73" x="2607.613281"/>
     <use xlink:href="#DejaVuSans-76" x="2659.712891"/>
     <use xlink:href="#DejaVuSans-29" x="2718.892578"/>
    </g>
    <!-- * indicates misclassification (2/6 errors) -->
    <g transform="translate(69.746037 657.191506) scale(0.09 -0.09)">
     <defs>
      <path id="DejaVuSans-2a" d="M 3009 3897 
L 1888 3291 
L 3009 2681 
L 2828 2375 
L 1778 3009 
L 1778 1831 
L 1422 1831 
L 1422 3009 
L 372 2375 
L 191 2681 
L 1313 3291 
L 191 3897 
L 372 4206 
L 1422 3572 
L 1422 4750 
L 1778 4750 
L 1778 3572 
L 2828 4206 
L 3009 3897 
z
" transform="scale(0.015625)"/>
      <path id="DejaVuSans-69" d="M 603 3500 
L 1178 3500 
L 1178 0 
L 603 0 
L 603 3500 
z
M 603 4863 
L 1178 4863 
L 1178 4134 
L 603 4134 
L 603 4863 
z
" transform="scale(0.015625)"/>
      <path id="DejaVuSans-6e" d="M 3513 2113 
L 3513 0 
L 2938 0 
L 2938 2094 
Q 2938 2591 2744 2837 
Q 2550 3084 2163 3084 
Q 1697 3084 1428 2787 
Q 1159 2491 1159 1978 
L 1159 0 
L 581 0 
L 581 3500 
L 1159 3500 
L 1159 2956 
Q 1366 3272 1645 3428 
Q 1925 3584 2291 3584 
Q 2894 3584 3203 3211 
Q 3513 2838 3513 2113 
z
" transform="scale(0.015625)"/>
      <path id="DejaVuSans-64" d="M 2906 2969 
L 2906 4863 
L 3481 4863 
L 3481 0 
L 2906 0 
L 2906 525 
Q 2725 213 2448 61 
Q 2172 -91 1784 -91 
Q 1150 -91 751 415 
Q 353 922 353 1747 
Q 353 2572 751 3078 
Q 1150 3584 1784 3584 
Q 2172 3584 2448 3432 
Q 2725 3281 2906 2969 
z
M 947 1747 
Q 947 1113 1208 752 
Q 1469 391 1925 391 
Q 2381 391 2643 752 
Q 2906 1113 2906 1747 
Q 2906 2381 2643 2742 
Q 2381 3103 1925 3103 
Q 1469 3103 1208 2742 
Q 947 2381 947 1747 
z
" transform="scale(0.015625)"/>
      <path id="DejaVuSans-2f" d="M 1625 4666 
L 2156 4666 
L 531 -594 
L 0 -594 
L 1625 4666 
z
" transform="scale(0.015625)"/>
     </defs>
     <use xlink:href="#DejaVuSans-2a"/>
     <use xlink:href="#DejaVuSans-20" x="50"/>
     <use xlink:href="#DejaVuSans-69" x="81.787109"/>
     <use xlink:href="#DejaVuSans-6e" x="109.570312"/>
     <use xlink:href="#DejaVuSans-64" x="172.949219"/>
     <use xlink:href="#DejaVuSans-69" x="236.425781"/>
     <use xlink:href="#DejaVuSans-63" x="264.208984"/>
     <use xlink:href="#DejaVuSans-61" x="319.189453"/>
     <use xlink:href="#DejaVuSans-74" x="380.46875"/>
     <use xlink:href="#DejaVuSans-65" x="419.677734"/>
     <use xlink:href="#DejaVuSans-73" x="481.201172"/>
     <use xlink:href="#DejaVuSans-20" x="533.300781"/>
     <use xlink:href="#DejaVuSans-6d" x="565.087891"/>
     <use xlink:href="#DejaVuSans-69" x="662.5"/>
     <use xlink:href="#DejaVuSans-73" x="690.283203"/>
     <use xlink:href="#DejaVuSans-63" x="742.382812"/>
     <use xlink:href="#DejaVuSans-6c" x="797.363281"/>
     <use xlink:href="#DejaVuSans-61" x="825.146484"/>
     <use xlink:href="#DejaVuSans-73" x="886.425781"/>
     <use xlink:href="#DejaVuSans-73" x="938.525391"/>
     <use xlink:href="#DejaVuSans-69" x="990.625"/>
     <use xlink:href="#DejaVuSans-66" x="1018.408203"/>
     <use xlink:href="#DejaVuSans-69" x="1053.613281"/>
     <use xlink:href="#DejaVuSans-63" x="1081.396484"/>
     <use xlink:href="#DejaVuSans-61" x="1136.376953"/>
     <use xlink:href="#DejaVuSans-74" x="1197.65625"/>
     <use xlink:href="#DejaVuSans-69" x="1236.865234"/>
     <use xlink:href="#DejaVuSans-6f" x="1264.648438"/>
     <use xlink:href="#DejaVuSans-6e" x="1325.830078"/>
     <use xlink:href="#DejaVuSans-20" x="1389.208984"/>
     <use xlink:href="#DejaVuSans-28" x="1420.996094"/>
     <use xlink:href="#DejaVuSans-32" x="1460.009766"/>
     <use xlink:href="#DejaVuSans-2f" x="1523.632812"/>
     <use xlink:href="#DejaVuSans-36" x="1557.324219"/>
     <use xlink:href="#DejaVuSans-20" x="1620.947266"/>
     <use xlink:href="#DejaVuSans-65" x="1652.734375"/>
     <use xlink:href="#DejaVuSans-72" x="1714.257812"/>
     <use xlink:href="#DejaVuSans-72" x="1753.621094"/>
     <use xlink:href="#DejaVuSans-6f" x="1792.484375"/>
     <use xlink:href="#DejaVuSans-72" x="1853.666016"/>
     <use xlink:href="#DejaVuSans-73" x="1894.779297"/>
     <use xlink:href="#DejaVuSans-29" x="1946.878906"/>
    </g>
   </g>
   <g id="text_30">
    <!-- Episode 1: Embedding Space Visualization (TSNE) -->
    <g transform="translate(325.349219 17.837812) scale(0.14 -0.14)">
     <defs>
      <path id="DejaVuSans-Bold-45" d="M 588 4666 
L 3834 4666 
L 3834 3756 
L 1791 3756 
L 1791 2888 
L 3713 2888 
L 3713 1978 
L 1791 1978 
L 1791 909 
L 3903 909 
L 3903 0 
L 588 0 
L 588 4666 
z
" transform="scale(0.015625)"/>
      <path id="DejaVuSans-Bold-70" d="M 1656 506 
L 1656 -1331 
L 538 -1331 
L 538 3500 
L 1656 3500 
L 1656 2988 
Q 1888 3294 2169 3439 
Q 2450 3584 2816 3584 
Q 3463 3584 3878 3070 
Q 4294 2556 4294 1747 
Q 4294 938 3878 423 
Q 3463 -91 2816 -91 
Q 2450 -91 2169 54 
Q 1888 200 1656 506 
z
M 2400 2772 
Q 2041 2772 1848 2508 
Q 1656 2244 1656 1747 
Q 1656 1250 1848 986 
Q 2041 722 2400 722 
Q 2759 722 2948 984 
Q 3138 1247 3138 1747 
Q 3138 2247 2948 2509 
Q 2759 2772 2400 2772 
z
" transform="scale(0.015625)"/>
      <path id="DejaVuSans-Bold-64" d="M 2919 2988 
L 2919 4863 
L 4044 4863 
L 4044 0 
L 2919 0 
L 2919 506 
Q 2688 197 2409 53 
Q 2131 -91 1766 -91 
Q 1119 -91 703 423 
Q 288 938 288 1747 
Q 288 2556 703 3070 
Q 1119 3584 1766 3584 
Q 2128 3584 2408 3439 
Q 2688 3294 2919 2988 
z
M 2181 722 
Q 2541 722 2730 984 
Q 2919 1247 2919 1747 
Q 2919 2247 2730 2509 
Q 2541 2772 2181 2772 
Q 1825 2772 1636 2509 
Q 1447 2247 1447 1747 
Q 1447 1247 1636 984 
Q 1825 722 2181 722 
z
" transform="scale(0.015625)"/>
      <path id="DejaVuSans-Bold-3a" d="M 716 3500 
L 1844 3500 
L 1844 2291 
L 716 2291 
L 716 3500 
z
M 716 1209 
L 1844 1209 
L 1844 0 
L 716 0 
L 716 1209 
z
" transform="scale(0.015625)"/>
      <path id="DejaVuSans-Bold-62" d="M 2400 722 
Q 2759 722 2948 984 
Q 3138 1247 3138 1747 
Q 3138 2247 2948 2509 
Q 2759 2772 2400 2772 
Q 2041 2772 1848 2508 
Q 1656 2244 1656 1747 
Q 1656 1250 1848 986 
Q 2041 722 2400 722 
z
M 1656 2988 
Q 1888 3294 2169 3439 
Q 2450 3584 2816 3584 
Q 3463 3584 3878 3070 
Q 4294 2556 4294 1747 
Q 4294 938 3878 423 
Q 3463 -91 2816 -91 
Q 2450 -91 2169 54 
Q 1888 200 1656 506 
L 1656 0 
L 538 0 
L 538 4863 
L 1656 4863 
L 1656 2988 
z
" transform="scale(0.015625)"/>
      <path id="DejaVuSans-Bold-67" d="M 2919 594 
Q 2688 288 2409 144 
Q 2131 0 1766 0 
Q 1125 0 706 504 
Q 288 1009 288 1791 
Q 288 2575 706 3076 
Q 1125 3578 1766 3578 
Q 2131 3578 2409 3434 
Q 2688 3291 2919 2981 
L 2919 3500 
L 4044 3500 
L 4044 353 
Q 4044 -491 3511 -936 
Q 2978 -1381 1966 -1381 
Q 1638 -1381 1331 -1331 
Q 1025 -1281 716 -1178 
L 716 -306 
Q 1009 -475 1290 -558 
Q 1572 -641 1856 -641 
Q 2406 -641 2662 -400 
Q 2919 -159 2919 353 
L 2919 594 
z
M 2181 2772 
Q 1834 2772 1640 2515 
Q 1447 2259 1447 1791 
Q 1447 1309 1634 1061 
Q 1822 813 2181 813 
Q 2531 813 2725 1069 
Q 2919 1325 2919 1791 
Q 2919 2259 2725 2515 
Q 2531 2772 2181 2772 
z
" transform="scale(0.015625)"/>
      <path id="DejaVuSans-Bold-61" d="M 2106 1575 
Q 1756 1575 1579 1456 
Q 1403 1338 1403 1106 
Q 1403 894 1545 773 
Q 1688 653 1941 653 
Q 2256 653 2472 879 
Q 2688 1106 2688 1447 
L 2688 1575 
L 2106 1575 
z
M 3816 1997 
L 3816 0 
L 2688 0 
L 2688 519 
Q 2463 200 2181 54 
Q 1900 -91 1497 -91 
Q 953 -91 614 226 
Q 275 544 275 1050 
Q 275 1666 698 1953 
Q 1122 2241 2028 2241 
L 2688 2241 
L 2688 2328 
Q 2688 2594 2478 2717 
Q 2269 2841 1825 2841 
Q 1466 2841 1156 2769 
Q 847 2697 581 2553 
L 581 3406 
Q 941 3494 1303 3539 
Q 1666 3584 2028 3584 
Q 2975 3584 3395 3211 
Q 3816 2838 3816 1997 
z
" transform="scale(0.015625)"/>
      <path id="DejaVuSans-Bold-63" d="M 3366 3391 
L 3366 2478 
Q 3138 2634 2908 2709 
Q 2678 2784 2431 2784 
Q 1963 2784 1702 2511 
Q 1441 2238 1441 1747 
Q 1441 1256 1702 982 
Q 1963 709 2431 709 
Q 2694 709 2930 787 
Q 3166 866 3366 1019 
L 3366 103 
Q 3103 6 2833 -42 
Q 2563 -91 2291 -91 
Q 1344 -91 809 395 
Q 275 881 275 1747 
Q 275 2613 809 3098 
Q 1344 3584 2291 3584 
Q 2566 3584 2833 3536 
Q 3100 3488 3366 3391 
z
" transform="scale(0.015625)"/>
      <path id="DejaVuSans-Bold-56" d="M 31 4666 
L 1241 4666 
L 2478 1222 
L 3713 4666 
L 4922 4666 
L 3194 0 
L 1759 0 
L 31 4666 
z
" transform="scale(0.015625)"/>
      <path id="DejaVuSans-Bold-75" d="M 500 1363 
L 500 3500 
L 1625 3500 
L 1625 3150 
Q 1625 2866 1622 2436 
Q 1619 2006 1619 1863 
Q 1619 1441 1641 1255 
Q 1663 1069 1716 984 
Q 1784 875 1895 815 
Q 2006 756 2150 756 
Q 2500 756 2700 1025 
Q 2900 1294 2900 1772 
L 2900 3500 
L 4019 3500 
L 4019 0 
L 2900 0 
L 2900 506 
Q 2647 200 2364 54 
Q 2081 -91 1741 -91 
Q 1134 -91 817 281 
Q 500 653 500 1363 
z
" transform="scale(0.015625)"/>
      <path id="DejaVuSans-Bold-6c" d="M 538 4863 
L 1656 4863 
L 1656 0 
L 538 0 
L 538 4863 
z
" transform="scale(0.015625)"/>
      <path id="DejaVuSans-Bold-7a" d="M 366 3500 
L 3419 3500 
L 3419 2719 
L 1575 800 
L 3419 800 
L 3419 0 
L 288 0 
L 288 781 
L 2131 2700 
L 366 2700 
L 366 3500 
z
" transform="scale(0.015625)"/>
      <path id="DejaVuSans-Bold-74" d="M 1759 4494 
L 1759 3500 
L 2913 3500 
L 2913 2700 
L 1759 2700 
L 1759 1216 
Q 1759 972 1856 886 
Q 1953 800 2241 800 
L 2816 800 
L 2816 0 
L 1856 0 
Q 1194 0 917 276 
Q 641 553 641 1216 
L 641 2700 
L 84 2700 
L 84 3500 
L 641 3500 
L 641 4494 
L 1759 4494 
z
" transform="scale(0.015625)"/>
      <path id="DejaVuSans-Bold-54" d="M 31 4666 
L 4331 4666 
L 4331 3756 
L 2784 3756 
L 2784 0 
L 1581 0 
L 1581 3756 
L 31 3756 
L 31 4666 
z
" transform="scale(0.015625)"/>
      <path id="DejaVuSans-Bold-4e" d="M 588 4666 
L 1931 4666 
L 3628 1466 
L 3628 4666 
L 4769 4666 
L 4769 0 
L 3425 0 
L 1728 3200 
L 1728 0 
L 588 0 
L 588 4666 
z
" transform="scale(0.015625)"/>
     </defs>
     <use xlink:href="#DejaVuSans-Bold-45"/>
     <use xlink:href="#DejaVuSans-Bold-70" x="68.310547"/>
     <use xlink:href="#DejaVuSans-Bold-69" x="139.892578"/>
     <use xlink:href="#DejaVuSans-Bold-73" x="174.169922"/>
     <use xlink:href="#DejaVuSans-Bold-6f" x="233.691406"/>
     <use xlink:href="#DejaVuSans-Bold-64" x="302.392578"/>
     <use xlink:href="#DejaVuSans-Bold-65" x="373.974609"/>
     <use xlink:href="#DejaVuSans-Bold-20" x="441.796875"/>
     <use xlink:href="#DejaVuSans-Bold-31" x="476.611328"/>
     <use xlink:href="#DejaVuSans-Bold-3a" x="546.191406"/>
     <use xlink:href="#DejaVuSans-Bold-20" x="586.181641"/>
     <use xlink:href="#DejaVuSans-Bold-45" x="620.996094"/>
     <use xlink:href="#DejaVuSans-Bold-6d" x="689.306641"/>
     <use xlink:href="#DejaVuSans-Bold-62" x="793.505859"/>
     <use xlink:href="#DejaVuSans-Bold-65" x="865.087891"/>
     <use xlink:href="#DejaVuSans-Bold-64" x="932.910156"/>
     <use xlink:href="#DejaVuSans-Bold-64" x="1004.492188"/>
     <use xlink:href="#DejaVuSans-Bold-69" x="1076.074219"/>
     <use xlink:href="#DejaVuSans-Bold-6e" x="1110.351562"/>
     <use xlink:href="#DejaVuSans-Bold-67" x="1181.542969"/>
     <use xlink:href="#DejaVuSans-Bold-20" x="1253.125"/>
     <use xlink:href="#DejaVuSans-Bold-53" x="1287.939453"/>
     <use xlink:href="#DejaVuSans-Bold-70" x="1359.960938"/>
     <use xlink:href="#DejaVuSans-Bold-61" x="1431.542969"/>
     <use xlink:href="#DejaVuSans-Bold-63" x="1499.023438"/>
     <use xlink:href="#DejaVuSans-Bold-65" x="1558.300781"/>
     <use xlink:href="#DejaVuSans-Bold-20" x="1626.123047"/>
     <use xlink:href="#DejaVuSans-Bold-56" x="1660.9375"/>
     <use xlink:href="#DejaVuSans-Bold-69" x="1736.580078"/>
     <use xlink:href="#DejaVuSans-Bold-73" x="1770.857422"/>
     <use xlink:href="#DejaVuSans-Bold-75" x="1830.378906"/>
     <use xlink:href="#DejaVuSans-Bold-61" x="1901.570312"/>
     <use xlink:href="#DejaVuSans-Bold-6c" x="1969.050781"/>
     <use xlink:href="#DejaVuSans-Bold-69" x="2003.328125"/>
     <use xlink:href="#DejaVuSans-Bold-7a" x="2037.605469"/>
     <use xlink:href="#DejaVuSans-Bold-61" x="2095.808594"/>
     <use xlink:href="#DejaVuSans-Bold-74" x="2163.289062"/>
     <use xlink:href="#DejaVuSans-Bold-69" x="2211.091797"/>
     <use xlink:href="#DejaVuSans-Bold-6f" x="2245.369141"/>
     <use xlink:href="#DejaVuSans-Bold-6e" x="2314.070312"/>
     <use xlink:href="#DejaVuSans-Bold-20" x="2385.261719"/>
     <use xlink:href="#DejaVuSans-Bold-28" x="2420.076172"/>
     <use xlink:href="#DejaVuSans-Bold-54" x="2465.779297"/>
     <use xlink:href="#DejaVuSans-Bold-53" x="2533.992188"/>
     <use xlink:href="#DejaVuSans-Bold-4e" x="2606.013672"/>
     <use xlink:href="#DejaVuSans-Bold-45" x="2689.705078"/>
     <use xlink:href="#DejaVuSans-Bold-29" x="2758.015625"/>
    </g>
    <!-- 2-way 3-shot | Backbone: vit_b_16 -->
    <g transform="translate(387.639375 33.697625) scale(0.14 -0.14)">
     <defs>
      <path id="DejaVuSans-Bold-2d" d="M 347 2297 
L 2309 2297 
L 2309 1388 
L 347 1388 
L 347 2297 
z
" transform="scale(0.015625)"/>
      <path id="DejaVuSans-Bold-77" d="M 225 3500 
L 1313 3500 
L 1900 1088 
L 2491 3500 
L 3425 3500 
L 4013 1113 
L 4603 3500 
L 5691 3500 
L 4769 0 
L 3547 0 
L 2956 2406 
L 2369 0 
L 1147 0 
L 225 3500 
z
" transform="scale(0.015625)"/>
      <path id="DejaVuSans-Bold-79" d="M 78 3500 
L 1197 3500 
L 2138 1125 
L 2938 3500 
L 4056 3500 
L 2584 -331 
Q 2363 -916 2067 -1148 
Q 1772 -1381 1288 -1381 
L 641 -1381 
L 641 -647 
L 991 -647 
Q 1275 -647 1404 -556 
Q 1534 -466 1606 -231 
L 1638 -134 
L 78 3500 
z
" transform="scale(0.015625)"/>
      <path id="DejaVuSans-Bold-68" d="M 4056 2131 
L 4056 0 
L 2931 0 
L 2931 347 
L 2931 1625 
Q 2931 2084 2911 2256 
Q 2891 2428 2841 2509 
Q 2775 2619 2662 2680 
Q 2550 2741 2406 2741 
Q 2056 2741 1856 2470 
Q 1656 2200 1656 1722 
L 1656 0 
L 538 0 
L 538 4863 
L 1656 4863 
L 1656 2988 
Q 1909 3294 2193 3439 
Q 2478 3584 2822 3584 
Q 3428 3584 3742 3212 
Q 4056 2841 4056 2131 
z
" transform="scale(0.015625)"/>
      <path id="DejaVuSans-Bold-7c" d="M 1522 4891 
L 1522 -1509 
L 813 -1509 
L 813 4891 
L 1522 4891 
z
" transform="scale(0.015625)"/>
      <path id="DejaVuSans-Bold-6b" d="M 538 4863 
L 1656 4863 
L 1656 2216 
L 2944 3500 
L 4244 3500 
L 2534 1894 
L 4378 0 
L 3022 0 
L 1656 1459 
L 1656 0 
L 538 0 
L 538 4863 
z
" transform="scale(0.015625)"/>
      <path id="DejaVuSans-Bold-76" d="M 97 3500 
L 1216 3500 
L 2088 1081 
L 2956 3500 
L 4078 3500 
L 2700 0 
L 1472 0 
L 97 3500 
z
" transform="scale(0.015625)"/>
      <path id="DejaVuSans-Bold-5f" d="M 3200 -916 
L 3200 -1509 
L 0 -1509 
L 0 -916 
L 3200 -916 
z
" transform="scale(0.015625)"/>
     </defs>
     <use xlink:href="#DejaVuSans-Bold-32"/>
     <use xlink:href="#DejaVuSans-Bold-2d" x="69.580078"/>
     <use xlink:href="#DejaVuSans-Bold-77" x="111.083984"/>
     <use xlink:href="#DejaVuSans-Bold-61" x="203.466797"/>
     <use xlink:href="#DejaVuSans-Bold-79" x="267.822266"/>
     <use xlink:href="#DejaVuSans-Bold-20" x="333.007812"/>
     <use xlink:href="#DejaVuSans-Bold-33" x="367.822266"/>
     <use xlink:href="#DejaVuSans-Bold-2d" x="437.402344"/>
     <use xlink:href="#DejaVuSans-Bold-73" x="478.90625"/>
     <use xlink:href="#DejaVuSans-Bold-68" x="538.427734"/>
     <use xlink:href="#DejaVuSans-Bold-6f" x="609.619141"/>
     <use xlink:href="#DejaVuSans-Bold-74" x="678.320312"/>
     <use xlink:href="#DejaVuSans-Bold-20" x="726.123047"/>
     <use xlink:href="#DejaVuSans-Bold-7c" x="760.9375"/>
     <use xlink:href="#DejaVuSans-Bold-20" x="797.460938"/>
     <use xlink:href="#DejaVuSans-Bold-42" x="832.275391"/>
     <use xlink:href="#DejaVuSans-Bold-61" x="908.496094"/>
     <use xlink:href="#DejaVuSans-Bold-63" x="975.976562"/>
     <use xlink:href="#DejaVuSans-Bold-6b" x="1035.253906"/>
     <use xlink:href="#DejaVuSans-Bold-62" x="1101.757812"/>
     <use xlink:href="#DejaVuSans-Bold-6f" x="1173.339844"/>
     <use xlink:href="#DejaVuSans-Bold-6e" x="1242.041016"/>
     <use xlink:href="#DejaVuSans-Bold-65" x="1313.232422"/>
     <use xlink:href="#DejaVuSans-Bold-3a" x="1381.054688"/>
     <use xlink:href="#DejaVuSans-Bold-20" x="1421.044922"/>
     <use xlink:href="#DejaVuSans-Bold-76" x="1455.859375"/>
     <use xlink:href="#DejaVuSans-Bold-69" x="1521.044922"/>
     <use xlink:href="#DejaVuSans-Bold-74" x="1555.322266"/>
     <use xlink:href="#DejaVuSans-Bold-5f" x="1603.125"/>
     <use xlink:href="#DejaVuSans-Bold-62" x="1653.125"/>
     <use xlink:href="#DejaVuSans-Bold-5f" x="1724.707031"/>
     <use xlink:href="#DejaVuSans-Bold-31" x="1774.707031"/>
     <use xlink:href="#DejaVuSans-Bold-36" x="1844.287109"/>
    </g>
   </g>
   <g id="legend_1">
    <g id="patch_32">
     <path d="M 841.245312 223.766375 
L 987.298437 223.766375 
Q 989.298437 223.766375 989.298437 221.766375 
L 989.298437 62.697625 
Q 989.298437 60.697625 987.298437 60.697625 
L 841.245312 60.697625 
Q 839.245312 60.697625 839.245312 62.697625 
L 839.245312 221.766375 
Q 839.245312 223.766375 841.245312 223.766375 
z
" style="fill: #4d4d4d; opacity: 0.5; stroke: #4d4d4d; stroke-linejoin: miter"/>
    </g>
    <g id="patch_33">
     <path d="M 839.245312 221.766375 
L 985.298437 221.766375 
Q 987.298437 221.766375 987.298437 219.766375 
L 987.298437 60.697625 
Q 987.298437 58.697625 985.298437 58.697625 
L 839.245312 58.697625 
Q 837.245312 58.697625 837.245312 60.697625 
L 837.245312 219.766375 
Q 837.245312 221.766375 839.245312 221.766375 
z
" style="fill: #ffffff; opacity: 0.95; stroke: #000000; stroke-linejoin: miter"/>
    </g>
    <g id="PathCollection_5">
     <defs>
      <path id="mdc60de29a1" d="M -5.656854 5.656854 
L 5.656854 5.656854 
L 5.656854 -5.656854 
L -5.656854 -5.656854 
z
" style="stroke: #000000; stroke-opacity: 0.7; stroke-width: 2"/>
     </defs>
     <g>
      <use xlink:href="#mdc60de29a1" x="867.245312" y="78.671062" style="fill: #1f77b4; fill-opacity: 0.7; stroke: #000000; stroke-opacity: 0.7; stroke-width: 2"/>
     </g>
    </g>
    <g id="text_31">
     <!-- BK Support -->
     <g transform="translate(894.245312 81.296062) scale(0.1 -0.1)">
      <defs>
       <path id="DejaVuSans-42" d="M 1259 2228 
L 1259 519 
L 2272 519 
Q 2781 519 3026 730 
Q 3272 941 3272 1375 
Q 3272 1813 3026 2020 
Q 2781 2228 2272 2228 
L 1259 2228 
z
M 1259 4147 
L 1259 2741 
L 2194 2741 
Q 2656 2741 2882 2914 
Q 3109 3088 3109 3444 
Q 3109 3797 2882 3972 
Q 2656 4147 2194 4147 
L 1259 4147 
z
M 628 4666 
L 2241 4666 
Q 2963 4666 3353 4366 
Q 3744 4066 3744 3513 
Q 3744 3084 3544 2831 
Q 3344 2578 2956 2516 
Q 3422 2416 3680 2098 
Q 3938 1781 3938 1306 
Q 3938 681 3513 340 
Q 3088 0 2303 0 
L 628 0 
L 628 4666 
z
" transform="scale(0.015625)"/>
       <path id="DejaVuSans-4b" d="M 628 4666 
L 1259 4666 
L 1259 2694 
L 3353 4666 
L 4166 4666 
L 1850 2491 
L 4331 0 
L 3500 0 
L 1259 2247 
L 1259 0 
L 628 0 
L 628 4666 
z
" transform="scale(0.015625)"/>
      </defs>
      <use xlink:href="#DejaVuSans-42"/>
      <use xlink:href="#DejaVuSans-4b" x="68.603516"/>
      <use xlink:href="#DejaVuSans-20" x="134.179688"/>
      <use xlink:href="#DejaVuSans-53" x="165.966797"/>
      <use xlink:href="#DejaVuSans-75" x="229.443359"/>
      <use xlink:href="#DejaVuSans-70" x="292.822266"/>
      <use xlink:href="#DejaVuSans-70" x="356.298828"/>
      <use xlink:href="#DejaVuSans-6f" x="419.775391"/>
      <use xlink:href="#DejaVuSans-72" x="480.957031"/>
      <use xlink:href="#DejaVuSans-74" x="522.070312"/>
     </g>
    </g>
    <g id="PathCollection_6">
     <defs>
      <path id="m1fd2dd755e" d="M -5.656854 5.656854 
L 5.656854 5.656854 
L 5.656854 -5.656854 
L -5.656854 -5.656854 
z
" style="stroke: #000000; stroke-opacity: 0.7; stroke-width: 2"/>
     </defs>
     <g>
      <use xlink:href="#m1fd2dd755e" x="867.245312" y="103.349187" style="fill: #ff7f0e; fill-opacity: 0.7; stroke: #000000; stroke-opacity: 0.7; stroke-width: 2"/>
     </g>
    </g>
    <g id="text_32">
     <!-- FK Support -->
     <g transform="translate(894.245312 105.974187) scale(0.1 -0.1)">
      <defs>
       <path id="DejaVuSans-46" d="M 628 4666 
L 3309 4666 
L 3309 4134 
L 1259 4134 
L 1259 2759 
L 3109 2759 
L 3109 2228 
L 1259 2228 
L 1259 0 
L 628 0 
L 628 4666 
z
" transform="scale(0.015625)"/>
      </defs>
      <use xlink:href="#DejaVuSans-46"/>
      <use xlink:href="#DejaVuSans-4b" x="57.519531"/>
      <use xlink:href="#DejaVuSans-20" x="123.095703"/>
      <use xlink:href="#DejaVuSans-53" x="154.882812"/>
      <use xlink:href="#DejaVuSans-75" x="218.359375"/>
      <use xlink:href="#DejaVuSans-70" x="281.738281"/>
      <use xlink:href="#DejaVuSans-70" x="345.214844"/>
      <use xlink:href="#DejaVuSans-6f" x="408.691406"/>
      <use xlink:href="#DejaVuSans-72" x="469.873047"/>
      <use xlink:href="#DejaVuSans-74" x="510.986328"/>
     </g>
    </g>
    <g id="PathCollection_7">
     <defs>
      <path id="m17b345e1e1" d="M -2.309401 6.928203 
L 2.309401 6.928203 
L 2.309401 2.309401 
L 6.928203 2.309401 
L 6.928203 -2.309401 
L 2.309401 -2.309401 
L 2.309401 -6.928203 
L -2.309401 -6.928203 
L -2.309401 -2.309401 
L -6.928203 -2.309401 
L -6.928203 2.309401 
L -2.309401 2.309401 
z
" style="stroke: #000000; stroke-width: 2"/>
     </defs>
     <g>
      <use xlink:href="#m17b345e1e1" x="867.245312" y="128.027312" style="fill: #1f77b4; stroke: #000000; stroke-width: 2"/>
     </g>
    </g>
    <g id="text_33">
     <!-- BK Centroid -->
     <g transform="translate(894.245312 130.652312) scale(0.1 -0.1)">
      <defs>
       <path id="DejaVuSans-43" d="M 4122 4306 
L 4122 3641 
Q 3803 3938 3442 4084 
Q 3081 4231 2675 4231 
Q 1875 4231 1450 3742 
Q 1025 3253 1025 2328 
Q 1025 1406 1450 917 
Q 1875 428 2675 428 
Q 3081 428 3442 575 
Q 3803 722 4122 1019 
L 4122 359 
Q 3791 134 3420 21 
Q 3050 -91 2638 -91 
Q 1578 -91 968 557 
Q 359 1206 359 2328 
Q 359 3453 968 4101 
Q 1578 4750 2638 4750 
Q 3056 4750 3426 4639 
Q 3797 4528 4122 4306 
z
" transform="scale(0.015625)"/>
      </defs>
      <use xlink:href="#DejaVuSans-42"/>
      <use xlink:href="#DejaVuSans-4b" x="68.603516"/>
      <use xlink:href="#DejaVuSans-20" x="134.179688"/>
      <use xlink:href="#DejaVuSans-43" x="165.966797"/>
      <use xlink:href="#DejaVuSans-65" x="235.791016"/>
      <use xlink:href="#DejaVuSans-6e" x="297.314453"/>
      <use xlink:href="#DejaVuSans-74" x="360.693359"/>
      <use xlink:href="#DejaVuSans-72" x="399.902344"/>
      <use xlink:href="#DejaVuSans-6f" x="438.765625"/>
      <use xlink:href="#DejaVuSans-69" x="499.947266"/>
      <use xlink:href="#DejaVuSans-64" x="527.730469"/>
     </g>
    </g>
    <g id="PathCollection_8">
     <defs>
      <path id="m369b4e16a0" d="M -2.309401 6.928203 
L 2.309401 6.928203 
L 2.309401 2.309401 
L 6.928203 2.309401 
L 6.928203 -2.309401 
L 2.309401 -2.309401 
L 2.309401 -6.928203 
L -2.309401 -6.928203 
L -2.309401 -2.309401 
L -6.928203 -2.309401 
L -6.928203 2.309401 
L -2.309401 2.309401 
z
" style="stroke: #000000; stroke-width: 2"/>
     </defs>
     <g>
      <use xlink:href="#m369b4e16a0" x="867.245312" y="152.705437" style="fill: #ff7f0e; stroke: #000000; stroke-width: 2"/>
     </g>
    </g>
    <g id="text_34">
     <!-- FK Centroid -->
     <g transform="translate(894.245312 155.330437) scale(0.1 -0.1)">
      <use xlink:href="#DejaVuSans-46"/>
      <use xlink:href="#DejaVuSans-4b" x="57.519531"/>
      <use xlink:href="#DejaVuSans-20" x="123.095703"/>
      <use xlink:href="#DejaVuSans-43" x="154.882812"/>
      <use xlink:href="#DejaVuSans-65" x="224.707031"/>
      <use xlink:href="#DejaVuSans-6e" x="286.230469"/>
      <use xlink:href="#DejaVuSans-74" x="349.609375"/>
      <use xlink:href="#DejaVuSans-72" x="388.818359"/>
      <use xlink:href="#DejaVuSans-6f" x="427.681641"/>
      <use xlink:href="#DejaVuSans-69" x="488.863281"/>
      <use xlink:href="#DejaVuSans-64" x="516.646484"/>
     </g>
    </g>
    <g id="PathCollection_9">
     <defs>
      <path id="m1b7853d03b" d="M 0 4.898979 
C 1.299225 4.898979 2.545411 4.382792 3.464102 3.464102 
C 4.382792 2.545411 4.898979 1.299225 4.898979 0 
C 4.898979 -1.299225 4.382792 -2.545411 3.464102 -3.464102 
C 2.545411 -4.382792 1.299225 -4.898979 0 -4.898979 
C -1.299225 -4.898979 -2.545411 -4.382792 -3.464102 -3.464102 
C -4.382792 -2.545411 -4.898979 -1.299225 -4.898979 0 
C -4.898979 1.299225 -4.382792 2.545411 -3.464102 3.464102 
C -2.545411 4.382792 -1.299225 4.898979 0 4.898979 
z
" style="stroke: #000000; stroke-opacity: 0.8; stroke-width: 1.5"/>
     </defs>
     <g>
      <use xlink:href="#m1b7853d03b" x="867.245312" y="177.383562" style="fill: #1f77b4; fill-opacity: 0.8; stroke: #000000; stroke-opacity: 0.8; stroke-width: 1.5"/>
     </g>
    </g>
    <g id="text_35">
     <!-- Predicted as BK -->
     <g transform="translate(894.245312 180.008562) scale(0.1 -0.1)">
      <defs>
       <path id="DejaVuSans-50" d="M 1259 4147 
L 1259 2394 
L 2053 2394 
Q 2494 2394 2734 2622 
Q 2975 2850 2975 3272 
Q 2975 3691 2734 3919 
Q 2494 4147 2053 4147 
L 1259 4147 
z
M 628 4666 
L 2053 4666 
Q 2838 4666 3239 4311 
Q 3641 3956 3641 3272 
Q 3641 2581 3239 2228 
Q 2838 1875 2053 1875 
L 1259 1875 
L 1259 0 
L 628 0 
L 628 4666 
z
" transform="scale(0.015625)"/>
      </defs>
      <use xlink:href="#DejaVuSans-50"/>
      <use xlink:href="#DejaVuSans-72" x="58.552734"/>
      <use xlink:href="#DejaVuSans-65" x="97.416016"/>
      <use xlink:href="#DejaVuSans-64" x="158.939453"/>
      <use xlink:href="#DejaVuSans-69" x="222.416016"/>
      <use xlink:href="#DejaVuSans-63" x="250.199219"/>
      <use xlink:href="#DejaVuSans-74" x="305.179688"/>
      <use xlink:href="#DejaVuSans-65" x="344.388672"/>
      <use xlink:href="#DejaVuSans-64" x="405.912109"/>
      <use xlink:href="#DejaVuSans-20" x="469.388672"/>
      <use xlink:href="#DejaVuSans-61" x="501.175781"/>
      <use xlink:href="#DejaVuSans-73" x="562.455078"/>
      <use xlink:href="#DejaVuSans-20" x="614.554688"/>
      <use xlink:href="#DejaVuSans-42" x="646.341797"/>
      <use xlink:href="#DejaVuSans-4b" x="714.945312"/>
     </g>
    </g>
    <g id="PathCollection_10">
     <defs>
      <path id="me42dd800f3" d="M 0 4.898979 
C 1.299225 4.898979 2.545411 4.382792 3.464102 3.464102 
C 4.382792 2.545411 4.898979 1.299225 4.898979 0 
C 4.898979 -1.299225 4.382792 -2.545411 3.464102 -3.464102 
C 2.545411 -4.382792 1.299225 -4.898979 0 -4.898979 
C -1.299225 -4.898979 -2.545411 -4.382792 -3.464102 -3.464102 
C -4.382792 -2.545411 -4.898979 -1.299225 -4.898979 0 
C -4.898979 1.299225 -4.382792 2.545411 -3.464102 3.464102 
C -2.545411 4.382792 -1.299225 4.898979 0 4.898979 
z
" style="stroke: #000000; stroke-opacity: 0.8; stroke-width: 1.5"/>
     </defs>
     <g>
      <use xlink:href="#me42dd800f3" x="867.245312" y="202.061687" style="fill: #ff7f0e; fill-opacity: 0.8; stroke: #000000; stroke-opacity: 0.8; stroke-width: 1.5"/>
     </g>
    </g>
    <g id="text_36">
     <!-- Predicted as FK -->
     <g transform="translate(894.245312 204.686687) scale(0.1 -0.1)">
      <use xlink:href="#DejaVuSans-50"/>
      <use xlink:href="#DejaVuSans-72" x="58.552734"/>
      <use xlink:href="#DejaVuSans-65" x="97.416016"/>
      <use xlink:href="#DejaVuSans-64" x="158.939453"/>
      <use xlink:href="#DejaVuSans-69" x="222.416016"/>
      <use xlink:href="#DejaVuSans-63" x="250.199219"/>
      <use xlink:href="#DejaVuSans-74" x="305.179688"/>
      <use xlink:href="#DejaVuSans-65" x="344.388672"/>
      <use xlink:href="#DejaVuSans-64" x="405.912109"/>
      <use xlink:href="#DejaVuSans-20" x="469.388672"/>
      <use xlink:href="#DejaVuSans-61" x="501.175781"/>
      <use xlink:href="#DejaVuSans-73" x="562.455078"/>
      <use xlink:href="#DejaVuSans-20" x="614.554688"/>
      <use xlink:href="#DejaVuSans-46" x="646.341797"/>
      <use xlink:href="#DejaVuSans-4b" x="703.861328"/>
     </g>
    </g>
   </g>
   <g id="PathCollection_11">
    <defs>
     <path id="m200a61a9ee" d="M -2.886751 8.660254 
L 2.886751 8.660254 
L 2.886751 2.886751 
L 8.660254 2.886751 
L 8.660254 -2.886751 
L 2.886751 -2.886751 
L 2.886751 -8.660254 
L -2.886751 -8.660254 
L -2.886751 -2.886751 
L -8.660254 -2.886751 
L -8.660254 2.886751 
L -2.886751 2.886751 
z
" style="stroke: #000000; stroke-width: 2"/>
    </defs>
    <g clip-path="url(#pc71e1de309)">
     <use xlink:href="#m200a61a9ee" x="555.481073" y="396.842396" style="fill: #1f77b4; stroke: #000000; stroke-width: 2"/>
    </g>
   </g>
   <g id="PathCollection_12">
    <defs>
     <path id="m9a682bf2bd" d="M -2.886751 8.660254 
L 2.886751 8.660254 
L 2.886751 2.886751 
L 8.660254 2.886751 
L 8.660254 -2.886751 
L 2.886751 -2.886751 
L 2.886751 -8.660254 
L -2.886751 -8.660254 
L -2.886751 -2.886751 
L -8.660254 -2.886751 
L -8.660254 2.886751 
L -2.886751 2.886751 
z
" style="stroke: #000000; stroke-width: 2"/>
    </defs>
    <g clip-path="url(#pc71e1de309)">
     <use xlink:href="#m9a682bf2bd" x="722.839131" y="243.060394" style="fill: #ff7f0e; stroke: #000000; stroke-width: 2"/>
    </g>
   </g>
  </g>
 </g>
 <defs>
  <clipPath id="pc71e1de309">
   <rect x="50.918438" y="53.697625" width="941.38" height="617.72"/>
  </clipPath>
 </defs>
</svg>
